M48
; DRILL file {KiCad (6.0.10)} date Sat Jan 28 14:47:25 2023
; FORMAT={-:-/ absolute / inch / decimal}
; #@! TF.CreationDate,2023-01-28T14:47:25-05:00
; #@! TF.GenerationSoftware,Kicad,Pcbnew,(6.0.10)
; #@! TF.FileFunction,Plated,1,2,PTH
FMAT,2
INCH
; #@! TA.AperFunction,Plated,PTH,ViaDrill
T1C0.0118
; #@! TA.AperFunction,Plated,PTH,ComponentDrill
T2C0.0236
; #@! TA.AperFunction,Plated,PTH,ComponentDrill
T3C0.0335
; #@! TA.AperFunction,Plated,PTH,ComponentDrill
T4C0.0354
; #@! TA.AperFunction,Plated,PTH,ComponentDrill
T5C0.0394
; #@! TA.AperFunction,Plated,PTH,ComponentDrill
T6C0.0433
; #@! TA.AperFunction,Plated,PTH,ComponentDrill
T7C0.0866
%
G90
G05
T1
X4.232Y-3.098
X4.242Y-3.244
X4.28Y-3.56
X4.322Y-2.862
X4.348Y-2.99
X4.395Y-3.065
X4.396Y-2.606
X4.402Y-2.976
X4.405Y-3.135
X4.48Y-3.565
X4.5Y-2.43
X4.51Y-2.93
X4.51Y-2.965
X4.512Y-2.872
X4.515Y-3.115
X4.52Y-3.295
X4.52Y-3.34
X4.532Y-2.066
X4.545Y-2.755
X4.564Y-2.792
X4.565Y-2.645
X4.595Y-2.96
X4.615Y-2.525
X4.655Y-3.13
X4.66Y-2.96
X4.671Y-3.373
X4.675Y-2.525
X4.685Y-3.15
X4.69Y-2.3
X4.69Y-2.475
X4.711Y-3.368
X4.73Y-2.14
X4.754Y-2.266
X4.76Y-3.18
X4.768Y-2.878
X4.778Y-2.228
X4.795Y-3.075
X4.81Y-3.47
X4.835Y-2.165
X4.855Y-3.015
X4.865Y-2.49
X4.8661Y-2.7539
X4.868Y-2.652
X4.8685Y-3.2965
X4.9264Y-3.4986
X4.93Y-2.215
X4.932Y-3.22
X4.946Y-3.186
X4.985Y-3.365
X5.042Y-2.98
X5.048Y-2.93
X5.074Y-2.778
X5.074Y-2.91
X5.088Y-3.12
X5.1Y-2.515
X5.12Y-3.545
X5.135Y-3.315
X5.15Y-2.76
X5.15Y-2.895
X5.1525Y-3.1175
X5.165Y-2.695
X5.175Y-3.365
X5.198Y-2.666
X5.2041Y-3.4918
X5.245Y-2.91
X5.248Y-2.95
X5.25Y-3.115
X5.25Y-3.165
X5.2545Y-2.6055
X5.2925Y-2.1425
X5.326Y-3.5
X5.355Y-3.21
X5.365Y-3.535
X5.37Y-2.7
X5.376Y-3.576
X5.39Y-2.145
X5.39Y-2.19
X5.41Y-2.645
X5.41Y-2.7
X5.42Y-2.132
X5.42Y-2.505
X5.42Y-2.555
X5.42Y-3.015
X5.422Y-3.3
X5.445Y-2.315
X5.445Y-2.315
X5.45Y-3.03
X5.4506Y-2.1194
X5.455Y-3.775
X5.48Y-3.981
X5.485Y-3.8
X5.49Y-2.71
X5.49Y-3.06
X5.49Y-3.1
X5.505Y-2.675
X5.515Y-3.275
X5.5418Y-3.8129
X5.575Y-2.865
X5.576Y-3.418
X5.58Y-2.95
X5.58Y-3.386
X5.58Y-3.875
X5.582Y-3.134
X5.5833Y-2.4317
X5.589Y-2.106
X5.6075Y-2.9925
X5.625Y-3.215
X5.63Y-3.87
X5.66Y-3.035
X5.668Y-1.842
X5.668Y-1.888
X5.668Y-1.934
X5.668Y-1.98
X5.68Y-2.655
X5.68Y-3.345
X5.685Y-3.49
X5.69Y-2.034
X5.695Y-2.445
X5.71Y-2.515
X5.71Y-2.56
X5.71Y-2.6
X5.71Y-2.645
X5.71Y-2.69
X5.71Y-2.742
X5.72Y-3.688
X5.724Y-1.842
X5.724Y-1.888
X5.724Y-1.934
X5.724Y-1.98
X5.725Y-3.345
X5.725Y-3.39
X5.725Y-3.435
X5.725Y-3.48
X5.725Y-3.525
X5.725Y-3.57
X5.745Y-2.89
X5.75Y-2.515
X5.75Y-2.56
X5.75Y-2.6
X5.75Y-2.645
X5.755Y-2.69
X5.764Y-3.688
X5.765Y-3.39
X5.765Y-3.435
X5.765Y-3.48
X5.765Y-3.525
X5.765Y-3.57
X5.77Y-3.965
X5.7798Y-3.0669
X5.78Y-1.842
X5.78Y-1.888
X5.78Y-1.934
X5.78Y-1.98
X5.79Y-2.515
X5.79Y-2.56
X5.815Y-2.89
X5.8355Y-2.4745
X5.836Y-1.842
X5.836Y-1.888
X5.836Y-1.934
X5.836Y-1.98
X5.87Y-2.475
X5.875Y-3.55
X5.875Y-3.55
X5.875Y-3.77
X5.875Y-3.965
X5.8775Y-2.5675
X5.88Y-2.615
X5.88Y-2.785
X5.88Y-3.5
X5.88Y-3.6
X5.88Y-3.665
X5.8805Y-3.4667
X5.882Y-3.698
X5.883Y-2.818
X5.885Y-2.68
X5.885Y-2.995
X5.885Y-3.87
X5.8855Y-2.7195
X5.892Y-1.842
X5.892Y-1.888
X5.892Y-1.934
X5.892Y-1.98
X5.98Y-3.86
X5.985Y-3.39
X5.9875Y-3.7325
X5.99Y-2.515
X5.992Y-2.92
X5.996Y-2.982
X6.0016Y-3.6353
X6.015Y-2.655
X6.015Y-2.655
X6.025Y-3.4
X6.03Y-2.455
X6.03Y-2.565
X6.0425Y-2.8825
X6.044Y-2.744
X6.0536Y-2.5064
X6.055Y-2.09
X6.058Y-1.836
X6.058Y-1.882
X6.07Y-3.97
X6.08Y-3.54
X6.09Y-3.035
X6.096Y-2.846
X6.1Y-2.885
X6.1031Y-2.47
X6.114Y-1.836
X6.114Y-1.882
X6.12Y-2.145
X6.12Y-3.425
X6.13Y-3.71
X6.14Y-3.01
X6.17Y-1.836
X6.17Y-1.882
X6.1952Y-3.1172
X6.205Y-3.93
X6.226Y-1.836
X6.226Y-1.882
X6.255Y-3.675
X6.258Y-3.448
X6.2711Y-2.8689
X6.2975Y-2.5075
X6.354Y-2.506
X6.355Y-2.11
X6.39Y-2.11
X6.4323Y-3.0627
X6.562Y-2.27
X6.73Y-3.01
X6.82Y-2.995
X6.87Y-2.972
T2
X4.9366Y-3.69
X4.9956Y-3.69
X5.95Y-2.155
X6.0091Y-2.155
X6.09Y-3.13
X6.09Y-3.1891
T3
X5.3236Y-1.9925
X5.5204Y-1.9925
T4
X4.183Y-2.2429
X4.183Y-2.3414
X4.183Y-2.4398
X4.313Y-2.2429
X4.313Y-2.3414
X4.313Y-2.4398
T5
X4.172Y-3.1934
X4.172Y-3.2934
X4.172Y-3.3934
X4.375Y-1.945
X4.475Y-1.945
X4.5618Y-3.7015
X4.5618Y-3.8015
X4.5618Y-3.9015
X4.5618Y-4.0015
X4.575Y-1.945
X4.6618Y-3.7015
X4.6618Y-3.8015
X4.6618Y-3.9015
X4.6618Y-4.0015
X4.675Y-1.945
X4.775Y-1.945
X4.8196Y-4.015
X4.875Y-1.945
X4.9196Y-4.015
X5.0196Y-4.015
X5.1196Y-4.015
T6
X6.37Y-3.205
X6.375Y-2.8072
X6.375Y-3.5928
X6.375Y-3.985
X6.38Y-2.42
X6.385Y-2.03
X6.47Y-3.205
X6.475Y-2.8072
X6.475Y-3.5928
X6.475Y-3.985
X6.48Y-2.42
X6.485Y-2.03
X6.57Y-3.205
X6.575Y-2.8072
X6.575Y-3.5928
X6.575Y-3.985
X6.58Y-2.42
X6.585Y-2.03
X6.895Y-3.205
X6.895Y-3.5922
X6.895Y-3.985
X6.9Y-2.03
X6.9Y-2.42
X6.9Y-2.8072
X6.995Y-3.205
X6.995Y-3.5922
X6.995Y-3.985
X7.0Y-2.03
X7.0Y-2.42
X7.0Y-2.8072
X7.095Y-3.205
X7.095Y-3.5922
X7.095Y-3.985
X7.1Y-2.03
X7.1Y-2.42
X7.1Y-2.8072
T7
X4.192Y-1.916
X4.192Y-4.018
X7.512Y-1.916
X7.512Y-4.018
T2
G00X5.2842Y-1.9
M15
G01X5.2842Y-1.8724
M16
G05
G00X5.5598Y-1.9
M15
G01X5.5598Y-1.8724
M16
G05
T0
M30
