%TF.GenerationSoftware,KiCad,Pcbnew,(6.0.10)*%
%TF.CreationDate,2023-01-28T14:49:12-05:00*%
%TF.ProjectId,electrium-esc,656c6563-7472-4697-956d-2d6573632e6b,rev?*%
%TF.SameCoordinates,Original*%
%TF.FileFunction,Copper,L1,Top*%
%TF.FilePolarity,Positive*%
%FSLAX46Y46*%
G04 Gerber Fmt 4.6, Leading zero omitted, Abs format (unit mm)*
G04 Created by KiCad (PCBNEW (6.0.10)) date 2023-01-28 14:49:12*
%MOMM*%
%LPD*%
G01*
G04 APERTURE LIST*
G04 Aperture macros list*
%AMRoundRect*
0 Rectangle with rounded corners*
0 $1 Rounding radius*
0 $2 $3 $4 $5 $6 $7 $8 $9 X,Y pos of 4 corners*
0 Add a 4 corners polygon primitive as box body*
4,1,4,$2,$3,$4,$5,$6,$7,$8,$9,$2,$3,0*
0 Add four circle primitives for the rounded corners*
1,1,$1+$1,$2,$3*
1,1,$1+$1,$4,$5*
1,1,$1+$1,$6,$7*
1,1,$1+$1,$8,$9*
0 Add four rect primitives between the rounded corners*
20,1,$1+$1,$2,$3,$4,$5,0*
20,1,$1+$1,$4,$5,$6,$7,0*
20,1,$1+$1,$6,$7,$8,$9,0*
20,1,$1+$1,$8,$9,$2,$3,0*%
G04 Aperture macros list end*
%TA.AperFunction,ComponentPad*%
%ADD10C,1.700000*%
%TD*%
%TA.AperFunction,ComponentPad*%
%ADD11R,1.700000X1.700000*%
%TD*%
%TA.AperFunction,SMDPad,CuDef*%
%ADD12R,3.600000X4.800000*%
%TD*%
%TA.AperFunction,ConnectorPad*%
%ADD13C,4.400000*%
%TD*%
%TA.AperFunction,ComponentPad*%
%ADD14C,2.600000*%
%TD*%
%TA.AperFunction,SMDPad,CuDef*%
%ADD15RoundRect,0.147500X-0.147500X-0.172500X0.147500X-0.172500X0.147500X0.172500X-0.147500X0.172500X0*%
%TD*%
%TA.AperFunction,SMDPad,CuDef*%
%ADD16RoundRect,0.147500X0.147500X0.172500X-0.147500X0.172500X-0.147500X-0.172500X0.147500X-0.172500X0*%
%TD*%
%TA.AperFunction,SMDPad,CuDef*%
%ADD17RoundRect,0.225000X0.250000X-0.225000X0.250000X0.225000X-0.250000X0.225000X-0.250000X-0.225000X0*%
%TD*%
%TA.AperFunction,SMDPad,CuDef*%
%ADD18RoundRect,0.225000X0.225000X0.250000X-0.225000X0.250000X-0.225000X-0.250000X0.225000X-0.250000X0*%
%TD*%
%TA.AperFunction,SMDPad,CuDef*%
%ADD19RoundRect,0.225000X-0.225000X-0.250000X0.225000X-0.250000X0.225000X0.250000X-0.225000X0.250000X0*%
%TD*%
%TA.AperFunction,SMDPad,CuDef*%
%ADD20RoundRect,0.200000X-0.200000X-0.275000X0.200000X-0.275000X0.200000X0.275000X-0.200000X0.275000X0*%
%TD*%
%TA.AperFunction,SMDPad,CuDef*%
%ADD21RoundRect,0.225000X-0.250000X0.225000X-0.250000X-0.225000X0.250000X-0.225000X0.250000X0.225000X0*%
%TD*%
%TA.AperFunction,SMDPad,CuDef*%
%ADD22R,1.200000X0.900000*%
%TD*%
%TA.AperFunction,SMDPad,CuDef*%
%ADD23R,1.200000X1.400000*%
%TD*%
%TA.AperFunction,ComponentPad*%
%ADD24O,1.905000X2.000000*%
%TD*%
%TA.AperFunction,ComponentPad*%
%ADD25R,1.905000X2.000000*%
%TD*%
%TA.AperFunction,SMDPad,CuDef*%
%ADD26RoundRect,0.200000X0.200000X0.275000X-0.200000X0.275000X-0.200000X-0.275000X0.200000X-0.275000X0*%
%TD*%
%TA.AperFunction,ComponentPad*%
%ADD27O,1.700000X1.700000*%
%TD*%
%TA.AperFunction,SMDPad,CuDef*%
%ADD28RoundRect,0.250000X0.262500X0.450000X-0.262500X0.450000X-0.262500X-0.450000X0.262500X-0.450000X0*%
%TD*%
%TA.AperFunction,SMDPad,CuDef*%
%ADD29RoundRect,0.200000X-0.275000X0.200000X-0.275000X-0.200000X0.275000X-0.200000X0.275000X0.200000X0*%
%TD*%
%TA.AperFunction,ComponentPad*%
%ADD30R,1.200000X1.200000*%
%TD*%
%TA.AperFunction,ComponentPad*%
%ADD31C,1.200000*%
%TD*%
%TA.AperFunction,SMDPad,CuDef*%
%ADD32R,0.900000X1.200000*%
%TD*%
%TA.AperFunction,SMDPad,CuDef*%
%ADD33R,1.550000X0.300000*%
%TD*%
%TA.AperFunction,SMDPad,CuDef*%
%ADD34R,3.610000X6.350000*%
%TD*%
%TA.AperFunction,ComponentPad*%
%ADD35R,1.400000X1.400000*%
%TD*%
%TA.AperFunction,ComponentPad*%
%ADD36C,1.400000*%
%TD*%
%TA.AperFunction,SMDPad,CuDef*%
%ADD37RoundRect,0.200000X0.275000X-0.200000X0.275000X0.200000X-0.275000X0.200000X-0.275000X-0.200000X0*%
%TD*%
%TA.AperFunction,SMDPad,CuDef*%
%ADD38R,1.500000X2.000000*%
%TD*%
%TA.AperFunction,SMDPad,CuDef*%
%ADD39R,3.800000X2.000000*%
%TD*%
%TA.AperFunction,ComponentPad*%
%ADD40O,0.950000X1.900000*%
%TD*%
%TA.AperFunction,SMDPad,CuDef*%
%ADD41R,1.200000X1.900000*%
%TD*%
%TA.AperFunction,SMDPad,CuDef*%
%ADD42R,1.500000X1.900000*%
%TD*%
%TA.AperFunction,SMDPad,CuDef*%
%ADD43R,0.400000X1.350000*%
%TD*%
%TA.AperFunction,ComponentPad*%
%ADD44C,1.450000*%
%TD*%
%TA.AperFunction,SMDPad,CuDef*%
%ADD45RoundRect,0.075000X-0.662500X-0.075000X0.662500X-0.075000X0.662500X0.075000X-0.662500X0.075000X0*%
%TD*%
%TA.AperFunction,SMDPad,CuDef*%
%ADD46RoundRect,0.075000X-0.075000X-0.662500X0.075000X-0.662500X0.075000X0.662500X-0.075000X0.662500X0*%
%TD*%
%TA.AperFunction,SMDPad,CuDef*%
%ADD47R,0.800000X2.700000*%
%TD*%
%TA.AperFunction,ViaPad*%
%ADD48C,0.500000*%
%TD*%
%TA.AperFunction,Conductor*%
%ADD49C,0.254000*%
%TD*%
%TA.AperFunction,Conductor*%
%ADD50C,0.500000*%
%TD*%
%TA.AperFunction,Conductor*%
%ADD51C,0.300000*%
%TD*%
%TA.AperFunction,Conductor*%
%ADD52C,0.200000*%
%TD*%
%TA.AperFunction,Conductor*%
%ADD53C,0.250000*%
%TD*%
G04 APERTURE END LIST*
D10*
%TO.P,U5,8,IRQ*%
%TO.N,unconnected-(U5-Pad8)*%
X115870000Y-94017000D03*
%TO.P,U5,7,MISO*%
%TO.N,/MCU (STM32F407ZGT6)/NRF_MISO*%
X118410000Y-94017000D03*
%TO.P,U5,6,MOSI*%
%TO.N,/MCU (STM32F407ZGT6)/NRF_MOSI*%
X115870000Y-96557000D03*
%TO.P,U5,5,SCK*%
%TO.N,/MCU (STM32F407ZGT6)/NRF_SCK*%
X118410000Y-96557000D03*
%TO.P,U5,4,~{CSN}*%
%TO.N,/MCU (STM32F407ZGT6)/NRF_CSN*%
X115870000Y-99097000D03*
%TO.P,U5,3,CE*%
%TO.N,/MCU (STM32F407ZGT6)/NRF_CE*%
X118410000Y-99097000D03*
%TO.P,U5,2,VCC*%
%TO.N,+3.3V*%
X115870000Y-101637000D03*
D11*
%TO.P,U5,1,GND*%
%TO.N,GND*%
X118410000Y-101637000D03*
%TD*%
D12*
%TO.P,TP1,1,1*%
%TO.N,/Motor Driver A (DRV8301)/H1_VS*%
X186355000Y-51562000D03*
%TD*%
D13*
%TO.P,REF\u002A\u002A,1*%
%TO.N,N/C*%
X190804800Y-48666400D03*
D14*
X190804800Y-48666400D03*
%TD*%
D13*
%TO.P,REF\u002A\u002A,1*%
%TO.N,N/C*%
X190804800Y-102057200D03*
D14*
X190804800Y-102057200D03*
%TD*%
D13*
%TO.P,asd,1*%
%TO.N,N/C*%
X106476800Y-102057200D03*
D14*
X106476800Y-102057200D03*
%TD*%
D13*
%TO.P,REF\u002A\u002A,1*%
%TO.N,N/C*%
X106476800Y-48666400D03*
D14*
X106476800Y-48666400D03*
%TD*%
D12*
%TO.P,TP3,1,1*%
%TO.N,/Motor Driver A (DRV8301)/H3_VS*%
X186355000Y-71374000D03*
%TD*%
D15*
%TO.P,D5,1,K*%
%TO.N,GND*%
X110767000Y-77089000D03*
%TO.P,D5,2,A*%
%TO.N,Net-(D5-Pad2)*%
X111737000Y-77089000D03*
%TD*%
D16*
%TO.P,D6,1,K*%
%TO.N,GND*%
X120627000Y-55626000D03*
%TO.P,D6,2,A*%
%TO.N,Net-(D6-Pad2)*%
X119657000Y-55626000D03*
%TD*%
D17*
%TO.P,C9,1*%
%TO.N,+3.3V*%
X109093000Y-69736000D03*
%TO.P,C9,2*%
%TO.N,GND*%
X109093000Y-68186000D03*
%TD*%
D18*
%TO.P,C28,1*%
%TO.N,V_SUPPLY*%
X162407600Y-66192400D03*
%TO.P,C28,2*%
%TO.N,GND*%
X160857600Y-66192400D03*
%TD*%
D19*
%TO.P,C17,1*%
%TO.N,+3.3V*%
X126352000Y-63119000D03*
%TO.P,C17,2*%
%TO.N,GND*%
X127902000Y-63119000D03*
%TD*%
D20*
%TO.P,R25,1*%
%TO.N,/Motor Driver B (DRV8301)/H3_LOW*%
X152972000Y-94488000D03*
%TO.P,R25,2*%
%TO.N,Net-(C64-Pad1)*%
X154622000Y-94488000D03*
%TD*%
D18*
%TO.P,C54,1*%
%TO.N,GND*%
X140856000Y-80772000D03*
%TO.P,C54,2*%
%TO.N,Net-(C54-Pad2)*%
X139306000Y-80772000D03*
%TD*%
D21*
%TO.P,C41,1*%
%TO.N,Net-(C41-Pad1)*%
X153797000Y-74142000D03*
%TO.P,C41,2*%
%TO.N,Net-(C41-Pad2)*%
X153797000Y-75692000D03*
%TD*%
D22*
%TO.P,D2,1,K*%
%TO.N,Net-(C57-Pad2)*%
X148336000Y-82041000D03*
%TO.P,D2,2,A*%
%TO.N,GND*%
X148336000Y-78741000D03*
%TD*%
D17*
%TO.P,C2,1*%
%TO.N,+3.3V*%
X110998000Y-69736000D03*
%TO.P,C2,2*%
%TO.N,GND*%
X110998000Y-68186000D03*
%TD*%
%TO.P,C66,1*%
%TO.N,GND*%
X137541000Y-101105000D03*
%TO.P,C66,2*%
%TO.N,/Motor Driver B (DRV8301)/DVDD*%
X137541000Y-99555000D03*
%TD*%
D23*
%TO.P,Y1,1,1*%
%TO.N,/MCU (STM32F407ZGT6)/HSE_IN*%
X106342000Y-72542400D03*
%TO.P,Y1,2,2*%
%TO.N,GND*%
X106342000Y-75082400D03*
%TO.P,Y1,3,3*%
%TO.N,/MCU (STM32F407ZGT6)/HSE_OUT*%
X108542000Y-75082400D03*
%TO.P,Y1,4,4*%
%TO.N,GND*%
X108542000Y-72542400D03*
%TD*%
D21*
%TO.P,C23,1*%
%TO.N,/MCU (STM32F407ZGT6)/HSE_IN*%
X110947200Y-72885000D03*
%TO.P,C23,2*%
%TO.N,GND*%
X110947200Y-74435000D03*
%TD*%
D24*
%TO.P,Q4,3,S*%
%TO.N,/Motor Driver A (DRV8301)/H1_LOW*%
X180340000Y-51562000D03*
%TO.P,Q4,2,D*%
%TO.N,/Motor Driver A (DRV8301)/H1_VS*%
X177800000Y-51562000D03*
D25*
%TO.P,Q4,1,G*%
%TO.N,Net-(Q4-Pad1)*%
X175260000Y-51562000D03*
%TD*%
D26*
%TO.P,R14,1*%
%TO.N,GND*%
X157289000Y-74422000D03*
%TO.P,R14,2*%
%TO.N,Net-(C41-Pad2)*%
X155639000Y-74422000D03*
%TD*%
D11*
%TO.P,J4,1,Pin_1*%
%TO.N,Net-(J4-Pad1)*%
X105968800Y-86192600D03*
D27*
%TO.P,J4,2,Pin_2*%
%TO.N,+3.3V*%
X105968800Y-83652600D03*
%TO.P,J4,3,Pin_3*%
%TO.N,GND*%
X105968800Y-81112600D03*
%TD*%
D20*
%TO.P,R20,1*%
%TO.N,GND*%
X139256000Y-82423000D03*
%TO.P,R20,2*%
%TO.N,Net-(R20-Pad2)*%
X140906000Y-82423000D03*
%TD*%
D12*
%TO.P,TP4,1,1*%
%TO.N,/Motor Driver B (DRV8301)/H1_VS*%
X186355000Y-81407000D03*
%TD*%
D28*
%TO.P,R36,1*%
%TO.N,Net-(Q3-Pad1)*%
X158138500Y-71303000D03*
%TO.P,R36,2*%
%TO.N,/Motor Driver A (DRV8301)/M_H3*%
X156313500Y-71303000D03*
%TD*%
D18*
%TO.P,C79,1*%
%TO.N,/MCU (STM32F407ZGT6)/SERVO*%
X111405000Y-89281000D03*
%TO.P,C79,2*%
%TO.N,GND*%
X109855000Y-89281000D03*
%TD*%
D17*
%TO.P,C57,1*%
%TO.N,Net-(C57-Pad1)*%
X151003000Y-82436000D03*
%TO.P,C57,2*%
%TO.N,Net-(C57-Pad2)*%
X151003000Y-80886000D03*
%TD*%
D20*
%TO.P,R4,1*%
%TO.N,GND*%
X139002000Y-59436000D03*
%TO.P,R4,2*%
%TO.N,Net-(R4-Pad2)*%
X140652000Y-59436000D03*
%TD*%
D29*
%TO.P,TH2,1*%
%TO.N,+3.3V*%
X140843000Y-76645000D03*
%TO.P,TH2,2*%
%TO.N,/MCU (STM32F407ZGT6)/TEMP_B*%
X140843000Y-78295000D03*
%TD*%
D20*
%TO.P,R32,1*%
%TO.N,GND*%
X146495000Y-99174000D03*
%TO.P,R32,2*%
%TO.N,Net-(C65-Pad2)*%
X148145000Y-99174000D03*
%TD*%
%TO.P,R3,1*%
%TO.N,+3.3V*%
X139002000Y-61087000D03*
%TO.P,R3,2*%
%TO.N,/Motor Driver A (DRV8301)/VSENSE*%
X140652000Y-61087000D03*
%TD*%
D26*
%TO.P,R62,1*%
%TO.N,/MCU (STM32F407ZGT6)/SERVO*%
X111442000Y-85979000D03*
%TO.P,R62,2*%
%TO.N,Net-(J4-Pad1)*%
X109792000Y-85979000D03*
%TD*%
D20*
%TO.P,R1,1*%
%TO.N,/MCU (STM32F407ZGT6)/SW_BOOT0*%
X111341400Y-61366400D03*
%TO.P,R1,2*%
%TO.N,/MCU (STM32F407ZGT6)/BOOT0*%
X112991400Y-61366400D03*
%TD*%
%TO.P,R54,1*%
%TO.N,+5V*%
X128588000Y-49403000D03*
%TO.P,R54,2*%
%TO.N,Net-(J2-Pad1)*%
X130238000Y-49403000D03*
%TD*%
%TO.P,R30,1*%
%TO.N,GND*%
X152909000Y-99568000D03*
%TO.P,R30,2*%
%TO.N,Net-(C64-Pad2)*%
X154559000Y-99568000D03*
%TD*%
D24*
%TO.P,Q5,3,S*%
%TO.N,GND*%
X180340000Y-61468000D03*
%TO.P,Q5,2,D*%
%TO.N,/Motor Driver A (DRV8301)/H2_VS*%
X177800000Y-61468000D03*
D25*
%TO.P,Q5,1,G*%
%TO.N,Net-(Q5-Pad1)*%
X175260000Y-61468000D03*
%TD*%
D19*
%TO.P,C19,1*%
%TO.N,+3.3V*%
X115684000Y-63119000D03*
%TO.P,C19,2*%
%TO.N,GND*%
X117234000Y-63119000D03*
%TD*%
D30*
%TO.P,C58,1*%
%TO.N,+3.3V*%
X154686000Y-79502000D03*
D31*
%TO.P,C58,2*%
%TO.N,GND*%
X154686000Y-81002000D03*
%TD*%
D32*
%TO.P,D1,1,K*%
%TO.N,Net-(C34-Pad2)*%
X149353000Y-58547000D03*
%TO.P,D1,2,A*%
%TO.N,GND*%
X152653000Y-58547000D03*
%TD*%
D24*
%TO.P,Q1,3,S*%
%TO.N,/Motor Driver A (DRV8301)/H1_VS*%
X167259000Y-51562000D03*
%TO.P,Q1,2,D*%
%TO.N,V_SUPPLY*%
X164719000Y-51562000D03*
D25*
%TO.P,Q1,1,G*%
%TO.N,Net-(Q1-Pad1)*%
X162179000Y-51562000D03*
%TD*%
D17*
%TO.P,C56,1*%
%TO.N,GND*%
X150622000Y-100343000D03*
%TO.P,C56,2*%
%TO.N,V_SUPPLY*%
X150622000Y-98793000D03*
%TD*%
D21*
%TO.P,C10,1*%
%TO.N,+3.3V*%
X108966000Y-80759000D03*
%TO.P,C10,2*%
%TO.N,GND*%
X108966000Y-82309000D03*
%TD*%
D18*
%TO.P,C53,1*%
%TO.N,V_SUPPLY*%
X162102800Y-96164400D03*
%TO.P,C53,2*%
%TO.N,GND*%
X160552800Y-96164400D03*
%TD*%
D17*
%TO.P,C7,2*%
%TO.N,GND*%
X122301000Y-57772000D03*
%TO.P,C7,1*%
%TO.N,+3.3V*%
X122301000Y-59322000D03*
%TD*%
D18*
%TO.P,C29,2*%
%TO.N,GND*%
X158940200Y-74574400D03*
%TO.P,C29,1*%
%TO.N,V_SUPPLY*%
X160490200Y-74574400D03*
%TD*%
D21*
%TO.P,C64,1*%
%TO.N,Net-(C64-Pad1)*%
X153035000Y-96367000D03*
%TO.P,C64,2*%
%TO.N,Net-(C64-Pad2)*%
X153035000Y-97917000D03*
%TD*%
D19*
%TO.P,C48,1*%
%TO.N,V_SUPPLY*%
X166344000Y-76352400D03*
%TO.P,C48,2*%
%TO.N,GND*%
X167894000Y-76352400D03*
%TD*%
D32*
%TO.P,D3,1,K*%
%TO.N,/AN_IN*%
X118236000Y-54483000D03*
%TO.P,D3,2,A*%
%TO.N,GND*%
X114936000Y-54483000D03*
%TD*%
D30*
%TO.P,C75,1*%
%TO.N,+3.3V*%
X125388401Y-93726000D03*
D31*
%TO.P,C75,2*%
%TO.N,GND*%
X126888401Y-93726000D03*
%TD*%
D20*
%TO.P,R7,1*%
%TO.N,GND*%
X139002000Y-64262000D03*
%TO.P,R7,2*%
%TO.N,/Motor Driver A (DRV8301)/DTC*%
X140652000Y-64262000D03*
%TD*%
D18*
%TO.P,C52,1*%
%TO.N,V_SUPPLY*%
X162102800Y-94513400D03*
%TO.P,C52,2*%
%TO.N,GND*%
X160552800Y-94513400D03*
%TD*%
D33*
%TO.P,U3,1,RT_CLK*%
%TO.N,Net-(R20-Pad2)*%
X143062000Y-83928000D03*
%TO.P,U3,2,COMP*%
%TO.N,/Motor Driver B (DRV8301)/COMP*%
X143062000Y-84428000D03*
%TO.P,U3,3,VSENSE*%
%TO.N,/Motor Driver B (DRV8301)/VSENSE*%
X143062000Y-84928000D03*
%TO.P,U3,4,PWRGD*%
%TO.N,unconnected-(U3-Pad4)*%
X143062000Y-85428000D03*
%TO.P,U3,5,N_OCTW*%
%TO.N,unconnected-(U3-Pad5)*%
X143062000Y-85928000D03*
%TO.P,U3,6,N_FAULT*%
%TO.N,/Motor Driver B (DRV8301)/NFAULT*%
X143062000Y-86428000D03*
%TO.P,U3,7,DTC*%
%TO.N,/Motor Driver B (DRV8301)/DTC*%
X143062000Y-86928000D03*
%TO.P,U3,8,N_SCS*%
%TO.N,/MCU (STM32F407ZGT6)/CS_B*%
X143062000Y-87428000D03*
%TO.P,U3,9,SDI*%
%TO.N,/MCU (STM32F407ZGT6)/MOSI_B*%
X143062000Y-87928000D03*
%TO.P,U3,10,SDO*%
%TO.N,/MCU (STM32F407ZGT6)/MISO_B*%
X143062000Y-88428000D03*
%TO.P,U3,11,SCLK*%
%TO.N,/MCU (STM32F407ZGT6)/SCK_B*%
X143062000Y-88928000D03*
%TO.P,U3,12,DC_CAL*%
%TO.N,/MCU (STM32F407ZGT6)/DC_CAL_B*%
X143062000Y-89428000D03*
%TO.P,U3,13,GVDD*%
%TO.N,/Motor Driver B (DRV8301)/GVDD*%
X143062000Y-89928000D03*
%TO.P,U3,14,CP1*%
%TO.N,Net-(C62-Pad2)*%
X143062000Y-90428000D03*
%TO.P,U3,15,CP2*%
%TO.N,Net-(C62-Pad1)*%
X143062000Y-90928000D03*
%TO.P,U3,16,EN_GATE*%
%TO.N,/MCU (STM32F407ZGT6)/EN_GATE_B*%
X143062000Y-91428000D03*
%TO.P,U3,17,INH_A*%
%TO.N,/MCU (STM32F407ZGT6)/H1_B*%
X143062000Y-91928000D03*
%TO.P,U3,18,INL_A*%
%TO.N,/MCU (STM32F407ZGT6)/L1_B*%
X143062000Y-92428000D03*
%TO.P,U3,19,INH_B*%
%TO.N,/MCU (STM32F407ZGT6)/H2_B*%
X143062000Y-92928000D03*
%TO.P,U3,20,INL_B*%
%TO.N,/MCU (STM32F407ZGT6)/L2_B*%
X143062000Y-93428000D03*
%TO.P,U3,21,INH_C*%
%TO.N,/MCU (STM32F407ZGT6)/L3_B*%
X143062000Y-93928000D03*
%TO.P,U3,22,INL_C*%
%TO.N,/MCU (STM32F407ZGT6)/H3_B*%
X143062000Y-94428000D03*
%TO.P,U3,23,DVDD*%
%TO.N,/Motor Driver B (DRV8301)/DVDD*%
X143062000Y-94928000D03*
%TO.P,U3,24,REF*%
%TO.N,+3.3V*%
X143062000Y-95428000D03*
%TO.P,U3,25,SO1*%
%TO.N,/MCU (STM32F407ZGT6)/BR_SO1_B*%
X143062000Y-95928000D03*
%TO.P,U3,26,SO2*%
%TO.N,/MCU (STM32F407ZGT6)/BR_SO2_B*%
X143062000Y-96428000D03*
%TO.P,U3,27,AVDD*%
%TO.N,/Motor Driver B (DRV8301)/AVDD*%
X143062000Y-96928000D03*
%TO.P,U3,28,AGND*%
%TO.N,GND*%
X143062000Y-97428000D03*
%TO.P,U3,29,PVDD1*%
%TO.N,V_SUPPLY*%
X150562000Y-97428000D03*
%TO.P,U3,30,SP2*%
%TO.N,Net-(C65-Pad2)*%
X150562000Y-96928000D03*
%TO.P,U3,31,SN2*%
%TO.N,Net-(C65-Pad1)*%
X150562000Y-96428000D03*
%TO.P,U3,32,SP1*%
%TO.N,Net-(C64-Pad2)*%
X150562000Y-95928000D03*
%TO.P,U3,33,SN1*%
%TO.N,Net-(C64-Pad1)*%
X150562000Y-95428000D03*
%TO.P,U3,34,SL_C*%
%TO.N,/Motor Driver B (DRV8301)/H3_LOW*%
X150562000Y-94928000D03*
%TO.P,U3,35,GL_C*%
%TO.N,/Motor Driver B (DRV8301)/M_L3*%
X150562000Y-94428000D03*
%TO.P,U3,36,SH_C*%
%TO.N,/Motor Driver B (DRV8301)/H3_VS*%
X150562000Y-93928000D03*
%TO.P,U3,37,GH_C*%
%TO.N,/Motor Driver B (DRV8301)/M_H3*%
X150562000Y-93428000D03*
%TO.P,U3,38,BST_C*%
%TO.N,Net-(C63-Pad1)*%
X150562000Y-92928000D03*
%TO.P,U3,39,SL_B*%
%TO.N,GND*%
X150562000Y-92428000D03*
%TO.P,U3,40,GL_B*%
%TO.N,/Motor Driver B (DRV8301)/M_L2*%
X150562000Y-91928000D03*
%TO.P,U3,41,SH_B*%
%TO.N,/Motor Driver B (DRV8301)/H2_VS*%
X150562000Y-91428000D03*
%TO.P,U3,42,GH_B*%
%TO.N,/Motor Driver B (DRV8301)/M_H2*%
X150562000Y-90928000D03*
%TO.P,U3,43,BST_B*%
%TO.N,Net-(C61-Pad1)*%
X150562000Y-90428000D03*
%TO.P,U3,44,SL_A*%
%TO.N,/Motor Driver B (DRV8301)/H1_LOW*%
X150562000Y-89928000D03*
%TO.P,U3,45,GL_A*%
%TO.N,/Motor Driver B (DRV8301)/M_L1*%
X150562000Y-89428000D03*
%TO.P,U3,46,SH_A*%
%TO.N,/Motor Driver B (DRV8301)/H1_VS*%
X150562000Y-88928000D03*
%TO.P,U3,47,GH_A*%
%TO.N,/Motor Driver B (DRV8301)/M_H1*%
X150562000Y-88428000D03*
%TO.P,U3,48,BST_A*%
%TO.N,Net-(C59-Pad1)*%
X150562000Y-87928000D03*
%TO.P,U3,49,VDD_SPI*%
%TO.N,+3.3V*%
X150562000Y-87428000D03*
%TO.P,U3,50,PH_1*%
%TO.N,Net-(C57-Pad2)*%
X150562000Y-86928000D03*
%TO.P,U3,51,PH_2*%
X150562000Y-86428000D03*
%TO.P,U3,52,BST_BK*%
%TO.N,Net-(C57-Pad1)*%
X150562000Y-85928000D03*
%TO.P,U3,53,PVDD2_1*%
%TO.N,V_SUPPLY*%
X150562000Y-85428000D03*
%TO.P,U3,54,PVDD2_2*%
X150562000Y-84928000D03*
%TO.P,U3,55,EN_BUCK*%
%TO.N,unconnected-(U3-Pad55)*%
X150562000Y-84428000D03*
%TO.P,U3,56,SS_TR*%
%TO.N,unconnected-(U3-Pad56)*%
X150562000Y-83928000D03*
D34*
%TO.P,U3,57,EP*%
%TO.N,GND*%
X146812000Y-90678000D03*
%TD*%
D28*
%TO.P,R45,1*%
%TO.N,Net-(Q9-Pad1)*%
X158138500Y-101219000D03*
%TO.P,R45,2*%
%TO.N,/Motor Driver B (DRV8301)/M_H3*%
X156313500Y-101219000D03*
%TD*%
D24*
%TO.P,Q8,3,S*%
%TO.N,/Motor Driver B (DRV8301)/H2_VS*%
X167005000Y-91257000D03*
%TO.P,Q8,2,D*%
%TO.N,V_SUPPLY*%
X164465000Y-91257000D03*
D25*
%TO.P,Q8,1,G*%
%TO.N,Net-(Q8-Pad1)*%
X161925000Y-91257000D03*
%TD*%
D18*
%TO.P,C45,1*%
%TO.N,V_SUPPLY*%
X162407600Y-64541400D03*
%TO.P,C45,2*%
%TO.N,GND*%
X160857600Y-64541400D03*
%TD*%
%TO.P,C50,1*%
%TO.N,V_SUPPLY*%
X162001200Y-84759800D03*
%TO.P,C50,2*%
%TO.N,GND*%
X160451200Y-84759800D03*
%TD*%
%TO.P,C5,1*%
%TO.N,+3.3V*%
X115697000Y-89154000D03*
%TO.P,C5,2*%
%TO.N,GND*%
X114147000Y-89154000D03*
%TD*%
D11*
%TO.P,J5,1,Pin_1*%
%TO.N,+3.3V*%
X130038000Y-101981000D03*
D27*
%TO.P,J5,2,Pin_2*%
%TO.N,Net-(J5-Pad2)*%
X127498000Y-101981000D03*
%TO.P,J5,3,Pin_3*%
%TO.N,Net-(J5-Pad3)*%
X124958000Y-101981000D03*
%TO.P,J5,4,Pin_4*%
%TO.N,GND*%
X122418000Y-101981000D03*
%TD*%
D12*
%TO.P,TP6,1,1*%
%TO.N,/Motor Driver B (DRV8301)/H3_VS*%
X186355000Y-101219000D03*
%TD*%
D11*
%TO.P,J1,1,Pin_1*%
%TO.N,/MCU (STM32F407ZGT6)/SWO*%
X111125000Y-49403000D03*
D27*
%TO.P,J1,2,Pin_2*%
%TO.N,NRST*%
X113665000Y-49403000D03*
%TO.P,J1,3,Pin_3*%
%TO.N,SWDIO*%
X116205000Y-49403000D03*
%TO.P,J1,4,Pin_4*%
%TO.N,GND*%
X118745000Y-49403000D03*
%TO.P,J1,5,Pin_5*%
%TO.N,SWCLK*%
X121285000Y-49403000D03*
%TO.P,J1,6,Pin_6*%
%TO.N,+3.3V*%
X123825000Y-49403000D03*
%TD*%
D17*
%TO.P,C1,1*%
%TO.N,+3.3V*%
X125222000Y-59322000D03*
%TO.P,C1,2*%
%TO.N,GND*%
X125222000Y-57772000D03*
%TD*%
D21*
%TO.P,C67,1*%
%TO.N,/Motor Driver B (DRV8301)/AVDD*%
X141097000Y-99568004D03*
%TO.P,C67,2*%
%TO.N,GND*%
X141097000Y-101118004D03*
%TD*%
D30*
%TO.P,C35,1*%
%TO.N,+3.3V*%
X151130000Y-54737000D03*
D31*
%TO.P,C35,2*%
%TO.N,GND*%
X152630000Y-54737000D03*
%TD*%
D28*
%TO.P,R44,1*%
%TO.N,Net-(Q8-Pad1)*%
X158138500Y-91257000D03*
%TO.P,R44,2*%
%TO.N,/Motor Driver B (DRV8301)/M_H2*%
X156313500Y-91257000D03*
%TD*%
D20*
%TO.P,R6,1*%
%TO.N,+3.3V*%
X139002000Y-62738000D03*
%TO.P,R6,2*%
%TO.N,/Motor Driver A (DRV8301)/NFAULT*%
X140652000Y-62738000D03*
%TD*%
D12*
%TO.P,TP2,1,1*%
%TO.N,/Motor Driver A (DRV8301)/H2_VS*%
X186355000Y-61468000D03*
%TD*%
D19*
%TO.P,C49,1*%
%TO.N,V_SUPPLY*%
X166344000Y-74574400D03*
%TO.P,C49,2*%
%TO.N,GND*%
X167894000Y-74574400D03*
%TD*%
D18*
%TO.P,C6,1*%
%TO.N,GND*%
X130162600Y-51054000D03*
%TO.P,C6,2*%
%TO.N,+5V*%
X128612600Y-51054000D03*
%TD*%
D24*
%TO.P,Q11,3,S*%
%TO.N,GND*%
X180213000Y-91242000D03*
%TO.P,Q11,2,D*%
%TO.N,/Motor Driver B (DRV8301)/H2_VS*%
X177673000Y-91242000D03*
D25*
%TO.P,Q11,1,G*%
%TO.N,Net-(Q11-Pad1)*%
X175133000Y-91242000D03*
%TD*%
D33*
%TO.P,U2,1,RT_CLK*%
%TO.N,Net-(R4-Pad2)*%
X143062000Y-61576000D03*
%TO.P,U2,2,COMP*%
%TO.N,/Motor Driver A (DRV8301)/COMP*%
X143062000Y-62076000D03*
%TO.P,U2,3,VSENSE*%
%TO.N,/Motor Driver A (DRV8301)/VSENSE*%
X143062000Y-62576000D03*
%TO.P,U2,4,PWRGD*%
%TO.N,unconnected-(U2-Pad4)*%
X143062000Y-63076000D03*
%TO.P,U2,5,N_OCTW*%
%TO.N,unconnected-(U2-Pad5)*%
X143062000Y-63576000D03*
%TO.P,U2,6,N_FAULT*%
%TO.N,/Motor Driver A (DRV8301)/NFAULT*%
X143062000Y-64076000D03*
%TO.P,U2,7,DTC*%
%TO.N,/Motor Driver A (DRV8301)/DTC*%
X143062000Y-64576000D03*
%TO.P,U2,8,N_SCS*%
%TO.N,/MCU (STM32F407ZGT6)/CS_A*%
X143062000Y-65076000D03*
%TO.P,U2,9,SDI*%
%TO.N,/MCU (STM32F407ZGT6)/MOSI_A*%
X143062000Y-65576000D03*
%TO.P,U2,10,SDO*%
%TO.N,/MCU (STM32F407ZGT6)/MISO_A*%
X143062000Y-66076000D03*
%TO.P,U2,11,SCLK*%
%TO.N,/MCU (STM32F407ZGT6)/SCK_A*%
X143062000Y-66576000D03*
%TO.P,U2,12,DC_CAL*%
%TO.N,/MCU (STM32F407ZGT6)/DC_CAL_A*%
X143062000Y-67076000D03*
%TO.P,U2,13,GVDD*%
%TO.N,/Motor Driver A (DRV8301)/GVDD*%
X143062000Y-67576000D03*
%TO.P,U2,14,CP1*%
%TO.N,Net-(C39-Pad2)*%
X143062000Y-68076000D03*
%TO.P,U2,15,CP2*%
%TO.N,Net-(C39-Pad1)*%
X143062000Y-68576000D03*
%TO.P,U2,16,EN_GATE*%
%TO.N,/MCU (STM32F407ZGT6)/EN_GATE_A*%
X143062000Y-69076000D03*
%TO.P,U2,17,INH_A*%
%TO.N,/MCU (STM32F407ZGT6)/H1_A*%
X143062000Y-69576000D03*
%TO.P,U2,18,INL_A*%
%TO.N,/MCU (STM32F407ZGT6)/L1_A*%
X143062000Y-70076000D03*
%TO.P,U2,19,INH_B*%
%TO.N,/MCU (STM32F407ZGT6)/H2_A*%
X143062000Y-70576000D03*
%TO.P,U2,20,INL_B*%
%TO.N,/MCU (STM32F407ZGT6)/L2_A*%
X143062000Y-71076000D03*
%TO.P,U2,21,INH_C*%
%TO.N,/MCU (STM32F407ZGT6)/H3_A*%
X143062000Y-71576000D03*
%TO.P,U2,22,INL_C*%
%TO.N,/MCU (STM32F407ZGT6)/L3_A*%
X143062000Y-72076000D03*
%TO.P,U2,23,DVDD*%
%TO.N,/Motor Driver A (DRV8301)/DVDD*%
X143062000Y-72576000D03*
%TO.P,U2,24,REF*%
%TO.N,+3.3V*%
X143062000Y-73076000D03*
%TO.P,U2,25,SO1*%
%TO.N,/MCU (STM32F407ZGT6)/BR_SO1_A*%
X143062000Y-73576000D03*
%TO.P,U2,26,SO2*%
%TO.N,/MCU (STM32F407ZGT6)/BR_SO2_A*%
X143062000Y-74076000D03*
%TO.P,U2,27,AVDD*%
%TO.N,/Motor Driver A (DRV8301)/AVDD*%
X143062000Y-74576000D03*
%TO.P,U2,28,AGND*%
%TO.N,GND*%
X143062000Y-75076000D03*
%TO.P,U2,29,PVDD1*%
%TO.N,V_SUPPLY*%
X150562000Y-75076000D03*
%TO.P,U2,30,SP2*%
%TO.N,Net-(C42-Pad2)*%
X150562000Y-74576000D03*
%TO.P,U2,31,SN2*%
%TO.N,Net-(C42-Pad1)*%
X150562000Y-74076000D03*
%TO.P,U2,32,SP1*%
%TO.N,Net-(C41-Pad2)*%
X150562000Y-73576000D03*
%TO.P,U2,33,SN1*%
%TO.N,Net-(C41-Pad1)*%
X150562000Y-73076000D03*
%TO.P,U2,34,SL_C*%
%TO.N,/Motor Driver A (DRV8301)/H3_LOW*%
X150562000Y-72576000D03*
%TO.P,U2,35,GL_C*%
%TO.N,/Motor Driver A (DRV8301)/M_L3*%
X150562000Y-72076000D03*
%TO.P,U2,36,SH_C*%
%TO.N,/Motor Driver A (DRV8301)/H3_VS*%
X150562000Y-71576000D03*
%TO.P,U2,37,GH_C*%
%TO.N,/Motor Driver A (DRV8301)/M_H3*%
X150562000Y-71076000D03*
%TO.P,U2,38,BST_C*%
%TO.N,Net-(C40-Pad1)*%
X150562000Y-70576000D03*
%TO.P,U2,39,SL_B*%
%TO.N,GND*%
X150562000Y-70076000D03*
%TO.P,U2,40,GL_B*%
%TO.N,/Motor Driver A (DRV8301)/M_L2*%
X150562000Y-69576000D03*
%TO.P,U2,41,SH_B*%
%TO.N,/Motor Driver A (DRV8301)/H2_VS*%
X150562000Y-69076000D03*
%TO.P,U2,42,GH_B*%
%TO.N,/Motor Driver A (DRV8301)/M_H2*%
X150562000Y-68576000D03*
%TO.P,U2,43,BST_B*%
%TO.N,Net-(C38-Pad1)*%
X150562000Y-68076000D03*
%TO.P,U2,44,SL_A*%
%TO.N,/Motor Driver A (DRV8301)/H1_LOW*%
X150562000Y-67576000D03*
%TO.P,U2,45,GL_A*%
%TO.N,/Motor Driver A (DRV8301)/M_L1*%
X150562000Y-67076000D03*
%TO.P,U2,46,SH_A*%
%TO.N,/Motor Driver A (DRV8301)/H1_VS*%
X150562000Y-66576000D03*
%TO.P,U2,47,GH_A*%
%TO.N,/Motor Driver A (DRV8301)/M_H1*%
X150562000Y-66076000D03*
%TO.P,U2,48,BST_A*%
%TO.N,Net-(C36-Pad1)*%
X150562000Y-65576000D03*
%TO.P,U2,49,VDD_SPI*%
%TO.N,+3.3V*%
X150562000Y-65076000D03*
%TO.P,U2,50,PH_1*%
%TO.N,Net-(C34-Pad2)*%
X150562000Y-64576000D03*
%TO.P,U2,51,PH_2*%
X150562000Y-64076000D03*
%TO.P,U2,52,BST_BK*%
%TO.N,Net-(C34-Pad1)*%
X150562000Y-63576000D03*
%TO.P,U2,53,PVDD2_1*%
%TO.N,V_SUPPLY*%
X150562000Y-63076000D03*
%TO.P,U2,54,PVDD2_2*%
X150562000Y-62576000D03*
%TO.P,U2,55,EN_BUCK*%
%TO.N,unconnected-(U2-Pad55)*%
X150562000Y-62076000D03*
%TO.P,U2,56,SS_TR*%
%TO.N,unconnected-(U2-Pad56)*%
X150562000Y-61576000D03*
D34*
%TO.P,U2,57,EP*%
%TO.N,GND*%
X146812000Y-68326000D03*
%TD*%
D24*
%TO.P,Q9,3,S*%
%TO.N,/Motor Driver B (DRV8301)/H3_VS*%
X167005000Y-101219000D03*
%TO.P,Q9,2,D*%
%TO.N,V_SUPPLY*%
X164465000Y-101219000D03*
D25*
%TO.P,Q9,1,G*%
%TO.N,Net-(Q9-Pad1)*%
X161925000Y-101219000D03*
%TD*%
D26*
%TO.P,R18,1*%
%TO.N,/Motor Driver B (DRV8301)/COMP*%
X140843000Y-84074000D03*
%TO.P,R18,2*%
%TO.N,Net-(C54-Pad2)*%
X139193000Y-84074000D03*
%TD*%
D19*
%TO.P,C18,1*%
%TO.N,+3.3V*%
X120510000Y-63119000D03*
%TO.P,C18,2*%
%TO.N,GND*%
X122060000Y-63119000D03*
%TD*%
D12*
%TO.P,TP5,1,1*%
%TO.N,/Motor Driver B (DRV8301)/H2_VS*%
X186355000Y-91186000D03*
%TD*%
D24*
%TO.P,Q7,3,S*%
%TO.N,/Motor Driver B (DRV8301)/H1_VS*%
X166878000Y-81407000D03*
%TO.P,Q7,2,D*%
%TO.N,V_SUPPLY*%
X164338000Y-81407000D03*
D25*
%TO.P,Q7,1,G*%
%TO.N,Net-(Q7-Pad1)*%
X161798000Y-81407000D03*
%TD*%
D26*
%TO.P,R57,1*%
%TO.N,/MCU (STM32F407ZGT6)/USB_D+*%
X135699000Y-55372000D03*
%TO.P,R57,2*%
%TO.N,+5V*%
X134049000Y-55372000D03*
%TD*%
D35*
%TO.P,SW1,1,A*%
%TO.N,GND*%
X106249200Y-61970500D03*
D36*
%TO.P,SW1,2,B*%
%TO.N,/MCU (STM32F407ZGT6)/SW_BOOT0*%
X106249200Y-59470500D03*
%TO.P,SW1,3,C*%
%TO.N,+3.3V*%
X106249200Y-56970500D03*
%TO.P,SW1,4*%
%TO.N,N/C*%
X109549200Y-61970500D03*
%TO.P,SW1,5*%
X109549200Y-59470500D03*
%TO.P,SW1,6*%
X109549200Y-56970500D03*
%TD*%
D21*
%TO.P,C4,1*%
%TO.N,+3.3V*%
X110998000Y-80759000D03*
%TO.P,C4,2*%
%TO.N,GND*%
X110998000Y-82309000D03*
%TD*%
D18*
%TO.P,C47,1*%
%TO.N,V_SUPPLY*%
X162356800Y-56540400D03*
%TO.P,C47,2*%
%TO.N,GND*%
X160806800Y-56540400D03*
%TD*%
D20*
%TO.P,R53,1*%
%TO.N,/AN_IN*%
X147104600Y-53492400D03*
%TO.P,R53,2*%
%TO.N,V_SUPPLY*%
X148754600Y-53492400D03*
%TD*%
D26*
%TO.P,R21,1*%
%TO.N,/Motor Driver B (DRV8301)/VSENSE*%
X140880600Y-85725000D03*
%TO.P,R21,2*%
%TO.N,GND*%
X139230600Y-85725000D03*
%TD*%
D21*
%TO.P,C33,1*%
%TO.N,GND*%
X157175200Y-58026000D03*
%TO.P,C33,2*%
%TO.N,V_SUPPLY*%
X157175200Y-59576000D03*
%TD*%
D18*
%TO.P,C30,2*%
%TO.N,GND*%
X158940200Y-76352400D03*
%TO.P,C30,1*%
%TO.N,V_SUPPLY*%
X160490200Y-76352400D03*
%TD*%
D37*
%TO.P,TH1,1*%
%TO.N,+3.3V*%
X179832000Y-76771000D03*
%TO.P,TH1,2*%
%TO.N,/MCU (STM32F407ZGT6)/TEMP_A*%
X179832000Y-75121000D03*
%TD*%
D21*
%TO.P,C24,1*%
%TO.N,/MCU (STM32F407ZGT6)/HSE_OUT*%
X108966000Y-77711000D03*
%TO.P,C24,2*%
%TO.N,GND*%
X108966000Y-79261000D03*
%TD*%
D24*
%TO.P,Q6,3,S*%
%TO.N,/Motor Driver A (DRV8301)/H3_LOW*%
X180340000Y-71303000D03*
%TO.P,Q6,2,D*%
%TO.N,/Motor Driver A (DRV8301)/H3_VS*%
X177800000Y-71303000D03*
D25*
%TO.P,Q6,1,G*%
%TO.N,Net-(Q6-Pad1)*%
X175260000Y-71303000D03*
%TD*%
D38*
%TO.P,PS1,1,GND*%
%TO.N,GND*%
X131967000Y-53111000D03*
%TO.P,PS1,2,VOUT_1*%
%TO.N,unconnected-(PS1-Pad2)*%
X129667000Y-53111000D03*
%TO.P,PS1,3,VIN*%
%TO.N,+5V*%
X127367000Y-53111000D03*
D39*
%TO.P,PS1,4,VOUT_2*%
%TO.N,+3.3V*%
X129667000Y-59411000D03*
%TD*%
D40*
%TO.P,J2,SH8,SHIELD*%
%TO.N,unconnected-(J2-PadSH1)*%
X134218800Y-47910000D03*
%TO.P,J2,SH3,SHIELD*%
X141218800Y-47910000D03*
D41*
%TO.P,J2,SH7,SHIELD*%
X134818800Y-47910000D03*
%TO.P,J2,SH4,SHIELD*%
X140618800Y-47910000D03*
D42*
%TO.P,J2,SH6,SHIELD*%
X136718800Y-47910000D03*
%TO.P,J2,SH5,SHIELD*%
X138718800Y-47910000D03*
D43*
%TO.P,J2,5,5*%
%TO.N,GND*%
X136418800Y-50610000D03*
%TO.P,J2,4,4*%
%TO.N,unconnected-(J2-Pad4)*%
X137068800Y-50610000D03*
%TO.P,J2,3,3*%
%TO.N,/USB_D+*%
X137718800Y-50610000D03*
%TO.P,J2,2,2*%
%TO.N,/USB_D-*%
X138368800Y-50610000D03*
%TO.P,J2,1,1*%
%TO.N,Net-(J2-Pad1)*%
X139018800Y-50610000D03*
D44*
%TO.P,J2,SH2,SHIELD*%
%TO.N,unconnected-(J2-PadSH1)*%
X135218800Y-50610000D03*
%TO.P,J2,SH1,SHIELD*%
X140218800Y-50610000D03*
%TD*%
D24*
%TO.P,Q10,3,S*%
%TO.N,/Motor Driver B (DRV8301)/H1_LOW*%
X180213000Y-81407000D03*
%TO.P,Q10,2,D*%
%TO.N,/Motor Driver B (DRV8301)/H1_VS*%
X177673000Y-81407000D03*
D25*
%TO.P,Q10,1,G*%
%TO.N,Net-(Q10-Pad1)*%
X175133000Y-81407000D03*
%TD*%
D24*
%TO.P,Q2,3,S*%
%TO.N,/Motor Driver A (DRV8301)/H2_VS*%
X167132000Y-61468000D03*
%TO.P,Q2,2,D*%
%TO.N,V_SUPPLY*%
X164592000Y-61468000D03*
D25*
%TO.P,Q2,1,G*%
%TO.N,Net-(Q2-Pad1)*%
X162052000Y-61468000D03*
%TD*%
D24*
%TO.P,Q3,3,S*%
%TO.N,/Motor Driver A (DRV8301)/H3_VS*%
X167005000Y-71303000D03*
%TO.P,Q3,2,D*%
%TO.N,V_SUPPLY*%
X164465000Y-71303000D03*
D25*
%TO.P,Q3,1,G*%
%TO.N,Net-(Q3-Pad1)*%
X161925000Y-71303000D03*
%TD*%
D24*
%TO.P,Q12,3,S*%
%TO.N,/Motor Driver B (DRV8301)/H3_LOW*%
X180213000Y-101219000D03*
%TO.P,Q12,2,D*%
%TO.N,/Motor Driver B (DRV8301)/H3_VS*%
X177673000Y-101219000D03*
D25*
%TO.P,Q12,1,G*%
%TO.N,Net-(Q12-Pad1)*%
X175133000Y-101219000D03*
%TD*%
D45*
%TO.P,U1,1,PE2*%
%TO.N,unconnected-(U1-Pad1)*%
X113289500Y-67450000D03*
%TO.P,U1,2,PE3*%
%TO.N,unconnected-(U1-Pad2)*%
X113289500Y-67950000D03*
%TO.P,U1,3,PE4*%
%TO.N,unconnected-(U1-Pad3)*%
X113289500Y-68450000D03*
%TO.P,U1,4,PE5*%
%TO.N,unconnected-(U1-Pad4)*%
X113289500Y-68950000D03*
%TO.P,U1,5,PE6*%
%TO.N,unconnected-(U1-Pad5)*%
X113289500Y-69450000D03*
%TO.P,U1,6,VBAT*%
%TO.N,+3.3V*%
X113289500Y-69950000D03*
%TO.P,U1,7,PC13*%
%TO.N,unconnected-(U1-Pad7)*%
X113289500Y-70450000D03*
%TO.P,U1,8,PC14*%
%TO.N,unconnected-(U1-Pad8)*%
X113289500Y-70950000D03*
%TO.P,U1,9,PC15*%
%TO.N,unconnected-(U1-Pad9)*%
X113289500Y-71450000D03*
%TO.P,U1,10,PF0*%
%TO.N,unconnected-(U1-Pad10)*%
X113289500Y-71950000D03*
%TO.P,U1,11,PF1*%
%TO.N,unconnected-(U1-Pad11)*%
X113289500Y-72450000D03*
%TO.P,U1,12,PF2*%
%TO.N,unconnected-(U1-Pad12)*%
X113289500Y-72950000D03*
%TO.P,U1,13,PF3*%
%TO.N,unconnected-(U1-Pad13)*%
X113289500Y-73450000D03*
%TO.P,U1,14,PF4*%
%TO.N,/AN_IN*%
X113289500Y-73950000D03*
%TO.P,U1,15,PF5_(ADC)*%
%TO.N,/MCU (STM32F407ZGT6)/SENS1_A*%
X113289500Y-74450000D03*
%TO.P,U1,16,VSS*%
%TO.N,GND*%
X113289500Y-74950000D03*
%TO.P,U1,17,VDD*%
%TO.N,+3.3V*%
X113289500Y-75450000D03*
%TO.P,U1,18,PF6_(ADC)*%
%TO.N,/MCU (STM32F407ZGT6)/SENS2_A*%
X113289500Y-75950000D03*
%TO.P,U1,19,PF7_(ADC)*%
%TO.N,/MCU (STM32F407ZGT6)/SENS3_A*%
X113289500Y-76450000D03*
%TO.P,U1,20,PF8_(ADC)*%
%TO.N,/MCU (STM32F407ZGT6)/BR_SO1_A*%
X113289500Y-76950000D03*
%TO.P,U1,21,PF9_(ADC)*%
%TO.N,/MCU (STM32F407ZGT6)/BR_SO2_A*%
X113289500Y-77450000D03*
%TO.P,U1,22,PF10_(ADC)*%
%TO.N,/MCU (STM32F407ZGT6)/SENS1_B*%
X113289500Y-77950000D03*
%TO.P,U1,23,PH0*%
%TO.N,/MCU (STM32F407ZGT6)/HSE_IN*%
X113289500Y-78450000D03*
%TO.P,U1,24,PH1*%
%TO.N,/MCU (STM32F407ZGT6)/HSE_OUT*%
X113289500Y-78950000D03*
%TO.P,U1,25,NRST*%
%TO.N,NRST*%
X113289500Y-79450000D03*
%TO.P,U1,26,PC0_(ADC)*%
%TO.N,/MCU (STM32F407ZGT6)/SENS2_B*%
X113289500Y-79950000D03*
%TO.P,U1,27,PC1_(ADC)*%
%TO.N,/MCU (STM32F407ZGT6)/SENS3_B*%
X113289500Y-80450000D03*
%TO.P,U1,28,PC2_(ADC)*%
%TO.N,/MCU (STM32F407ZGT6)/BR_SO1_B*%
X113289500Y-80950000D03*
%TO.P,U1,29,PC3_(ADC)*%
%TO.N,/MCU (STM32F407ZGT6)/BR_SO2_B*%
X113289500Y-81450000D03*
%TO.P,U1,30,VDD*%
%TO.N,+3.3V*%
X113289500Y-81950000D03*
%TO.P,U1,31,VSSA*%
%TO.N,GND*%
X113289500Y-82450000D03*
%TO.P,U1,32,VREF+*%
%TO.N,+3.3V*%
X113289500Y-82950000D03*
%TO.P,U1,33,VDDA*%
X113289500Y-83450000D03*
%TO.P,U1,34,PA0*%
%TO.N,/MCU (STM32F407ZGT6)/GPIO1*%
X113289500Y-83950000D03*
%TO.P,U1,35,PA1*%
%TO.N,/MCU (STM32F407ZGT6)/GPIO2*%
X113289500Y-84450000D03*
%TO.P,U1,36,PA2*%
%TO.N,/MCU (STM32F407ZGT6)/SERVO*%
X113289500Y-84950000D03*
D46*
%TO.P,U1,37,PA3*%
%TO.N,/MCU (STM32F407ZGT6)/NRF_CSN*%
X115202000Y-86862500D03*
%TO.P,U1,38,VSS*%
%TO.N,GND*%
X115702000Y-86862500D03*
%TO.P,U1,39,VDD*%
%TO.N,+3.3V*%
X116202000Y-86862500D03*
%TO.P,U1,40,PA4*%
%TO.N,/MCU (STM32F407ZGT6)/NRF_CE*%
X116702000Y-86862500D03*
%TO.P,U1,41,PA5_(SCK)*%
%TO.N,/MCU (STM32F407ZGT6)/NRF_SCK*%
X117202000Y-86862500D03*
%TO.P,U1,42,PA6_(MISO)*%
%TO.N,/MCU (STM32F407ZGT6)/NRF_MISO*%
X117702000Y-86862500D03*
%TO.P,U1,43,PA7_(MOSI)*%
%TO.N,/MCU (STM32F407ZGT6)/NRF_MOSI*%
X118202000Y-86862500D03*
%TO.P,U1,44,PC4_(ADC)*%
%TO.N,/MCU (STM32F407ZGT6)/TEMP_A*%
X118702000Y-86862500D03*
%TO.P,U1,45,PC5_(ADC)*%
%TO.N,/MCU (STM32F407ZGT6)/TEMP_B*%
X119202000Y-86862500D03*
%TO.P,U1,46,PB0*%
%TO.N,/MCU (STM32F407ZGT6)/H3_B*%
X119702000Y-86862500D03*
%TO.P,U1,47,PB1*%
%TO.N,/MCU (STM32F407ZGT6)/L3_B*%
X120202000Y-86862500D03*
%TO.P,U1,48,PB2*%
%TO.N,unconnected-(U1-Pad48)*%
X120702000Y-86862500D03*
%TO.P,U1,49,PF11*%
%TO.N,unconnected-(U1-Pad49)*%
X121202000Y-86862500D03*
%TO.P,U1,50,PF12*%
%TO.N,unconnected-(U1-Pad50)*%
X121702000Y-86862500D03*
%TO.P,U1,51,VSS*%
%TO.N,GND*%
X122202000Y-86862500D03*
%TO.P,U1,52,VDD*%
%TO.N,+3.3V*%
X122702000Y-86862500D03*
%TO.P,U1,53,PF13*%
%TO.N,unconnected-(U1-Pad53)*%
X123202000Y-86862500D03*
%TO.P,U1,54,PF14*%
%TO.N,unconnected-(U1-Pad54)*%
X123702000Y-86862500D03*
%TO.P,U1,55,PF15*%
%TO.N,unconnected-(U1-Pad55)*%
X124202000Y-86862500D03*
%TO.P,U1,56,PG0*%
%TO.N,unconnected-(U1-Pad56)*%
X124702000Y-86862500D03*
%TO.P,U1,57,PG1*%
%TO.N,unconnected-(U1-Pad57)*%
X125202000Y-86862500D03*
%TO.P,U1,58,PE7*%
%TO.N,unconnected-(U1-Pad58)*%
X125702000Y-86862500D03*
%TO.P,U1,59,PE8*%
%TO.N,unconnected-(U1-Pad59)*%
X126202000Y-86862500D03*
%TO.P,U1,60,PE9*%
%TO.N,/MCU (STM32F407ZGT6)/L2_B*%
X126702000Y-86862500D03*
%TO.P,U1,61,VSS*%
%TO.N,GND*%
X127202000Y-86862500D03*
%TO.P,U1,62,VDD*%
%TO.N,+3.3V*%
X127702000Y-86862500D03*
%TO.P,U1,63,PE10*%
%TO.N,unconnected-(U1-Pad63)*%
X128202000Y-86862500D03*
%TO.P,U1,64,PE11*%
%TO.N,/MCU (STM32F407ZGT6)/H2_B*%
X128702000Y-86862500D03*
%TO.P,U1,65,PE12*%
%TO.N,unconnected-(U1-Pad65)*%
X129202000Y-86862500D03*
%TO.P,U1,66,PE13*%
%TO.N,/MCU (STM32F407ZGT6)/L1_B*%
X129702000Y-86862500D03*
%TO.P,U1,67,PE14*%
%TO.N,/MCU (STM32F407ZGT6)/H1_B*%
X130202000Y-86862500D03*
%TO.P,U1,68,PE15*%
%TO.N,unconnected-(U1-Pad68)*%
X130702000Y-86862500D03*
%TO.P,U1,69,PB10_(SCK)*%
%TO.N,/MCU (STM32F407ZGT6)/SCK_B*%
X131202000Y-86862500D03*
%TO.P,U1,70,PB11*%
%TO.N,unconnected-(U1-Pad70)*%
X131702000Y-86862500D03*
%TO.P,U1,71,VCAP_1*%
%TO.N,Net-(C21-Pad1)*%
X132202000Y-86862500D03*
%TO.P,U1,72,VDD*%
%TO.N,+3.3V*%
X132702000Y-86862500D03*
D45*
%TO.P,U1,73,PB12*%
%TO.N,/MCU (STM32F407ZGT6)/EN_GATE_B*%
X134614500Y-84950000D03*
%TO.P,U1,74,PB13*%
%TO.N,/MCU (STM32F407ZGT6)/DC_CAL_B*%
X134614500Y-84450000D03*
%TO.P,U1,75,PB14_(MISO)*%
%TO.N,/MCU (STM32F407ZGT6)/MISO_B*%
X134614500Y-83950000D03*
%TO.P,U1,76,PB15_(MOSI)*%
%TO.N,/MCU (STM32F407ZGT6)/MOSI_B*%
X134614500Y-83450000D03*
%TO.P,U1,77,PD8*%
%TO.N,/MCU (STM32F407ZGT6)/CS_B*%
X134614500Y-82950000D03*
%TO.P,U1,78,PD9*%
%TO.N,unconnected-(U1-Pad78)*%
X134614500Y-82450000D03*
%TO.P,U1,79,PD10*%
%TO.N,unconnected-(U1-Pad79)*%
X134614500Y-81950000D03*
%TO.P,U1,80,PD11*%
%TO.N,unconnected-(U1-Pad80)*%
X134614500Y-81450000D03*
%TO.P,U1,81,PD12*%
%TO.N,/MCU (STM32F407ZGT6)/L3_A*%
X134614500Y-80950000D03*
%TO.P,U1,82,PD13*%
%TO.N,/MCU (STM32F407ZGT6)/H3_A*%
X134614500Y-80450000D03*
%TO.P,U1,83,VSS*%
%TO.N,GND*%
X134614500Y-79950000D03*
%TO.P,U1,84,VDD*%
%TO.N,+3.3V*%
X134614500Y-79450000D03*
%TO.P,U1,85,PD14*%
%TO.N,/MCU (STM32F407ZGT6)/L2_A*%
X134614500Y-78950000D03*
%TO.P,U1,86,PD15*%
%TO.N,/MCU (STM32F407ZGT6)/H2_A*%
X134614500Y-78450000D03*
%TO.P,U1,87,PG2*%
%TO.N,unconnected-(U1-Pad87)*%
X134614500Y-77950000D03*
%TO.P,U1,88,PG3*%
%TO.N,unconnected-(U1-Pad88)*%
X134614500Y-77450000D03*
%TO.P,U1,89,PG4*%
%TO.N,+3.3V*%
X134614500Y-76950000D03*
%TO.P,U1,90,PG5*%
%TO.N,unconnected-(U1-Pad90)*%
X134614500Y-76450000D03*
%TO.P,U1,91,PG6*%
%TO.N,unconnected-(U1-Pad91)*%
X134614500Y-75950000D03*
%TO.P,U1,92,PG7*%
%TO.N,+3.3V*%
X134614500Y-75450000D03*
%TO.P,U1,93,PG8*%
%TO.N,unconnected-(U1-Pad93)*%
X134614500Y-74950000D03*
%TO.P,U1,94,VSS*%
%TO.N,GND*%
X134614500Y-74450000D03*
%TO.P,U1,95,VDD*%
%TO.N,+3.3V*%
X134614500Y-73950000D03*
%TO.P,U1,96,PC6*%
%TO.N,/MCU (STM32F407ZGT6)/L1_A*%
X134614500Y-73450000D03*
%TO.P,U1,97,PC7*%
%TO.N,/MCU (STM32F407ZGT6)/H1_A*%
X134614500Y-72950000D03*
%TO.P,U1,98,PC8*%
%TO.N,/MCU (STM32F407ZGT6)/EN_GATE_A*%
X134614500Y-72450000D03*
%TO.P,U1,99,PC9*%
%TO.N,/MCU (STM32F407ZGT6)/DC_CAL_A*%
X134614500Y-71950000D03*
%TO.P,U1,100,PA8*%
%TO.N,unconnected-(U1-Pad100)*%
X134614500Y-71450000D03*
%TO.P,U1,101,PA9*%
%TO.N,unconnected-(U1-Pad101)*%
X134614500Y-70950000D03*
%TO.P,U1,102,PA10*%
%TO.N,unconnected-(U1-Pad102)*%
X134614500Y-70450000D03*
%TO.P,U1,103,PA11*%
%TO.N,/MCU (STM32F407ZGT6)/USB_D-*%
X134614500Y-69950000D03*
%TO.P,U1,104,PA12*%
%TO.N,/MCU (STM32F407ZGT6)/USB_D+*%
X134614500Y-69450000D03*
%TO.P,U1,105,PA13*%
%TO.N,SWDIO*%
X134614500Y-68950000D03*
%TO.P,U1,106,VCAP_2*%
%TO.N,Net-(C21-Pad1)*%
X134614500Y-68450000D03*
%TO.P,U1,107,VSS*%
%TO.N,GND*%
X134614500Y-67950000D03*
%TO.P,U1,108,VDD*%
%TO.N,+3.3V*%
X134614500Y-67450000D03*
D46*
%TO.P,U1,109,PA14*%
%TO.N,SWCLK*%
X132702000Y-65537500D03*
%TO.P,U1,110,PA15*%
%TO.N,/MCU (STM32F407ZGT6)/CS_A*%
X132202000Y-65537500D03*
%TO.P,U1,111,PC10_(SCK)*%
%TO.N,/MCU (STM32F407ZGT6)/SCK_A*%
X131702000Y-65537500D03*
%TO.P,U1,112,PC11_(MISO)*%
%TO.N,/MCU (STM32F407ZGT6)/MISO_A*%
X131202000Y-65537500D03*
%TO.P,U1,113,PC12_(MOSI)*%
%TO.N,/MCU (STM32F407ZGT6)/MOSI_A*%
X130702000Y-65537500D03*
%TO.P,U1,114,PD0*%
%TO.N,/MCU (STM32F407ZGT6)/CAN_RX*%
X130202000Y-65537500D03*
%TO.P,U1,115,PD1*%
%TO.N,/MCU (STM32F407ZGT6)/CAN_TX*%
X129702000Y-65537500D03*
%TO.P,U1,116,PD2*%
%TO.N,unconnected-(U1-Pad116)*%
X129202000Y-65537500D03*
%TO.P,U1,117,PD3*%
%TO.N,unconnected-(U1-Pad117)*%
X128702000Y-65537500D03*
%TO.P,U1,118,PD4*%
%TO.N,unconnected-(U1-Pad118)*%
X128202000Y-65537500D03*
%TO.P,U1,119,PD5*%
%TO.N,unconnected-(U1-Pad119)*%
X127702000Y-65537500D03*
%TO.P,U1,120,VSS*%
%TO.N,GND*%
X127202000Y-65537500D03*
%TO.P,U1,121,VDD*%
%TO.N,+3.3V*%
X126702000Y-65537500D03*
%TO.P,U1,122,PD6*%
%TO.N,unconnected-(U1-Pad122)*%
X126202000Y-65537500D03*
%TO.P,U1,123,PD7*%
%TO.N,unconnected-(U1-Pad123)*%
X125702000Y-65537500D03*
%TO.P,U1,124,PG9*%
%TO.N,unconnected-(U1-Pad124)*%
X125202000Y-65537500D03*
%TO.P,U1,125,PG10*%
%TO.N,unconnected-(U1-Pad125)*%
X124702000Y-65537500D03*
%TO.P,U1,126,PG11*%
%TO.N,unconnected-(U1-Pad126)*%
X124202000Y-65537500D03*
%TO.P,U1,127,PG12*%
%TO.N,unconnected-(U1-Pad127)*%
X123702000Y-65537500D03*
%TO.P,U1,128,PG13*%
%TO.N,unconnected-(U1-Pad128)*%
X123202000Y-65537500D03*
%TO.P,U1,129,PG14*%
%TO.N,unconnected-(U1-Pad129)*%
X122702000Y-65537500D03*
%TO.P,U1,130,VSS*%
%TO.N,GND*%
X122202000Y-65537500D03*
%TO.P,U1,131,VDD*%
%TO.N,+3.3V*%
X121702000Y-65537500D03*
%TO.P,U1,132,PG15*%
%TO.N,unconnected-(U1-Pad132)*%
X121202000Y-65537500D03*
%TO.P,U1,133,PB3*%
%TO.N,/MCU (STM32F407ZGT6)/SWO*%
X120702000Y-65537500D03*
%TO.P,U1,134,PB4*%
%TO.N,unconnected-(U1-Pad134)*%
X120202000Y-65537500D03*
%TO.P,U1,135,PB5*%
%TO.N,unconnected-(U1-Pad135)*%
X119702000Y-65537500D03*
%TO.P,U1,136,PB6*%
%TO.N,unconnected-(U1-Pad136)*%
X119202000Y-65537500D03*
%TO.P,U1,137,PB7*%
%TO.N,/MCU (STM32F407ZGT6)/LED*%
X118702000Y-65537500D03*
%TO.P,U1,138,BOOT0*%
%TO.N,/MCU (STM32F407ZGT6)/BOOT0*%
X118202000Y-65537500D03*
%TO.P,U1,139,PB8*%
%TO.N,unconnected-(U1-Pad139)*%
X117702000Y-65537500D03*
%TO.P,U1,140,PB9*%
%TO.N,unconnected-(U1-Pad140)*%
X117202000Y-65537500D03*
%TO.P,U1,141,PE0*%
%TO.N,unconnected-(U1-Pad141)*%
X116702000Y-65537500D03*
%TO.P,U1,142,PE1*%
%TO.N,unconnected-(U1-Pad142)*%
X116202000Y-65537500D03*
%TO.P,U1,143,PDR_ON*%
%TO.N,+3.3V*%
X115702000Y-65537500D03*
%TO.P,U1,144,VDD*%
X115202000Y-65537500D03*
%TD*%
D18*
%TO.P,C51,1*%
%TO.N,V_SUPPLY*%
X162001200Y-86410800D03*
%TO.P,C51,2*%
%TO.N,GND*%
X160451200Y-86410800D03*
%TD*%
D47*
%TO.P,L1,1,1*%
%TO.N,Net-(C34-Pad2)*%
X146896000Y-57912000D03*
%TO.P,L1,2,2*%
%TO.N,+3.3V*%
X144696000Y-57912000D03*
%TD*%
%TO.P,L2,1,1*%
%TO.N,Net-(C57-Pad2)*%
X146134000Y-80391000D03*
%TO.P,L2,2,2*%
%TO.N,+3.3V*%
X143934000Y-80391000D03*
%TD*%
D18*
%TO.P,C46,1*%
%TO.N,V_SUPPLY*%
X162356800Y-54889400D03*
%TO.P,C46,2*%
%TO.N,GND*%
X160806800Y-54889400D03*
%TD*%
D20*
%TO.P,R52,1*%
%TO.N,GND*%
X143040600Y-53492400D03*
%TO.P,R52,2*%
%TO.N,/AN_IN*%
X144690600Y-53492400D03*
%TD*%
D48*
%TO.N,GND*%
X149656800Y-50292000D03*
X145389600Y-50292000D03*
X143967200Y-50292000D03*
X146812000Y-50292000D03*
X148234400Y-50292000D03*
X149656800Y-49123600D03*
X145389600Y-49123600D03*
X143967200Y-49123600D03*
X146812000Y-49123600D03*
X148234400Y-49123600D03*
X149656800Y-46786800D03*
X149656800Y-47955200D03*
X143967200Y-46786800D03*
X143967200Y-47955200D03*
X145389600Y-47955200D03*
X145389600Y-46786800D03*
X146812000Y-47955200D03*
X146812000Y-46786800D03*
X148234400Y-47955200D03*
X148234400Y-46786800D03*
%TO.N,V_SUPPLY*%
X158140400Y-46634400D03*
X158140400Y-47802800D03*
X156718000Y-46634400D03*
X156718000Y-47802800D03*
X155295600Y-46634400D03*
X155295600Y-47802800D03*
X153873200Y-47802800D03*
X153873200Y-46634400D03*
%TO.N,/AN_IN*%
X144526000Y-51663600D03*
%TO.N,GND*%
X120751600Y-57556400D03*
X158953200Y-87579200D03*
%TO.N,+3.3V*%
X170942000Y-76454000D03*
%TO.N,GND*%
X161391600Y-63652400D03*
X121361200Y-56591200D03*
%TO.N,/MCU (STM32F407ZGT6)/SCK_B*%
X135280400Y-88900000D03*
%TO.N,GND*%
X137718800Y-83820000D03*
%TO.N,/MCU (STM32F407ZGT6)/BR_SO2_B*%
X140762854Y-96846410D03*
%TO.N,Net-(C21-Pad1)*%
X128879600Y-70561200D03*
%TO.N,/Motor Driver A (DRV8301)/H2_VS*%
X159956500Y-63690500D03*
%TO.N,Net-(C39-Pad1)*%
X139446000Y-68834000D03*
%TO.N,V_SUPPLY*%
X149479000Y-98298000D03*
%TO.N,/MCU (STM32F407ZGT6)/TEMP_B*%
X123659900Y-83731100D03*
%TO.N,/Motor Driver B (DRV8301)/DTC*%
X141630400Y-86817200D03*
%TO.N,/Motor Driver B (DRV8301)/NFAULT*%
X141732000Y-86004400D03*
%TO.N,+3.3V*%
X111810800Y-75590400D03*
%TO.N,GND*%
X109778800Y-72694800D03*
X157358864Y-79177664D03*
%TO.N,Net-(C62-Pad2)*%
X136550400Y-90830400D03*
%TO.N,GND*%
X110439200Y-75946000D03*
%TO.N,/MCU (STM32F407ZGT6)/TEMP_A*%
X128879600Y-73914000D03*
%TO.N,Net-(C21-Pad1)*%
X125272800Y-81788000D03*
%TO.N,/MCU (STM32F407ZGT6)/BR_SO2_B*%
X125628400Y-80924400D03*
%TO.N,Net-(C21-Pad1)*%
X132183147Y-88690990D03*
%TO.N,Net-(C62-Pad1)*%
X141732000Y-98425000D03*
%TO.N,/MCU (STM32F407ZGT6)/DC_CAL_B*%
X136271000Y-89789000D03*
%TO.N,Net-(C41-Pad1)*%
X153479500Y-73215500D03*
%TO.N,/Motor Driver A (DRV8301)/H3_LOW*%
X154940000Y-73279000D03*
%TO.N,+3.3V*%
X115443000Y-69977000D03*
X115951000Y-67183000D03*
%TO.N,GND*%
X155448000Y-54483000D03*
X114554000Y-75311000D03*
X145923000Y-73406000D03*
X147701000Y-73406000D03*
%TO.N,V_SUPPLY*%
X163379461Y-77793539D03*
%TO.N,GND*%
X154178000Y-100838000D03*
%TO.N,/MCU (STM32F407ZGT6)/TEMP_B*%
X129234907Y-79247558D03*
%TO.N,/MCU (STM32F407ZGT6)/BR_SO1_B*%
X120904000Y-80772000D03*
X139319000Y-96520000D03*
%TO.N,+3.3V*%
X138557000Y-95885000D03*
%TO.N,GND*%
X145415000Y-90678000D03*
%TO.N,/Motor Driver B (DRV8301)/GVDD*%
X144399000Y-88646000D03*
%TO.N,GND*%
X146050000Y-63881000D03*
X139192004Y-101118004D03*
X157607000Y-99822000D03*
X146431000Y-86106000D03*
X153797000Y-53086000D03*
X146177000Y-68326000D03*
X133350000Y-80391000D03*
X113792000Y-90551000D03*
X115112800Y-52476400D03*
X149225000Y-100711000D03*
X145034000Y-69646800D03*
X107492800Y-78689200D03*
X115925600Y-70916800D03*
X146431000Y-90678000D03*
X125222000Y-56261000D03*
X129540000Y-63881000D03*
X132029200Y-67716400D03*
X141782800Y-79603600D03*
X146431000Y-89535000D03*
X137668000Y-63627000D03*
X146431000Y-87249000D03*
X107746800Y-82397600D03*
X147066000Y-65024000D03*
X134429500Y-54419500D03*
X136906000Y-54483000D03*
X145415000Y-88392000D03*
X138303000Y-58801000D03*
X122174000Y-88138000D03*
X162306000Y-53594000D03*
X145415000Y-84963000D03*
X142430500Y-76009500D03*
X174498000Y-75488800D03*
X145034000Y-66040000D03*
X126619000Y-85471000D03*
X123571000Y-63246000D03*
X146050000Y-65024000D03*
X145034000Y-67183000D03*
X146050000Y-66040000D03*
X145034000Y-63881000D03*
X145415000Y-86106000D03*
X146558000Y-100711000D03*
X138303000Y-58801000D03*
X133299200Y-74930000D03*
X117221000Y-64135000D03*
X121107200Y-73101200D03*
X108712000Y-90424000D03*
X147066000Y-63881000D03*
X145034000Y-65024000D03*
X143002000Y-98298000D03*
X111658400Y-66192400D03*
X146050000Y-67183000D03*
X145034000Y-68326000D03*
X146405600Y-93675200D03*
X146807678Y-77899390D03*
X145415000Y-87249000D03*
X145288000Y-93675200D03*
X145415000Y-89535000D03*
X161417000Y-53594000D03*
X146431000Y-88392000D03*
X141960600Y-53492400D03*
%TO.N,NRST*%
X114681000Y-79121000D03*
%TO.N,Net-(C21-Pad1)*%
X131191000Y-68453000D03*
%TO.N,+3.3V*%
X125131000Y-88864000D03*
X130810000Y-73533000D03*
X139446000Y-78740000D03*
X114300000Y-61722000D03*
X133350000Y-79121000D03*
X123598000Y-69950000D03*
X139446000Y-77724000D03*
X130810000Y-70104000D03*
X155956000Y-76454000D03*
X133223000Y-73914000D03*
X142875000Y-81661000D03*
X152146000Y-63881000D03*
X130873500Y-79184500D03*
X111887000Y-79629000D03*
X130048000Y-90043000D03*
%TO.N,/Motor Driver A (DRV8301)/COMP*%
X141815026Y-61765974D03*
%TO.N,/Motor Driver A (DRV8301)/GVDD*%
X144272000Y-67437000D03*
%TO.N,/Motor Driver A (DRV8301)/DVDD*%
X141605000Y-72771000D03*
%TO.N,Net-(C34-Pad2)*%
X148222500Y-62851500D03*
%TO.N,Net-(C38-Pad1)*%
X149479000Y-68072000D03*
%TO.N,/Motor Driver A (DRV8301)/AVDD*%
X141732000Y-74930000D03*
%TO.N,V_SUPPLY*%
X149479000Y-76073000D03*
%TO.N,Net-(C39-Pad2)*%
X139827000Y-67945000D03*
%TO.N,Net-(C34-Pad1)*%
X149098000Y-62865000D03*
%TO.N,/Motor Driver A (DRV8301)/H1_VS*%
X153162000Y-65151000D03*
X149352000Y-66421000D03*
X166674800Y-57658000D03*
%TO.N,/Motor Driver A (DRV8301)/H2_VS*%
X149491000Y-69076000D03*
%TO.N,Net-(C36-Pad1)*%
X149288500Y-65214500D03*
%TO.N,/Motor Driver A (DRV8301)/H3_VS*%
X159285512Y-72870488D03*
X149427000Y-71576000D03*
%TO.N,Net-(C40-Pad1)*%
X149352000Y-70739000D03*
%TO.N,Net-(C42-Pad1)*%
X152196800Y-74168000D03*
%TO.N,Net-(C42-Pad2)*%
X152298400Y-75742800D03*
%TO.N,/Motor Driver B (DRV8301)/COMP*%
X140081000Y-83185000D03*
%TO.N,Net-(C59-Pad1)*%
X149365790Y-88053768D03*
%TO.N,Net-(C63-Pad1)*%
X149352000Y-93091000D03*
%TO.N,/Motor Driver B (DRV8301)/H1_VS*%
X153035000Y-86360000D03*
X149352000Y-88900000D03*
%TO.N,Net-(C61-Pad1)*%
X149225000Y-90170000D03*
X149225000Y-90170000D03*
%TO.N,/Motor Driver B (DRV8301)/H2_VS*%
X158877000Y-93345000D03*
X149352000Y-91440000D03*
%TO.N,/Motor Driver B (DRV8301)/H3_VS*%
X149404000Y-93928000D03*
%TO.N,Net-(C65-Pad1)*%
X149225000Y-95758000D03*
%TO.N,Net-(C65-Pad2)*%
X151892000Y-98044000D03*
%TO.N,/MCU (STM32F407ZGT6)/TEMP_A*%
X143764000Y-77089000D03*
X118999000Y-80010000D03*
X118643800Y-85674200D03*
X173228000Y-76073000D03*
X154686000Y-77089000D03*
%TO.N,/MCU (STM32F407ZGT6)/TEMP_B*%
X119659800Y-85547200D03*
X136017000Y-81534000D03*
%TO.N,Net-(D5-Pad2)*%
X111633000Y-77851000D03*
%TO.N,Net-(D6-Pad2)*%
X119126000Y-58420000D03*
%TO.N,/USB_D-*%
X138445000Y-53833000D03*
%TO.N,/USB_D+*%
X137668000Y-54152800D03*
%TO.N,SWDIO*%
X123647200Y-67360800D03*
X119126000Y-62865000D03*
%TO.N,SWCLK*%
X122809000Y-54991000D03*
X133463709Y-66180291D03*
%TO.N,/Motor Driver A (DRV8301)/H1_LOW*%
X152781000Y-67437000D03*
X152781000Y-67437000D03*
%TO.N,/Motor Driver B (DRV8301)/H1_LOW*%
X154432000Y-89916000D03*
%TO.N,/Motor Driver B (DRV8301)/H3_LOW*%
X152082500Y-94805500D03*
%TO.N,/AN_IN*%
X120142000Y-54356000D03*
X114604800Y-72948800D03*
%TO.N,/MCU (STM32F407ZGT6)/USB_D-*%
X137414000Y-68580000D03*
%TO.N,/MCU (STM32F407ZGT6)/USB_D+*%
X136398000Y-68580000D03*
X136906000Y-55626000D03*
%TO.N,/MCU (STM32F407ZGT6)/LED*%
X118745000Y-64135000D03*
%TO.N,/MCU (STM32F407ZGT6)/GPIO1*%
X114808000Y-83693000D03*
%TO.N,/MCU (STM32F407ZGT6)/GPIO2*%
X114808000Y-84836000D03*
%TO.N,/Motor Driver A (DRV8301)/VSENSE*%
X144653000Y-62103000D03*
%TO.N,/MCU (STM32F407ZGT6)/SENS1_A*%
X114554000Y-74422000D03*
%TO.N,/MCU (STM32F407ZGT6)/SENS2_A*%
X116713000Y-75184000D03*
%TO.N,/MCU (STM32F407ZGT6)/SENS3_A*%
X118364000Y-75184000D03*
%TO.N,/Motor Driver A (DRV8301)/M_H1*%
X153162000Y-62357000D03*
%TO.N,/Motor Driver A (DRV8301)/M_L1*%
X153762000Y-63662000D03*
%TO.N,/Motor Driver A (DRV8301)/M_H2*%
X155020000Y-62738000D03*
%TO.N,/Motor Driver A (DRV8301)/M_L2*%
X153517600Y-69697600D03*
%TO.N,/Motor Driver A (DRV8301)/M_L3*%
X154837723Y-72289077D03*
%TO.N,/Motor Driver B (DRV8301)/VSENSE*%
X144272000Y-84963000D03*
%TO.N,/MCU (STM32F407ZGT6)/SENS1_B*%
X123317000Y-76581000D03*
%TO.N,/MCU (STM32F407ZGT6)/SENS2_B*%
X121793000Y-78105000D03*
%TO.N,/MCU (STM32F407ZGT6)/SENS3_B*%
X118237000Y-79502000D03*
%TO.N,/Motor Driver B (DRV8301)/M_H1*%
X152019000Y-86106000D03*
%TO.N,/Motor Driver B (DRV8301)/M_L1*%
X155448000Y-86995000D03*
%TO.N,/Motor Driver B (DRV8301)/M_L2*%
X152440066Y-92335766D03*
%TO.N,/Motor Driver B (DRV8301)/M_L3*%
X155702000Y-94234000D03*
%TO.N,/MCU (STM32F407ZGT6)/BR_SO1_A*%
X128219200Y-74422000D03*
X137668000Y-76581000D03*
%TO.N,/MCU (STM32F407ZGT6)/BR_SO2_A*%
X138430000Y-76962000D03*
X128066800Y-75692000D03*
%TO.N,/MCU (STM32F407ZGT6)/SCK_B*%
X131445000Y-85471000D03*
%TO.N,/MCU (STM32F407ZGT6)/DC_CAL_B*%
X130429000Y-84201000D03*
%TO.N,/MCU (STM32F407ZGT6)/CS_A*%
X137668000Y-64897000D03*
X137414000Y-67183000D03*
%TD*%
D49*
%TO.N,/AN_IN*%
X144690600Y-53492400D02*
X144690600Y-51828200D01*
X144690600Y-51828200D02*
X144526000Y-51663600D01*
D50*
%TO.N,V_SUPPLY*%
X148754600Y-53429400D02*
X148754600Y-53492400D01*
X150469600Y-51714400D02*
X148754600Y-53429400D01*
X154069800Y-51771800D02*
X154012400Y-51714400D01*
X154012400Y-51714400D02*
X150469600Y-51714400D01*
X154646000Y-52348000D02*
X154069800Y-51771800D01*
X160490200Y-74574400D02*
X160490200Y-76352400D01*
X165201600Y-77494800D02*
X166344000Y-76352400D01*
X165201600Y-77571600D02*
X165201600Y-77494800D01*
X160490200Y-76352400D02*
X166344000Y-76352400D01*
X166344000Y-74574400D02*
X160490200Y-74574400D01*
D51*
%TO.N,Net-(J2-Pad1)*%
X139018800Y-49509200D02*
X139018800Y-50610000D01*
X138938000Y-49428400D02*
X139018800Y-49509200D01*
X130263400Y-49428400D02*
X138938000Y-49428400D01*
X130238000Y-49403000D02*
X130263400Y-49428400D01*
D49*
%TO.N,unconnected-(J2-PadSH1)*%
X134218800Y-47910000D02*
X141218800Y-47910000D01*
X140218800Y-48910000D02*
X141218800Y-47910000D01*
X140218800Y-50610000D02*
X140218800Y-48910000D01*
%TO.N,GND*%
X167944800Y-76352400D02*
X168808400Y-75488800D01*
X167894000Y-76352400D02*
X167944800Y-76352400D01*
X168808400Y-75488800D02*
X174498000Y-75488800D01*
X167894000Y-74574400D02*
X168808400Y-75488800D01*
X158787800Y-74422000D02*
X158940200Y-74574400D01*
X157289000Y-74422000D02*
X158787800Y-74422000D01*
D52*
%TO.N,/USB_D-*%
X138268800Y-52411300D02*
X138445000Y-52587500D01*
X138368800Y-51622501D02*
X138268800Y-51722501D01*
%TO.N,/USB_D+*%
X137818800Y-51722501D02*
X137818800Y-52563700D01*
X137718800Y-51622501D02*
X137818800Y-51722501D01*
%TO.N,/USB_D-*%
X138268800Y-51722501D02*
X138268800Y-52411300D01*
D49*
%TO.N,GND*%
X136495000Y-52587500D02*
X136418800Y-52511300D01*
X136418800Y-52511300D02*
X136418800Y-50610000D01*
D52*
%TO.N,/USB_D-*%
X138445000Y-52587500D02*
X138445000Y-53833000D01*
%TO.N,/USB_D+*%
X137795000Y-54025800D02*
X137668000Y-54152800D01*
X137795000Y-52587500D02*
X137795000Y-54025800D01*
X137818800Y-52563700D02*
X137795000Y-52587500D01*
X137718800Y-50610000D02*
X137718800Y-51622501D01*
%TO.N,/USB_D-*%
X138368800Y-50610000D02*
X138368800Y-51622501D01*
D49*
%TO.N,GND*%
X160552800Y-96876200D02*
X157607000Y-99822000D01*
X160552800Y-96164400D02*
X160552800Y-96876200D01*
D50*
%TO.N,V_SUPPLY*%
X162102800Y-96164400D02*
X164134800Y-96164400D01*
X162102800Y-94513400D02*
X164109400Y-94513400D01*
D49*
%TO.N,GND*%
X160121600Y-86410800D02*
X158953200Y-87579200D01*
X160451200Y-86410800D02*
X160121600Y-86410800D01*
D50*
%TO.N,V_SUPPLY*%
X162001200Y-86410800D02*
X164134800Y-86410800D01*
X162001200Y-84759800D02*
X164160200Y-84759800D01*
D49*
%TO.N,+3.3V*%
X171681800Y-76781000D02*
X171269000Y-76781000D01*
X179822000Y-76781000D02*
X171681800Y-76781000D01*
X171269000Y-76781000D02*
X170942000Y-76454000D01*
D50*
X137541000Y-61214000D02*
X138875000Y-61214000D01*
D49*
%TO.N,GND*%
X161391600Y-64007400D02*
X161391600Y-63652400D01*
X160857600Y-64541400D02*
X161391600Y-64007400D01*
D50*
%TO.N,V_SUPPLY*%
X162407600Y-66192400D02*
X163982400Y-66192400D01*
X162407600Y-64541400D02*
X163957000Y-64541400D01*
D49*
%TO.N,/Motor Driver B (DRV8301)/H1_VS*%
X153035000Y-87655400D02*
X153035000Y-86360000D01*
X152486926Y-88203474D02*
X153035000Y-87655400D01*
X151737000Y-88928000D02*
X152461526Y-88203474D01*
X152461526Y-88203474D02*
X152486926Y-88203474D01*
X150562000Y-88928000D02*
X151737000Y-88928000D01*
%TO.N,/Motor Driver A (DRV8301)/M_H1*%
X153162000Y-64147053D02*
X153162000Y-62357000D01*
X152585000Y-64724053D02*
X153162000Y-64147053D01*
X152585000Y-64940600D02*
X152585000Y-64724053D01*
%TO.N,GND*%
X160806800Y-56540400D02*
X158660800Y-56540400D01*
X158660800Y-56540400D02*
X157175200Y-58026000D01*
D50*
%TO.N,V_SUPPLY*%
X162356800Y-56540400D02*
X163677600Y-56540400D01*
X162356800Y-54889400D02*
X163804600Y-54889400D01*
%TO.N,GND*%
X160806800Y-53975600D02*
X160806800Y-54889400D01*
X161188400Y-53594000D02*
X160806800Y-53975600D01*
X162306000Y-53594000D02*
X161188400Y-53594000D01*
D49*
X139192004Y-101118004D02*
X141097000Y-101118004D01*
D50*
%TO.N,+3.3V*%
X116951462Y-84632000D02*
X115651531Y-83332069D01*
X117983000Y-84632000D02*
X116951462Y-84632000D01*
X114096800Y-83210400D02*
X114724943Y-82582257D01*
X111912400Y-83210400D02*
X114096800Y-83210400D01*
X111470200Y-83652600D02*
X111912400Y-83210400D01*
X105968800Y-83652600D02*
X111470200Y-83652600D01*
X115651531Y-83332069D02*
X114901719Y-82582257D01*
X114901719Y-82582257D02*
X114724943Y-82582257D01*
X115651531Y-83332069D02*
X115321331Y-83001869D01*
D53*
X114724943Y-82582257D02*
X114940843Y-82798157D01*
X114092685Y-81950000D02*
X114724943Y-82582257D01*
D50*
X115321331Y-83001869D02*
X115117619Y-82798157D01*
D49*
X131153600Y-76950000D02*
X130810000Y-76606400D01*
X134614500Y-76950000D02*
X131153600Y-76950000D01*
D53*
X115416000Y-69950000D02*
X115443000Y-69977000D01*
X113289500Y-69950000D02*
X115416000Y-69950000D01*
D50*
X123598000Y-69950000D02*
X115470000Y-69950000D01*
X115470000Y-69950000D02*
X115443000Y-69977000D01*
X115468400Y-63334600D02*
X115684000Y-63119000D01*
X115468400Y-65938400D02*
X115468400Y-63334600D01*
D49*
%TO.N,GND*%
X121361200Y-56591200D02*
X121381500Y-56545500D01*
D50*
%TO.N,V_SUPPLY*%
X165125400Y-79121000D02*
X165201600Y-79044800D01*
X161798000Y-79121000D02*
X165125400Y-79121000D01*
X161798000Y-79121000D02*
X163347400Y-77571600D01*
X163347400Y-77571600D02*
X165201600Y-77571600D01*
X162179000Y-59817000D02*
X165354000Y-59817000D01*
X163372800Y-58623200D02*
X165303200Y-58623200D01*
X162179000Y-59817000D02*
X163372800Y-58623200D01*
D49*
%TO.N,/MCU (STM32F407ZGT6)/SCK_B*%
X135961000Y-88900000D02*
X135280400Y-88900000D01*
X135989000Y-88928000D02*
X135961000Y-88900000D01*
%TO.N,/MCU (STM32F407ZGT6)/GPIO2*%
X114549000Y-84450000D02*
X114808000Y-84836000D01*
%TO.N,/AN_IN*%
X114604800Y-72948800D02*
X114604800Y-73456800D01*
%TO.N,/Motor Driver B (DRV8301)/NFAULT*%
X142155600Y-86428000D02*
X141732000Y-86004400D01*
%TO.N,/Motor Driver B (DRV8301)/H3_LOW*%
X150562000Y-94928000D02*
X151960000Y-94928000D01*
%TO.N,SWDIO*%
X131583000Y-68950000D02*
X134614500Y-68950000D01*
X125374400Y-69088000D02*
X131445000Y-69088000D01*
X123647200Y-67360800D02*
X125374400Y-69088000D01*
X131445000Y-69088000D02*
X131583000Y-68950000D01*
%TO.N,/MCU (STM32F407ZGT6)/TEMP_A*%
X118702000Y-86862500D02*
X118702000Y-85732400D01*
D50*
%TO.N,+3.3V*%
X137541000Y-61277000D02*
X139002000Y-62738000D01*
D49*
%TO.N,Net-(C36-Pad1)*%
X149650000Y-65576000D02*
X150562000Y-65576000D01*
X149288500Y-65214500D02*
X149650000Y-65576000D01*
D53*
%TO.N,+3.3V*%
X126702000Y-66343514D02*
X127078828Y-66720342D01*
X126702000Y-65537500D02*
X126702000Y-66343514D01*
X126233643Y-66704757D02*
X122017243Y-66704757D01*
X126538443Y-66704757D02*
X126233643Y-66704757D01*
X126702000Y-66541200D02*
X126538443Y-66704757D01*
X126702000Y-65537500D02*
X126702000Y-66541200D01*
D49*
X134601500Y-67437000D02*
X132565802Y-67437000D01*
X134614500Y-67450000D02*
X134601500Y-67437000D01*
X132565802Y-67437000D02*
X131849144Y-66720342D01*
X131849144Y-66720342D02*
X127078828Y-66720342D01*
%TO.N,/Motor Driver B (DRV8301)/NFAULT*%
X143062000Y-86428000D02*
X142155600Y-86428000D01*
%TO.N,+3.3V*%
X114300000Y-61722000D02*
X114300000Y-61735000D01*
X114300000Y-61735000D02*
X115684000Y-63119000D01*
X111912400Y-75488800D02*
X111810800Y-75590400D01*
X111951200Y-75450000D02*
X111912400Y-75488800D01*
X113289500Y-75450000D02*
X111951200Y-75450000D01*
%TO.N,Net-(J4-Pad1)*%
X105613200Y-86141800D02*
X109629200Y-86141800D01*
X109629200Y-86141800D02*
X109792000Y-85979000D01*
%TO.N,GND*%
X107165200Y-81061800D02*
X108966000Y-79261000D01*
X105613200Y-81061800D02*
X107165200Y-81061800D01*
X106342000Y-77538400D02*
X107492800Y-78689200D01*
X106342000Y-75082400D02*
X106342000Y-77538400D01*
X109626400Y-72542400D02*
X109778800Y-72694800D01*
X108542000Y-72542400D02*
X109626400Y-72542400D01*
X111462200Y-74950000D02*
X113289500Y-74950000D01*
X110947200Y-74435000D02*
X111462200Y-74950000D01*
%TO.N,/MCU (STM32F407ZGT6)/HSE_IN*%
X107855000Y-74055400D02*
X106342000Y-72542400D01*
X109469000Y-74363200D02*
X109469000Y-74055400D01*
X109469000Y-74055400D02*
X107855000Y-74055400D01*
X109469000Y-74363200D02*
X110947200Y-72885000D01*
X109469000Y-76958354D02*
X109469000Y-74363200D01*
X110960646Y-78450000D02*
X109469000Y-76958354D01*
X113289500Y-78450000D02*
X110960646Y-78450000D01*
%TO.N,/MCU (STM32F407ZGT6)/HSE_OUT*%
X108542000Y-77287000D02*
X108542000Y-75082400D01*
X108966000Y-77711000D02*
X108542000Y-77287000D01*
%TO.N,+3.3V*%
X114300000Y-61417200D02*
X114300000Y-61722000D01*
X107276200Y-57997500D02*
X110880300Y-57997500D01*
X106249200Y-56970500D02*
X107276200Y-57997500D01*
X110880300Y-57997500D02*
X114300000Y-61417200D01*
%TO.N,/MCU (STM32F407ZGT6)/SW_BOOT0*%
X110472500Y-60497500D02*
X111341400Y-61366400D01*
X107276200Y-60497500D02*
X110472500Y-60497500D01*
X106249200Y-59470500D02*
X107276200Y-60497500D01*
%TO.N,GND*%
X106249200Y-65342200D02*
X109093000Y-68186000D01*
X106249200Y-61970500D02*
X106249200Y-65342200D01*
%TO.N,/MCU (STM32F407ZGT6)/BOOT0*%
X112991400Y-61366400D02*
X112991400Y-62001400D01*
X112991400Y-62001400D02*
X113665000Y-62675000D01*
%TO.N,/Motor Driver B (DRV8301)/DTC*%
X141741200Y-86928000D02*
X141630400Y-86817200D01*
X141962748Y-86928000D02*
X141741200Y-86928000D01*
%TO.N,Net-(C34-Pad1)*%
X149098000Y-63119000D02*
X149098000Y-62865000D01*
X149555000Y-63576000D02*
X149098000Y-63119000D01*
X150562000Y-63576000D02*
X149555000Y-63576000D01*
%TO.N,/Motor Driver A (DRV8301)/M_H1*%
X152585000Y-64940600D02*
X152585000Y-64911998D01*
X151449600Y-66076000D02*
X152585000Y-64940600D01*
X150562000Y-66076000D02*
X151449600Y-66076000D01*
%TO.N,Net-(C39-Pad1)*%
X139700000Y-68834000D02*
X139446000Y-68834000D01*
X139958000Y-68576000D02*
X139700000Y-68834000D01*
X140847000Y-68576000D02*
X139958000Y-68576000D01*
%TO.N,+3.3V*%
X133679000Y-79450000D02*
X133350000Y-79121000D01*
X134614500Y-79450000D02*
X133679000Y-79450000D01*
%TO.N,GND*%
X108966000Y-82309000D02*
X110998000Y-82309000D01*
X111139000Y-82450000D02*
X110998000Y-82309000D01*
X113289500Y-82450000D02*
X111139000Y-82450000D01*
X157289000Y-79107800D02*
X157358864Y-79177664D01*
X157289000Y-77888600D02*
X157289000Y-79107800D01*
%TO.N,/MCU (STM32F407ZGT6)/SCK_B*%
X140363000Y-88928000D02*
X138204000Y-88928000D01*
%TO.N,Net-(C62-Pad2)*%
X136902000Y-90428000D02*
X136550400Y-90779600D01*
X137113200Y-90428000D02*
X136902000Y-90428000D01*
X143062000Y-90428000D02*
X137113200Y-90428000D01*
%TO.N,GND*%
X110767000Y-76273800D02*
X110439200Y-75946000D01*
X110767000Y-77089000D02*
X110767000Y-76273800D01*
%TO.N,+3.3V*%
X131676802Y-84886800D02*
X127203200Y-84886800D01*
X132702000Y-85911998D02*
X131676802Y-84886800D01*
X132702000Y-86862500D02*
X132702000Y-85911998D01*
D53*
X122017243Y-66704757D02*
X125162486Y-69850000D01*
D50*
X125526800Y-69850000D02*
X123698000Y-69850000D01*
D53*
X125162486Y-69850000D02*
X125526800Y-69850000D01*
D50*
X130556000Y-69850000D02*
X125526800Y-69850000D01*
X123698000Y-69850000D02*
X123598000Y-69950000D01*
X130810000Y-70104000D02*
X130556000Y-69850000D01*
D49*
%TO.N,Net-(C21-Pad1)*%
X129006600Y-70688200D02*
X128879600Y-70561200D01*
X129717800Y-71399400D02*
X129006600Y-70688200D01*
X129743200Y-72948800D02*
X129743200Y-71424800D01*
X129743200Y-77673200D02*
X129743200Y-72948800D01*
X127762000Y-79654400D02*
X129743200Y-77673200D01*
X125628400Y-81788000D02*
X127762000Y-79654400D01*
%TO.N,/MCU (STM32F407ZGT6)/TEMP_A*%
X128879600Y-76200000D02*
X128879600Y-73914000D01*
X127838200Y-77241400D02*
X128879600Y-76200000D01*
X127393700Y-77685900D02*
X127838200Y-77241400D01*
%TO.N,Net-(C21-Pad1)*%
X125272800Y-81788000D02*
X125628400Y-81788000D01*
%TO.N,/MCU (STM32F407ZGT6)/BR_SO2_B*%
X124460000Y-80822800D02*
X125526800Y-80822800D01*
X123832800Y-81450000D02*
X124460000Y-80822800D01*
X113289500Y-81450000D02*
X123832800Y-81450000D01*
X125526800Y-80822800D02*
X125628400Y-80924400D01*
%TO.N,Net-(C21-Pad1)*%
X132183147Y-88690990D02*
X132181600Y-88595200D01*
X132202000Y-88574800D02*
X132183147Y-88690990D01*
X132202000Y-86862500D02*
X132202000Y-88574800D01*
%TO.N,Net-(C62-Pad1)*%
X142494000Y-99187000D02*
X141732000Y-98425000D01*
X143383000Y-99187000D02*
X142494000Y-99187000D01*
X144272000Y-98298000D02*
X143383000Y-99187000D01*
%TO.N,/MCU (STM32F407ZGT6)/DC_CAL_B*%
X140238800Y-89428000D02*
X139877800Y-89789000D01*
X143062000Y-89428000D02*
X140238800Y-89428000D01*
X139877800Y-89789000D02*
X136271000Y-89789000D01*
%TO.N,/MCU (STM32F407ZGT6)/SCK_B*%
X137005000Y-88928000D02*
X135989000Y-88928000D01*
X138204000Y-88928000D02*
X137005000Y-88928000D01*
%TO.N,/MCU (STM32F407ZGT6)/EN_GATE_B*%
X134614500Y-91180500D02*
X134614500Y-84950000D01*
X134874000Y-91440000D02*
X134614500Y-91180500D01*
X137299000Y-91428000D02*
X137287000Y-91440000D01*
X137287000Y-91440000D02*
X134874000Y-91440000D01*
X143062000Y-91428000D02*
X137299000Y-91428000D01*
%TO.N,Net-(C62-Pad1)*%
X144272000Y-91059000D02*
X144272000Y-98298000D01*
X144141000Y-90928000D02*
X144272000Y-91059000D01*
X143062000Y-90928000D02*
X144141000Y-90928000D01*
%TO.N,Net-(C41-Pad1)*%
X153797000Y-73533000D02*
X153479500Y-73215500D01*
X153797000Y-74142000D02*
X153797000Y-73533000D01*
%TO.N,/Motor Driver A (DRV8301)/H3_LOW*%
X154237000Y-72576000D02*
X154940000Y-73279000D01*
X153602000Y-72576000D02*
X154237000Y-72576000D01*
X151973000Y-72576000D02*
X153602000Y-72576000D01*
%TO.N,Net-(C41-Pad1)*%
X153657000Y-74282000D02*
X153797000Y-74142000D01*
X153449000Y-74282000D02*
X153657000Y-74282000D01*
X153449000Y-74076146D02*
X153449000Y-74282000D01*
X152562854Y-73076000D02*
X153449000Y-73962146D01*
X150562000Y-73076000D02*
X152562854Y-73076000D01*
%TO.N,Net-(C41-Pad2)*%
X152995000Y-74264198D02*
X152995000Y-74890000D01*
X152420802Y-73576000D02*
X152995000Y-74150198D01*
X150562000Y-73576000D02*
X152420802Y-73576000D01*
X152995000Y-74890000D02*
X153797000Y-75692000D01*
X154483000Y-75578000D02*
X155639000Y-74422000D01*
X153797000Y-75692000D02*
X154483000Y-75692000D01*
%TO.N,/Motor Driver A (DRV8301)/H3_LOW*%
X150562000Y-72576000D02*
X151973000Y-72576000D01*
%TO.N,+3.3V*%
X115702000Y-66934000D02*
X115951000Y-67183000D01*
X115702000Y-65537500D02*
X115702000Y-66934000D01*
D51*
%TO.N,/MCU (STM32F407ZGT6)/BOOT0*%
X113665000Y-66486959D02*
X113665000Y-62675000D01*
X118202000Y-67091000D02*
X117348000Y-67945000D01*
X117348000Y-67945000D02*
X115123041Y-67945000D01*
X115123041Y-67945000D02*
X113665000Y-66486959D01*
X118202000Y-65537500D02*
X118202000Y-67091000D01*
D49*
%TO.N,GND*%
X155448000Y-55994000D02*
X155448000Y-54483000D01*
X157480000Y-58026000D02*
X155448000Y-55994000D01*
X113289500Y-74950000D02*
X114193000Y-74950000D01*
X114193000Y-74950000D02*
X114554000Y-75311000D01*
%TO.N,+3.3V*%
X143967000Y-73076000D02*
X143062000Y-73076000D01*
X144164000Y-73273000D02*
X143967000Y-73076000D01*
X143065000Y-76645000D02*
X144164000Y-75546000D01*
X140843000Y-76645000D02*
X143065000Y-76645000D01*
X144164000Y-75546000D02*
X144164000Y-73273000D01*
%TO.N,/Motor Driver B (DRV8301)/H3_LOW*%
X152400000Y-94488000D02*
X152082500Y-94805500D01*
X152972000Y-94488000D02*
X152400000Y-94488000D01*
%TO.N,Net-(C64-Pad1)*%
X153035000Y-96075000D02*
X154622000Y-94488000D01*
X153035000Y-96367000D02*
X153035000Y-96075000D01*
%TO.N,GND*%
X141083996Y-101105000D02*
X141097000Y-101118004D01*
X137541000Y-101105000D02*
X141083996Y-101105000D01*
%TO.N,/MCU (STM32F407ZGT6)/TEMP_B*%
X124206000Y-83185000D02*
X123659900Y-83731100D01*
X125349000Y-83185000D02*
X124206000Y-83185000D01*
D50*
%TO.N,V_SUPPLY*%
X151654000Y-85328000D02*
X150562000Y-85328000D01*
X151765000Y-85217000D02*
X151654000Y-85328000D01*
X151576000Y-85028000D02*
X150562000Y-85028000D01*
X153416000Y-85217000D02*
X151765000Y-85217000D01*
X151765000Y-85217000D02*
X151576000Y-85028000D01*
D49*
%TO.N,GND*%
X152909000Y-99569000D02*
X154178000Y-100838000D01*
X152909000Y-99568000D02*
X152909000Y-99569000D01*
%TO.N,/MCU (STM32F407ZGT6)/TEMP_B*%
X125349000Y-83185000D02*
X129234907Y-79247558D01*
%TO.N,/MCU (STM32F407ZGT6)/BR_SO2_B*%
X141189000Y-96428000D02*
X140762854Y-96846410D01*
X143062000Y-96428000D02*
X141189000Y-96428000D01*
%TO.N,/MCU (STM32F407ZGT6)/BR_SO1_B*%
X120726000Y-80950000D02*
X120904000Y-80772000D01*
X113289500Y-80950000D02*
X120726000Y-80950000D01*
X139911000Y-95928000D02*
X139319000Y-96520000D01*
X143062000Y-95928000D02*
X139911000Y-95928000D01*
%TO.N,+3.3V*%
X139014000Y-95428000D02*
X138557000Y-95885000D01*
X143062000Y-95428000D02*
X139014000Y-95428000D01*
%TO.N,/Motor Driver B (DRV8301)/DVDD*%
X137541000Y-95758000D02*
X137541000Y-99568000D01*
X143062000Y-94928000D02*
X138371000Y-94928000D01*
X138371000Y-94928000D02*
X137541000Y-95758000D01*
%TO.N,/Motor Driver B (DRV8301)/AVDD*%
X141097000Y-97814000D02*
X141097000Y-99568004D01*
X141983000Y-96928000D02*
X141097000Y-97814000D01*
%TO.N,GND*%
X146812000Y-72517000D02*
X147701000Y-73406000D01*
X146812000Y-72517000D02*
X145923000Y-73406000D01*
X146812000Y-68326000D02*
X146812000Y-72517000D01*
%TO.N,/Motor Driver B (DRV8301)/GVDD*%
X144399000Y-89535000D02*
X144399000Y-88646000D01*
X144006000Y-89928000D02*
X144399000Y-89535000D01*
X143062000Y-89928000D02*
X144006000Y-89928000D01*
%TO.N,/Motor Driver B (DRV8301)/AVDD*%
X141983000Y-96928000D02*
X143062000Y-96928000D01*
%TO.N,/MCU (STM32F407ZGT6)/SERVO*%
X111442000Y-85979000D02*
X111442000Y-88863000D01*
X111442000Y-85979000D02*
X111442000Y-89244000D01*
X111442000Y-88863000D02*
X111405000Y-88900000D01*
X113289500Y-84950000D02*
X112471000Y-84950000D01*
X112471000Y-84950000D02*
X111442000Y-85979000D01*
X111442000Y-89244000D02*
X111405000Y-89281000D01*
%TO.N,GND*%
X122202000Y-88110000D02*
X122174000Y-88138000D01*
X146177000Y-68326000D02*
X145034000Y-67183000D01*
X160451200Y-84759800D02*
X160451200Y-86410800D01*
X146812000Y-64643000D02*
X146050000Y-63881000D01*
X127202000Y-86862500D02*
X127202000Y-86054000D01*
X150562000Y-92428000D02*
X148562000Y-92428000D01*
X146495000Y-99174000D02*
X146495000Y-100648000D01*
X115702000Y-87893354D02*
X114441354Y-89154000D01*
X125222000Y-57772000D02*
X125222000Y-56261000D01*
X147625800Y-78741000D02*
X146807678Y-77899390D01*
X115702000Y-86862500D02*
X115702000Y-87893354D01*
X139230600Y-85382600D02*
X137718800Y-83820000D01*
X146495000Y-100648000D02*
X146558000Y-100711000D01*
X157289000Y-74422000D02*
X157289000Y-77888600D01*
X131967000Y-53087000D02*
X129934000Y-51054000D01*
X114046000Y-89154000D02*
X113792000Y-89408000D01*
X117234000Y-63119000D02*
X117221000Y-64135000D01*
X146812000Y-68326000D02*
X146177000Y-68326000D01*
X154686000Y-81002000D02*
X155534528Y-81002000D01*
D53*
X122202000Y-65537500D02*
X122202000Y-64615000D01*
D49*
X152653000Y-58547000D02*
X152653000Y-54760000D01*
X113792000Y-89408000D02*
X113792000Y-90551000D01*
X143062000Y-75378000D02*
X142430500Y-76009500D01*
X174490800Y-75496000D02*
X174498000Y-75488800D01*
D53*
X122202000Y-64615000D02*
X123571000Y-63246000D01*
D49*
X146812000Y-68326000D02*
X145034000Y-66548000D01*
X143062000Y-98238000D02*
X143002000Y-98298000D01*
D53*
X122202000Y-65537500D02*
X122202000Y-63261000D01*
D49*
X148562000Y-92428000D02*
X146812000Y-90678000D01*
X122202000Y-86862500D02*
X122202000Y-88110000D01*
X146812000Y-68326000D02*
X148562000Y-70076000D01*
X136495000Y-52587500D02*
X136495000Y-54072000D01*
X133121000Y-53111000D02*
X134429500Y-54419500D01*
X134614500Y-74450000D02*
X133782052Y-74450000D01*
X134614500Y-79950000D02*
X133664000Y-79950000D01*
X150622000Y-100343000D02*
X149593000Y-100343000D01*
X110998000Y-66802000D02*
X111658400Y-66192400D01*
X134614500Y-67950000D02*
X132262800Y-67950000D01*
X157543000Y-74676000D02*
X157289000Y-74422000D01*
D53*
X122202000Y-63261000D02*
X122060000Y-63119000D01*
X127202000Y-65537500D02*
X127202000Y-63819000D01*
D49*
X143062000Y-97428000D02*
X143062000Y-98238000D01*
X132262800Y-67950000D02*
X132029200Y-67716400D01*
X153797000Y-53570000D02*
X153797000Y-53086000D01*
X115925600Y-70916800D02*
X118922800Y-70916800D01*
X133782052Y-74450000D02*
X133351426Y-74880626D01*
X107835400Y-82309000D02*
X107746800Y-82397600D01*
X139256000Y-82372000D02*
X140856000Y-80772000D01*
X127202000Y-86054000D02*
X126619000Y-85471000D01*
X134493000Y-54483000D02*
X136906000Y-54483000D01*
D53*
X127902000Y-63119000D02*
X128778000Y-63119000D01*
D49*
X146050000Y-67183000D02*
X146050000Y-65024000D01*
X146812000Y-90678000D02*
X148485000Y-92351000D01*
X133664000Y-79950000D02*
X133350000Y-80391000D01*
X145034000Y-66548000D02*
X145034000Y-66040000D01*
X138303000Y-64262000D02*
X137668000Y-63627000D01*
X136495000Y-54072000D02*
X136906000Y-54483000D01*
X148336000Y-78741000D02*
X147625800Y-78741000D01*
X114147000Y-89154000D02*
X114046000Y-89154000D01*
X140856000Y-80530400D02*
X141782800Y-79603600D01*
X143062000Y-75076000D02*
X143062000Y-75378000D01*
X160552800Y-96164400D02*
X160552800Y-94513400D01*
X146812000Y-68326000D02*
X146050000Y-67564000D01*
X146812000Y-68326000D02*
X146812000Y-64643000D01*
X131967000Y-53111000D02*
X131967000Y-53087000D01*
X134429500Y-54419500D02*
X134493000Y-54483000D01*
X158940200Y-76352400D02*
X158940200Y-74574400D01*
D53*
X127202000Y-63819000D02*
X127902000Y-63119000D01*
D49*
X109855000Y-89281000D02*
X108712000Y-90424000D01*
X114936000Y-52653200D02*
X115112800Y-52476400D01*
X108115400Y-79261000D02*
X107492800Y-78689200D01*
X139446000Y-85725000D02*
X139446000Y-85344000D01*
X108966000Y-82309000D02*
X107835400Y-82309000D01*
X138938000Y-59436000D02*
X138303000Y-58801000D01*
D53*
X128778000Y-63119000D02*
X129540000Y-63881000D01*
D49*
X148562000Y-70076000D02*
X150562000Y-70076000D01*
X143040600Y-53492400D02*
X141960600Y-53492400D01*
X160451200Y-86410800D02*
X160083200Y-86410800D01*
X167894000Y-74574400D02*
X167894000Y-76352400D01*
X118922800Y-70916800D02*
X121107200Y-73101200D01*
X108966000Y-79261000D02*
X108115400Y-79261000D01*
X133325313Y-74905313D02*
X133299200Y-74930000D01*
X155534528Y-81002000D02*
X157358864Y-79177664D01*
X139002000Y-59436000D02*
X138938000Y-59436000D01*
X139256000Y-82423000D02*
X139256000Y-82372000D01*
X152630000Y-54737000D02*
X153797000Y-53570000D01*
X133351426Y-74880626D02*
X133325313Y-74905313D01*
X131967000Y-53111000D02*
X133121000Y-53111000D01*
X110998000Y-68186000D02*
X109093000Y-68186000D01*
X122301000Y-57772000D02*
X122301000Y-57465000D01*
X110998000Y-68186000D02*
X110998000Y-66802000D01*
X160857600Y-66192400D02*
X160857600Y-64541400D01*
X114936000Y-54483000D02*
X114936000Y-52653200D01*
X139002000Y-64262000D02*
X138303000Y-64262000D01*
X149593000Y-100343000D02*
X149225000Y-100711000D01*
X139230600Y-85725000D02*
X139230600Y-85382600D01*
X146050000Y-67564000D02*
X146050000Y-67183000D01*
X114441354Y-89154000D02*
X114147000Y-89154000D01*
%TO.N,NRST*%
X114352000Y-79450000D02*
X114681000Y-79121000D01*
X113289500Y-79450000D02*
X114352000Y-79450000D01*
%TO.N,+5V*%
X129882000Y-55626000D02*
X134049000Y-55626000D01*
X127367000Y-53111000D02*
X129882000Y-55626000D01*
%TO.N,/MCU (STM32F407ZGT6)/HSE_OUT*%
X109910646Y-78950000D02*
X108839000Y-77878354D01*
X108839000Y-77878354D02*
X108839000Y-77584000D01*
X113289500Y-78950000D02*
X109910646Y-78950000D01*
%TO.N,Net-(C21-Pad1)*%
X131194000Y-68450000D02*
X131191000Y-68453000D01*
X134614500Y-68450000D02*
X131194000Y-68450000D01*
%TO.N,+3.3V*%
X134614500Y-75450000D02*
X133693600Y-75450000D01*
D53*
X121702000Y-65537500D02*
X121702000Y-66340685D01*
X116202000Y-86862500D02*
X116202000Y-85220000D01*
D49*
X140017500Y-77025500D02*
X140017500Y-77660500D01*
D50*
X130810000Y-74803000D02*
X130810000Y-73533000D01*
D53*
X113289500Y-81950000D02*
X114092685Y-81950000D01*
D49*
X139446000Y-77597000D02*
X139446000Y-77724000D01*
X132537200Y-76606400D02*
X130810000Y-76606400D01*
X151591000Y-65076000D02*
X152146000Y-64521000D01*
X150562000Y-65076000D02*
X151641000Y-65076000D01*
D51*
X122702000Y-87777000D02*
X123789000Y-88864000D01*
D50*
X123825000Y-53569000D02*
X123825000Y-49403000D01*
D49*
X113289500Y-82950000D02*
X113153500Y-83086000D01*
D51*
X146799250Y-78606250D02*
X147386000Y-79193000D01*
D49*
X139002000Y-61087000D02*
X139925000Y-60164000D01*
D50*
X117983000Y-84632000D02*
X116713000Y-84632000D01*
D49*
X133640000Y-73950000D02*
X133259000Y-73950000D01*
D50*
X117170000Y-102937000D02*
X115870000Y-101637000D01*
D51*
X122702000Y-86862500D02*
X122702000Y-86023959D01*
D50*
X124587000Y-84709000D02*
X121539000Y-84709000D01*
D49*
X109093000Y-69736000D02*
X110998000Y-69736000D01*
D53*
X113289500Y-69950000D02*
X111733000Y-69950000D01*
X121702000Y-65537500D02*
X121702000Y-64311000D01*
D49*
X155956000Y-78232000D02*
X155956000Y-76454000D01*
D50*
X130810000Y-77470000D02*
X130810000Y-76606400D01*
D49*
X140303500Y-77565500D02*
X140112500Y-77565500D01*
X106129000Y-83086000D02*
X105410000Y-83805000D01*
X140398000Y-76645000D02*
X140017500Y-77025500D01*
D50*
X119761000Y-99949000D02*
X119761000Y-102886000D01*
D51*
X147386000Y-79193000D02*
X147386000Y-79541000D01*
D49*
X139954000Y-56515000D02*
X139925000Y-56544000D01*
X143877500Y-79679500D02*
X143877500Y-80137000D01*
X150562000Y-65076000D02*
X151591000Y-65076000D01*
D51*
X122702000Y-86023959D02*
X124016959Y-84709000D01*
X129855480Y-89854520D02*
X130043959Y-90043000D01*
D49*
X144696000Y-57912000D02*
X144696000Y-57708000D01*
X141763500Y-77565500D02*
X143877500Y-79679500D01*
D51*
X150562000Y-87428000D02*
X149487000Y-87428000D01*
D50*
X125349000Y-84709000D02*
X127508000Y-82550000D01*
X130810000Y-73533000D02*
X130810000Y-71501000D01*
D49*
X139925000Y-60164000D02*
X139925000Y-56544000D01*
D51*
X149144000Y-87330000D02*
X143877500Y-82063500D01*
X145408250Y-78606250D02*
X146799250Y-78606250D01*
X154559000Y-79629000D02*
X154686000Y-79502000D01*
D50*
X130810000Y-71501000D02*
X130810000Y-70104000D01*
D51*
X125004000Y-88864000D02*
X125131000Y-88864000D01*
D50*
X137541000Y-60706000D02*
X137541000Y-61214000D01*
D49*
X142875000Y-81661000D02*
X142875000Y-81450000D01*
D53*
X126702000Y-63469000D02*
X126352000Y-63119000D01*
D51*
X122702000Y-85872000D02*
X121539000Y-84709000D01*
D49*
X132842000Y-73533000D02*
X133223000Y-73914000D01*
D51*
X122702000Y-86862500D02*
X122702000Y-87777000D01*
X143877500Y-82063500D02*
X143877500Y-80137000D01*
D49*
X139446000Y-78486000D02*
X139446000Y-78740000D01*
D53*
X110998000Y-80759000D02*
X108456000Y-80759000D01*
D49*
X140303500Y-77565500D02*
X141763500Y-77565500D01*
D51*
X149389000Y-87330000D02*
X149144000Y-87330000D01*
X127702000Y-86862500D02*
X127702000Y-85385600D01*
D50*
X125388401Y-94321599D02*
X119761000Y-99949000D01*
D49*
X140017500Y-77025500D02*
X139446000Y-77597000D01*
D50*
X121539000Y-84632000D02*
X117983000Y-84632000D01*
D49*
X130810000Y-73533000D02*
X132842000Y-73533000D01*
X140843000Y-76645000D02*
X141763500Y-77565500D01*
D50*
X130810000Y-76606400D02*
X130810000Y-75946000D01*
D49*
X179832000Y-76771000D02*
X179822000Y-76781000D01*
D51*
X124805000Y-88864000D02*
X125004000Y-88864000D01*
D49*
X144696000Y-57708000D02*
X147667000Y-54737000D01*
D51*
X147474000Y-79629000D02*
X154559000Y-79629000D01*
D49*
X121702000Y-66389514D02*
X121702000Y-65537500D01*
X140843000Y-76645000D02*
X140398000Y-76645000D01*
X147667000Y-54737000D02*
X151130000Y-54737000D01*
X118996000Y-100460000D02*
X125095000Y-94361000D01*
D50*
X129667000Y-59411000D02*
X126695000Y-56439000D01*
X126695000Y-56439000D02*
X123825000Y-53569000D01*
X125349000Y-84709000D02*
X124587000Y-84709000D01*
X137541000Y-56642000D02*
X137541000Y-60706000D01*
D51*
X124016959Y-84709000D02*
X124587000Y-84709000D01*
D53*
X116202000Y-85143000D02*
X116713000Y-84632000D01*
D49*
X133259000Y-73950000D02*
X133223000Y-73914000D01*
D53*
X126702000Y-65537500D02*
X126702000Y-63469000D01*
D51*
X147386000Y-79541000D02*
X147474000Y-79629000D01*
X127702000Y-85385600D02*
X126415800Y-84099400D01*
D53*
X111733000Y-69950000D02*
X111212000Y-69950000D01*
D49*
X115870000Y-101637000D02*
X117047000Y-100460000D01*
D53*
X116202000Y-86862500D02*
X116202000Y-88649000D01*
X110998000Y-80518000D02*
X111887000Y-79629000D01*
X110998000Y-80759000D02*
X110998000Y-80518000D01*
D49*
X131330000Y-76950000D02*
X130810000Y-77470000D01*
X139446000Y-77724000D02*
X139446000Y-78232000D01*
D51*
X122702000Y-86862500D02*
X122702000Y-85872000D01*
D49*
X139002000Y-61087000D02*
X139002000Y-62738000D01*
X117047000Y-100460000D02*
X118996000Y-100460000D01*
D50*
X127508000Y-82550000D02*
X130873500Y-79184500D01*
D53*
X116202000Y-88649000D02*
X115697000Y-89154000D01*
D51*
X130043959Y-90043000D02*
X130048000Y-90043000D01*
X125004000Y-88864000D02*
X125004000Y-89245000D01*
X123789000Y-88864000D02*
X124551000Y-88864000D01*
D49*
X142875000Y-81450000D02*
X143934000Y-80391000D01*
D50*
X130810000Y-75946000D02*
X130810000Y-74803000D01*
D49*
X140017500Y-77660500D02*
X140112500Y-77565500D01*
X154686000Y-79502000D02*
X155956000Y-78232000D01*
D53*
X121702000Y-66340685D02*
X118092685Y-69950000D01*
X121702000Y-64311000D02*
X120510000Y-63119000D01*
D51*
X125059000Y-89118000D02*
X125131000Y-89118000D01*
D50*
X126695000Y-57849000D02*
X125222000Y-59322000D01*
X125388401Y-93726000D02*
X125388401Y-94321599D01*
D49*
X134614500Y-76950000D02*
X131330000Y-76950000D01*
D53*
X115202000Y-65537500D02*
X115246000Y-65493500D01*
X113289500Y-81950000D02*
X112189000Y-81950000D01*
D49*
X134614500Y-73950000D02*
X133640000Y-73950000D01*
D51*
X143877500Y-80137000D02*
X145408250Y-78606250D01*
D49*
X122017243Y-66704757D02*
X121702000Y-66389514D01*
X140112500Y-77565500D02*
X139446000Y-78232000D01*
D50*
X137541000Y-60706000D02*
X137541000Y-61277000D01*
D49*
X152146000Y-64521000D02*
X152146000Y-63881000D01*
D51*
X149487000Y-87428000D02*
X149389000Y-87330000D01*
D49*
X133693600Y-75450000D02*
X132537200Y-76606400D01*
D53*
X112189000Y-81950000D02*
X110998000Y-80759000D01*
D50*
X138875000Y-61214000D02*
X139002000Y-61087000D01*
X126695000Y-56439000D02*
X126695000Y-57849000D01*
D51*
X124551000Y-88864000D02*
X125131000Y-88864000D01*
X124551000Y-88864000D02*
X124805000Y-88864000D01*
D50*
X130810000Y-79121000D02*
X130810000Y-77470000D01*
D49*
X139446000Y-78232000D02*
X139446000Y-78486000D01*
D51*
X127702000Y-86862500D02*
X127702000Y-87701041D01*
X127702000Y-87701041D02*
X129855480Y-89854520D01*
D50*
X119761000Y-102886000D02*
X119710000Y-102937000D01*
D53*
X111212000Y-69950000D02*
X110998000Y-69736000D01*
D50*
X130873500Y-79184500D02*
X130810000Y-79121000D01*
X119710000Y-102937000D02*
X117170000Y-102937000D01*
D49*
%TO.N,/Motor Driver A (DRV8301)/COMP*%
X143062000Y-62076000D02*
X142125052Y-62076000D01*
X142125052Y-62076000D02*
X141815026Y-61765974D01*
%TO.N,/Motor Driver A (DRV8301)/GVDD*%
X144133000Y-67576000D02*
X144272000Y-67437000D01*
X143062000Y-67576000D02*
X144133000Y-67576000D01*
%TO.N,/Motor Driver A (DRV8301)/DVDD*%
X141800000Y-72576000D02*
X141605000Y-72771000D01*
X143062000Y-72576000D02*
X142125052Y-72576000D01*
X143062000Y-72576000D02*
X141800000Y-72576000D01*
X143039000Y-72599000D02*
X142102052Y-72599000D01*
X143062000Y-72576000D02*
X143039000Y-72599000D01*
%TO.N,Net-(C34-Pad2)*%
X146896000Y-57912000D02*
X148718000Y-57912000D01*
X148222500Y-62851500D02*
X146896000Y-61525000D01*
X148222500Y-63208500D02*
X149590000Y-64576000D01*
D51*
X149590000Y-64576000D02*
X150562000Y-64576000D01*
D49*
X146896000Y-61525000D02*
X146896000Y-57912000D01*
X148718000Y-57912000D02*
X149353000Y-58547000D01*
X148222500Y-62851500D02*
X148222500Y-63208500D01*
X150562000Y-64076000D02*
X149090000Y-64076000D01*
%TO.N,Net-(C38-Pad1)*%
X150562000Y-68076000D02*
X149483000Y-68076000D01*
X149483000Y-68076000D02*
X149479000Y-68072000D01*
%TO.N,/Motor Driver A (DRV8301)/AVDD*%
X142086000Y-74576000D02*
X141732000Y-74930000D01*
X143062000Y-74576000D02*
X142086000Y-74576000D01*
D50*
%TO.N,V_SUPPLY*%
X150294000Y-62918000D02*
X150241000Y-62865000D01*
X161798000Y-79121000D02*
X159512000Y-79121000D01*
D51*
X150622000Y-98793000D02*
X155334000Y-103505000D01*
X164465000Y-102616000D02*
X164465000Y-101219000D01*
D50*
X150098000Y-62976000D02*
X150562000Y-62976000D01*
X151598000Y-62865000D02*
X154646000Y-59817000D01*
X150241000Y-62865000D02*
X149987000Y-62865000D01*
D51*
X163576000Y-103505000D02*
X164465000Y-102616000D01*
D50*
X154646000Y-59817000D02*
X154646000Y-52348000D01*
D51*
X150562000Y-75076000D02*
X150476000Y-75076000D01*
D50*
X149987000Y-62865000D02*
X150176000Y-62676000D01*
D51*
X150127000Y-98298000D02*
X149479000Y-98298000D01*
D50*
X150241000Y-62865000D02*
X151598000Y-62865000D01*
D51*
X150476000Y-75076000D02*
X149479000Y-76073000D01*
X149587000Y-97428000D02*
X149479000Y-97536000D01*
X150562000Y-98733000D02*
X150622000Y-98793000D01*
X155334000Y-103505000D02*
X163576000Y-103505000D01*
D50*
X164592000Y-61468000D02*
X164592000Y-61780500D01*
D51*
X149479000Y-97536000D02*
X149479000Y-98298000D01*
X150622000Y-98793000D02*
X150127000Y-98298000D01*
X150562000Y-97428000D02*
X149587000Y-97428000D01*
D50*
X150176000Y-62676000D02*
X150562000Y-62676000D01*
X154646000Y-59817000D02*
X162179000Y-59817000D01*
D51*
X150562000Y-97428000D02*
X150562000Y-98733000D01*
D50*
X159512000Y-79121000D02*
X153416000Y-85217000D01*
X149987000Y-62865000D02*
X150098000Y-62976000D01*
D49*
%TO.N,Net-(C39-Pad1)*%
X143062000Y-68576000D02*
X140847000Y-68576000D01*
%TO.N,Net-(C39-Pad2)*%
X140085000Y-68076000D02*
X140585000Y-68076000D01*
X143062000Y-68076000D02*
X140585000Y-68076000D01*
%TO.N,/Motor Driver A (DRV8301)/H1_VS*%
X151737000Y-66576000D02*
X151861580Y-66576000D01*
X151861580Y-66576000D02*
X150562000Y-66576000D01*
X150562000Y-66576000D02*
X149507000Y-66576000D01*
X149507000Y-66576000D02*
X149352000Y-66421000D01*
X153162000Y-65275580D02*
X151861580Y-66576000D01*
X167259000Y-57073800D02*
X167259000Y-51562000D01*
X166674800Y-57658000D02*
X167259000Y-57073800D01*
X150562000Y-66576000D02*
X151737000Y-66576000D01*
X153162000Y-65151000D02*
X153162000Y-65275580D01*
%TO.N,/Motor Driver A (DRV8301)/H2_VS*%
X150562000Y-69076000D02*
X157365000Y-69076000D01*
X150562000Y-69076000D02*
X149491000Y-69076000D01*
X157365000Y-69076000D02*
X159448500Y-66992500D01*
X159448500Y-64198500D02*
X159956500Y-63690500D01*
X159448500Y-66992500D02*
X159448500Y-64198500D01*
%TO.N,/Motor Driver A (DRV8301)/H3_VS*%
X150562000Y-71576000D02*
X149427000Y-71576000D01*
X155044624Y-71576000D02*
X156339112Y-72870488D01*
X156339112Y-72870488D02*
X159285512Y-72870488D01*
X150562000Y-71576000D02*
X155044624Y-71576000D01*
%TO.N,Net-(C40-Pad1)*%
X150562000Y-70576000D02*
X149642000Y-70576000D01*
X149642000Y-70576000D02*
X149479000Y-70739000D01*
X149479000Y-70739000D02*
X149352000Y-70739000D01*
%TO.N,Net-(C42-Pad1)*%
X152104800Y-74076000D02*
X152196800Y-74168000D01*
X150562000Y-74076000D02*
X152104800Y-74076000D01*
%TO.N,Net-(C42-Pad2)*%
X151641000Y-74576000D02*
X152298400Y-75233400D01*
X152298400Y-75233400D02*
X152298400Y-75742800D01*
X150562000Y-74576000D02*
X151641000Y-74576000D01*
%TO.N,Net-(C54-Pad2)*%
X139306000Y-80772000D02*
X138529000Y-81549000D01*
X138529000Y-81549000D02*
X138529000Y-83410000D01*
X138529000Y-83410000D02*
X139193000Y-84074000D01*
%TO.N,/Motor Driver B (DRV8301)/COMP*%
X141197000Y-84428000D02*
X143062000Y-84428000D01*
X140843000Y-84074000D02*
X140843000Y-83947000D01*
X140843000Y-83947000D02*
X140081000Y-83185000D01*
X140843000Y-84074000D02*
X141197000Y-84428000D01*
%TO.N,Net-(C57-Pad1)*%
X149225000Y-85670000D02*
X149483000Y-85928000D01*
X150475000Y-82436000D02*
X149606000Y-83305000D01*
X149225000Y-83693000D02*
X149225000Y-85670000D01*
X149606000Y-83305000D02*
X149606000Y-83312000D01*
X149483000Y-85928000D02*
X150562000Y-85928000D01*
X150475000Y-82436000D02*
X151003000Y-82436000D01*
X149606000Y-83312000D02*
X149225000Y-83693000D01*
D50*
%TO.N,Net-(C57-Pad2)*%
X150635000Y-80886000D02*
X151003000Y-80886000D01*
X146134000Y-82380000D02*
X146134000Y-79291000D01*
X148293000Y-82550000D02*
X146134000Y-80391000D01*
X149352999Y-86614000D02*
X146134000Y-83395001D01*
X148971000Y-82550000D02*
X148293000Y-82550000D01*
X149352999Y-86614000D02*
X149606000Y-86614000D01*
X149352998Y-86614000D02*
X148336000Y-85597002D01*
X148971000Y-82550000D02*
X150635000Y-80886000D01*
X151003000Y-86614000D02*
X150789000Y-86828000D01*
X146134000Y-82380000D02*
X146134000Y-80391000D01*
X148336000Y-83185000D02*
X148971000Y-82550000D01*
X149606000Y-86614000D02*
X149352998Y-86614000D01*
X148336000Y-85597002D02*
X148336000Y-83185000D01*
X148336000Y-83185000D02*
X148336000Y-82041000D01*
X149606000Y-86614000D02*
X151003000Y-86614000D01*
X148648000Y-85909001D02*
X149352999Y-86614000D01*
X146134000Y-83395001D02*
X146134000Y-82380000D01*
X150789000Y-86828000D02*
X150562000Y-86828000D01*
D49*
%TO.N,Net-(C59-Pad1)*%
X149435000Y-87928000D02*
X149365790Y-88053768D01*
X149435000Y-87928000D02*
X149352000Y-88011000D01*
X150562000Y-87928000D02*
X149435000Y-87928000D01*
%TO.N,Net-(C63-Pad1)*%
X150562000Y-92928000D02*
X149515000Y-92928000D01*
X150562000Y-92928000D02*
X149642000Y-92928000D01*
X149515000Y-92928000D02*
X149352000Y-93091000D01*
%TO.N,Net-(C64-Pad1)*%
X151643998Y-95428000D02*
X151689998Y-95474000D01*
X152142000Y-95474000D02*
X153035000Y-96367000D01*
X151689998Y-95474000D02*
X152142000Y-95474000D01*
X150562000Y-95428000D02*
X151643998Y-95428000D01*
%TO.N,/Motor Driver B (DRV8301)/H1_VS*%
X150562000Y-88928000D02*
X149380000Y-88928000D01*
X149380000Y-88928000D02*
X149352000Y-88900000D01*
%TO.N,Net-(C61-Pad1)*%
X149483000Y-90428000D02*
X149225000Y-90170000D01*
X150562000Y-90428000D02*
X149483000Y-90428000D01*
%TO.N,/Motor Driver B (DRV8301)/H2_VS*%
X156725052Y-93345000D02*
X154808052Y-91428000D01*
X154808052Y-91428000D02*
X150562000Y-91428000D01*
X150562000Y-91428000D02*
X149352000Y-91440000D01*
X158877000Y-93345000D02*
X156725052Y-93345000D01*
%TO.N,/Motor Driver B (DRV8301)/H3_VS*%
X150562000Y-93928000D02*
X149404000Y-93928000D01*
%TO.N,Net-(C64-Pad2)*%
X151765000Y-96052000D02*
X151641000Y-95928000D01*
X151765000Y-96393000D02*
X151765000Y-96052000D01*
X153035000Y-97917000D02*
X153035000Y-97663000D01*
D51*
X152972000Y-97917000D02*
X152972000Y-97697420D01*
D49*
X153035000Y-97663000D02*
X151765000Y-96393000D01*
D51*
X152972000Y-97981000D02*
X154559000Y-99568000D01*
D49*
X151641000Y-95928000D02*
X150562000Y-95928000D01*
D51*
X152972000Y-97917000D02*
X152972000Y-97981000D01*
D49*
%TO.N,Net-(C65-Pad1)*%
X150562000Y-96428000D02*
X149641000Y-96428000D01*
X149225000Y-96012000D02*
X149225000Y-95758000D01*
X149641000Y-96428000D02*
X149225000Y-96012000D01*
%TO.N,Net-(C65-Pad2)*%
X148145000Y-97981000D02*
X148145000Y-99174000D01*
X149198000Y-96928000D02*
X150562000Y-96928000D01*
X151892000Y-97179000D02*
X151892000Y-98044000D01*
X149198000Y-96928000D02*
X148145000Y-97981000D01*
X151641000Y-96928000D02*
X151892000Y-97179000D01*
X150562000Y-96928000D02*
X151641000Y-96928000D01*
%TO.N,/MCU (STM32F407ZGT6)/TEMP_A*%
X144907000Y-77089000D02*
X143764000Y-77089000D01*
X179832000Y-75121000D02*
X178880000Y-76073000D01*
X178880000Y-76073000D02*
X173228000Y-76073000D01*
X124879100Y-77685900D02*
X122682000Y-79883000D01*
X154686000Y-77089000D02*
X144907000Y-77089000D01*
X119126000Y-79883000D02*
X118999000Y-80010000D01*
X124879100Y-77685900D02*
X127393700Y-77685900D01*
X122682000Y-79883000D02*
X119126000Y-79883000D01*
%TO.N,/MCU (STM32F407ZGT6)/TEMP_B*%
X140335000Y-79502000D02*
X138176000Y-79502000D01*
X140843000Y-78295000D02*
X140843000Y-78994000D01*
D51*
X119202000Y-86862500D02*
X119202000Y-85903000D01*
D49*
X138176000Y-79502000D02*
X136144000Y-81534000D01*
D51*
X119202000Y-85903000D02*
X119634000Y-85471000D01*
D49*
X136144000Y-81534000D02*
X136017000Y-81534000D01*
X140843000Y-78994000D02*
X140335000Y-79502000D01*
%TO.N,Net-(D5-Pad2)*%
X111572000Y-77089000D02*
X111572000Y-77790000D01*
X111572000Y-77790000D02*
X111633000Y-77851000D01*
%TO.N,Net-(D6-Pad2)*%
X119253000Y-56195000D02*
X119822000Y-55626000D01*
X119253000Y-58293000D02*
X119253000Y-56195000D01*
X119126000Y-58420000D02*
X119253000Y-58293000D01*
%TO.N,/MCU (STM32F407ZGT6)/SWO*%
X111125000Y-56007000D02*
X111125000Y-49403000D01*
X118491000Y-62992000D02*
X116967000Y-61468000D01*
X120702000Y-64731486D02*
X120105514Y-64135000D01*
X120702000Y-65537500D02*
X120702000Y-64731486D01*
X118491000Y-63046002D02*
X118491000Y-62992000D01*
X116586000Y-61468000D02*
X111125000Y-56007000D01*
X119579998Y-64135000D02*
X118491000Y-63046002D01*
X120105514Y-64135000D02*
X119579998Y-64135000D01*
X116967000Y-61468000D02*
X116586000Y-61468000D01*
%TO.N,SWDIO*%
X116205000Y-49403000D02*
X116205000Y-59944000D01*
X116205000Y-59944000D02*
X119126000Y-62865000D01*
%TO.N,SWCLK*%
X121285000Y-53467000D02*
X122809000Y-54991000D01*
X121285000Y-49403000D02*
X121285000Y-53467000D01*
X132820918Y-65537500D02*
X133463709Y-66180291D01*
D51*
%TO.N,/Motor Driver A (DRV8301)/H1_LOW*%
X150562000Y-67576000D02*
X152642000Y-67576000D01*
X152642000Y-67576000D02*
X152781000Y-67437000D01*
D50*
%TO.N,Net-(Q3-Pad1)*%
X158138500Y-71303000D02*
X161925000Y-71303000D01*
%TO.N,Net-(Q8-Pad1)*%
X158138500Y-91257000D02*
X161925000Y-91257000D01*
D49*
%TO.N,/Motor Driver B (DRV8301)/H1_LOW*%
X154420000Y-89928000D02*
X154432000Y-89916000D01*
X150562000Y-89928000D02*
X154420000Y-89928000D01*
D50*
%TO.N,Net-(Q9-Pad1)*%
X158138500Y-101219000D02*
X161925000Y-101219000D01*
D49*
%TO.N,/AN_IN*%
X147104600Y-53492400D02*
X144690600Y-53492400D01*
X120142000Y-54356000D02*
X118363000Y-54356000D01*
X114604800Y-73456800D02*
X114111600Y-73950000D01*
X114111600Y-73950000D02*
X113289500Y-73950000D01*
X118363000Y-54356000D02*
X118236000Y-54483000D01*
D52*
%TO.N,/MCU (STM32F407ZGT6)/USB_D-*%
X136260199Y-69925001D02*
X134639499Y-69925001D01*
X137131001Y-69054199D02*
X137131001Y-68862999D01*
X137131001Y-68862999D02*
X137414000Y-68580000D01*
X136260199Y-69925001D02*
X137131001Y-69054199D01*
%TO.N,/MCU (STM32F407ZGT6)/USB_D+*%
X134639499Y-69474999D02*
X134614500Y-69450000D01*
X136680999Y-68862999D02*
X136398000Y-68580000D01*
X136073801Y-69474999D02*
X134639499Y-69474999D01*
X136073801Y-69474999D02*
X136680999Y-68867801D01*
D49*
X135699000Y-55626000D02*
X136906000Y-55626000D01*
D52*
X136680999Y-68867801D02*
X136680999Y-68862999D01*
D49*
%TO.N,/MCU (STM32F407ZGT6)/LED*%
X118702000Y-64178000D02*
X118745000Y-64135000D01*
X118702000Y-65537500D02*
X118702000Y-64178000D01*
%TO.N,/MCU (STM32F407ZGT6)/GPIO1*%
X114369998Y-83950000D02*
X114626998Y-83693000D01*
X114626998Y-83693000D02*
X114808000Y-83693000D01*
X113289500Y-83950000D02*
X114369998Y-83950000D01*
%TO.N,/MCU (STM32F407ZGT6)/GPIO2*%
X113289500Y-84450000D02*
X114549000Y-84450000D01*
%TO.N,/Motor Driver A (DRV8301)/VSENSE*%
X144614000Y-62103000D02*
X144653000Y-62103000D01*
X141710291Y-62576000D02*
X140652000Y-61517709D01*
X143062000Y-62576000D02*
X144141000Y-62576000D01*
X144141000Y-62576000D02*
X144614000Y-62103000D01*
X143062000Y-62576000D02*
X141710291Y-62576000D01*
X140652000Y-61517709D02*
X140652000Y-61087000D01*
%TO.N,/Motor Driver A (DRV8301)/NFAULT*%
X141990000Y-64076000D02*
X140652000Y-62738000D01*
X143062000Y-64076000D02*
X141990000Y-64076000D01*
%TO.N,/Motor Driver A (DRV8301)/DTC*%
X143062000Y-64576000D02*
X140966000Y-64576000D01*
X140966000Y-64576000D02*
X140652000Y-64262000D01*
%TO.N,Net-(R4-Pad2)*%
X142856000Y-61576000D02*
X141478000Y-60198000D01*
X141478000Y-60198000D02*
X140716000Y-59436000D01*
X143062000Y-61576000D02*
X142856000Y-61576000D01*
X140716000Y-59436000D02*
X140652000Y-59436000D01*
D53*
%TO.N,/MCU (STM32F407ZGT6)/SENS1_A*%
X113289500Y-74450000D02*
X114526000Y-74450000D01*
X114526000Y-74450000D02*
X114554000Y-74422000D01*
D49*
%TO.N,/MCU (STM32F407ZGT6)/SENS2_A*%
X115947000Y-75950000D02*
X116713000Y-75184000D01*
X113289500Y-75950000D02*
X115947000Y-75950000D01*
%TO.N,/MCU (STM32F407ZGT6)/SENS3_A*%
X113312500Y-76473000D02*
X117075000Y-76473000D01*
X113289500Y-76450000D02*
X113312500Y-76473000D01*
X117075000Y-76473000D02*
X118364000Y-75184000D01*
D51*
%TO.N,/Motor Driver A (DRV8301)/M_L1*%
X150562000Y-67076000D02*
X152085529Y-67076000D01*
X153762000Y-65399529D02*
X153762000Y-63662000D01*
X152085529Y-67076000D02*
X153762000Y-65399529D01*
D49*
%TO.N,/Motor Driver A (DRV8301)/M_H2*%
X155020000Y-62738000D02*
X155020000Y-66014002D01*
X152458002Y-68576000D02*
X150562000Y-68576000D01*
X155020000Y-66014002D02*
X152458002Y-68576000D01*
%TO.N,/Motor Driver A (DRV8301)/M_L2*%
X153396000Y-69576000D02*
X153517600Y-69697600D01*
X151962800Y-69576000D02*
X153396000Y-69576000D01*
X150562000Y-69576000D02*
X151962800Y-69576000D01*
%TO.N,/Motor Driver A (DRV8301)/M_H3*%
X150562000Y-71076000D02*
X156086500Y-71076000D01*
X156086500Y-71076000D02*
X156313500Y-71303000D01*
%TO.N,/Motor Driver A (DRV8301)/M_L3*%
X150562000Y-72076000D02*
X154624646Y-72076000D01*
X154624646Y-72076000D02*
X154837723Y-72289077D01*
%TO.N,Net-(R20-Pad2)*%
X142371000Y-83951000D02*
X143256000Y-83951000D01*
X142411000Y-83928000D02*
X143062000Y-83928000D01*
X140906000Y-82423000D02*
X142411000Y-83928000D01*
%TO.N,/Motor Driver B (DRV8301)/VSENSE*%
X143062000Y-84928000D02*
X141703000Y-84928000D01*
X143062000Y-84928000D02*
X144237000Y-84928000D01*
X144237000Y-84928000D02*
X144272000Y-84963000D01*
X141703000Y-84928000D02*
X140906000Y-85725000D01*
%TO.N,/Motor Driver B (DRV8301)/NFAULT*%
X143062000Y-86428000D02*
X142104800Y-86428000D01*
%TO.N,/Motor Driver B (DRV8301)/DTC*%
X143062000Y-86928000D02*
X141962748Y-86928000D01*
X143062000Y-86928000D02*
X141893600Y-86928000D01*
%TO.N,/MCU (STM32F407ZGT6)/SENS1_B*%
X113289500Y-77950000D02*
X118138000Y-77950000D01*
X118138000Y-77950000D02*
X119507000Y-76581000D01*
X119507000Y-76581000D02*
X123317000Y-76581000D01*
%TO.N,/MCU (STM32F407ZGT6)/SENS2_B*%
X118624793Y-78105000D02*
X121793000Y-78105000D01*
X114327420Y-79950000D02*
X114356420Y-79979000D01*
X116750793Y-79979000D02*
X118624793Y-78105000D01*
X113289500Y-79950000D02*
X114327420Y-79950000D01*
X114356420Y-79979000D02*
X116750793Y-79979000D01*
%TO.N,/MCU (STM32F407ZGT6)/SENS3_B*%
X113289500Y-80450000D02*
X116781000Y-80450000D01*
X116781000Y-80450000D02*
X117289000Y-80450000D01*
X117289000Y-80450000D02*
X118237000Y-79502000D01*
%TO.N,/Motor Driver B (DRV8301)/M_H1*%
X151475000Y-88428000D02*
X152019000Y-87884000D01*
X150562000Y-88428000D02*
X151475000Y-88428000D01*
X152019000Y-87884000D02*
X152019000Y-86106000D01*
%TO.N,/Motor Driver B (DRV8301)/M_L1*%
X153015000Y-89428000D02*
X155448000Y-86995000D01*
X150562000Y-89428000D02*
X153015000Y-89428000D01*
%TO.N,/Motor Driver B (DRV8301)/M_H2*%
X155984500Y-90928000D02*
X150562000Y-90928000D01*
X156313500Y-91257000D02*
X155984500Y-90928000D01*
%TO.N,/Motor Driver B (DRV8301)/M_L2*%
X150562000Y-91928000D02*
X151999000Y-91928000D01*
X151999000Y-91928000D02*
X152400000Y-92329000D01*
%TO.N,/Motor Driver B (DRV8301)/M_H3*%
X155883000Y-93145000D02*
X156313500Y-93575500D01*
X151979657Y-93428000D02*
X152262657Y-93145000D01*
X152262657Y-93145000D02*
X155883000Y-93145000D01*
X150562000Y-93428000D02*
X151979657Y-93428000D01*
X156313500Y-93575500D02*
X156313500Y-101219000D01*
%TO.N,/Motor Driver B (DRV8301)/M_L3*%
X155702000Y-94234000D02*
X155067000Y-93599000D01*
X152450709Y-93599000D02*
X152654000Y-93599000D01*
X152171355Y-93878355D02*
X152363709Y-93686000D01*
X150562000Y-94428000D02*
X151621709Y-94428000D01*
X152171355Y-93878355D02*
X152450709Y-93599000D01*
X155067000Y-93599000D02*
X152654000Y-93599000D01*
X155154000Y-93686000D02*
X155702000Y-94234000D01*
X151621709Y-94428000D02*
X152171355Y-93878355D01*
%TO.N,/MCU (STM32F407ZGT6)/BR_SO1_A*%
X140546000Y-73576000D02*
X138430000Y-75692000D01*
D53*
X117862380Y-76950000D02*
X119882380Y-74930000D01*
X127711200Y-74930000D02*
X128219200Y-74422000D01*
D49*
X137668000Y-76454000D02*
X137668000Y-76581000D01*
D53*
X113289500Y-76950000D02*
X117862380Y-76950000D01*
D49*
X143062000Y-73576000D02*
X140546000Y-73576000D01*
X138430000Y-75692000D02*
X137668000Y-76454000D01*
D53*
X119882380Y-74930000D02*
X127711200Y-74930000D01*
D49*
%TO.N,/MCU (STM32F407ZGT6)/BR_SO2_A*%
X140084526Y-74679526D02*
X138430000Y-76334052D01*
D53*
X117998776Y-77450000D02*
X119502776Y-75946000D01*
X119502776Y-75946000D02*
X125349000Y-75946000D01*
X125349000Y-75946000D02*
X127812800Y-75946000D01*
D49*
X143062000Y-74076000D02*
X140688052Y-74076000D01*
X140688052Y-74076000D02*
X140084526Y-74679526D01*
D53*
X113289500Y-77450000D02*
X116947000Y-77450000D01*
X127812800Y-75946000D02*
X128066800Y-75692000D01*
D49*
X138430000Y-76334052D02*
X138430000Y-76962000D01*
D53*
X116947000Y-77450000D02*
X117998776Y-77450000D01*
%TO.N,/MCU (STM32F407ZGT6)/NRF_CSN*%
X115202000Y-86862500D02*
X115185683Y-86862500D01*
X115870000Y-99097000D02*
X113796500Y-97023500D01*
X113157000Y-96393000D02*
X113787500Y-97023500D01*
X115185683Y-86862500D02*
X113157000Y-88891183D01*
X113787500Y-97023500D02*
X113796500Y-97023500D01*
X113157000Y-88891183D02*
X113157000Y-96393000D01*
%TO.N,/MCU (STM32F407ZGT6)/NRF_CE*%
X114681000Y-91422817D02*
X116677000Y-89426817D01*
X116677000Y-86741000D02*
X116702000Y-86766000D01*
X117045000Y-97732000D02*
X115383299Y-97732000D01*
X115383299Y-97732000D02*
X114681000Y-97029701D01*
X114681000Y-97029701D02*
X114681000Y-91422817D01*
X116677000Y-89426817D02*
X116677000Y-86741000D01*
X116702000Y-86766000D02*
X116702000Y-86862500D01*
X118410000Y-99097000D02*
X117045000Y-97732000D01*
%TO.N,/MCU (STM32F407ZGT6)/NRF_SCK*%
X117221000Y-95368000D02*
X117221000Y-86881500D01*
X118410000Y-96557000D02*
X117221000Y-95368000D01*
X117221000Y-86881500D02*
X117202000Y-86862500D01*
%TO.N,/MCU (STM32F407ZGT6)/NRF_MISO*%
X117677000Y-86887500D02*
X117702000Y-86862500D01*
X117677000Y-93284000D02*
X117677000Y-86887500D01*
X118410000Y-94017000D02*
X117677000Y-93284000D01*
%TO.N,/MCU (STM32F407ZGT6)/NRF_MOSI*%
X115870000Y-96557000D02*
X116748299Y-96557000D01*
X118930000Y-97732000D02*
X119634000Y-97028000D01*
X118202000Y-87832000D02*
X118202000Y-86862500D01*
X116748299Y-96557000D02*
X117923299Y-97732000D01*
X119634000Y-97028000D02*
X119634000Y-89264000D01*
X119634000Y-89264000D02*
X118202000Y-87832000D01*
X117923299Y-97732000D02*
X118930000Y-97732000D01*
D51*
%TO.N,/MCU (STM32F407ZGT6)/L3_B*%
X123601073Y-90454073D02*
X122966073Y-90454073D01*
X132221853Y-93928000D02*
X128747926Y-90454073D01*
X122712073Y-90454073D02*
X123601073Y-90454073D01*
X143062000Y-93928000D02*
X132221853Y-93928000D01*
X120202000Y-86862500D02*
X120202000Y-87944000D01*
X120202000Y-87944000D02*
X122712073Y-90454073D01*
X128747926Y-90454073D02*
X123601073Y-90454073D01*
%TO.N,/MCU (STM32F407ZGT6)/H3_B*%
X131997927Y-94428000D02*
X142240000Y-94428000D01*
X119702000Y-88151106D02*
X122504967Y-90954073D01*
X128524000Y-90954073D02*
X131997927Y-94428000D01*
X119702000Y-86862500D02*
X119702000Y-88151106D01*
X122504967Y-90954073D02*
X128524000Y-90954073D01*
%TO.N,/MCU (STM32F407ZGT6)/L2_B*%
X143062000Y-93428000D02*
X132428959Y-93428000D01*
X126702000Y-87701041D02*
X126702000Y-86862500D01*
X132428959Y-93428000D02*
X126702000Y-87701041D01*
%TO.N,/MCU (STM32F407ZGT6)/H2_B*%
X133928959Y-92928000D02*
X128702000Y-87701041D01*
X128702000Y-87701041D02*
X128702000Y-86862500D01*
X143062000Y-92928000D02*
X133928959Y-92928000D01*
%TO.N,/MCU (STM32F407ZGT6)/L1_B*%
X129702000Y-87908147D02*
X129702000Y-86862500D01*
X134221853Y-92428000D02*
X129702000Y-87908147D01*
X143062000Y-92428000D02*
X134221853Y-92428000D01*
%TO.N,/MCU (STM32F407ZGT6)/H1_B*%
X130202000Y-87701041D02*
X130202000Y-86862500D01*
X143062000Y-91928000D02*
X134428959Y-91928000D01*
X134428959Y-91928000D02*
X130202000Y-87701041D01*
D49*
%TO.N,/MCU (STM32F407ZGT6)/SCK_B*%
X131202000Y-86862500D02*
X131202000Y-85714000D01*
X131202000Y-85714000D02*
X131445000Y-85471000D01*
X143062000Y-88928000D02*
X140363000Y-88928000D01*
%TO.N,/MCU (STM32F407ZGT6)/CS_B*%
X139718200Y-87445000D02*
X138379200Y-86106000D01*
X135916052Y-82950000D02*
X134614500Y-82950000D01*
X138379200Y-86106000D02*
X138379200Y-85547200D01*
X138379200Y-85547200D02*
X138379200Y-85413148D01*
X138379200Y-85413148D02*
X135916052Y-82950000D01*
X143045000Y-87445000D02*
X139718200Y-87445000D01*
X143062000Y-87428000D02*
X143045000Y-87445000D01*
%TO.N,/MCU (STM32F407ZGT6)/MISO_B*%
X137457747Y-85895747D02*
X137457747Y-86468653D01*
X139417095Y-88428000D02*
X143062000Y-88428000D01*
X137457747Y-86468653D02*
X139463094Y-88474000D01*
X135512000Y-83950000D02*
X137457747Y-85895747D01*
X134614500Y-83950000D02*
X135512000Y-83950000D01*
%TO.N,/MCU (STM32F407ZGT6)/MOSI_B*%
X135774000Y-83450000D02*
X134614500Y-83450000D01*
X137922000Y-85598000D02*
X135774000Y-83450000D01*
X137922000Y-86290852D02*
X137922000Y-85598000D01*
X139559148Y-87928000D02*
X137922000Y-86290852D01*
X143062000Y-87928000D02*
X139559148Y-87928000D01*
%TO.N,/MCU (STM32F407ZGT6)/L3_A*%
X140952366Y-72076000D02*
X137065000Y-75963366D01*
X137065000Y-78899000D02*
X137022156Y-78899000D01*
X135839000Y-80950000D02*
X134614500Y-80950000D01*
X137065000Y-75963366D02*
X137065000Y-78899000D01*
X143062000Y-72076000D02*
X140952366Y-72076000D01*
X136398000Y-79523156D02*
X136398000Y-80391000D01*
X136398000Y-80391000D02*
X135839000Y-80950000D01*
X137022156Y-78899000D02*
X136398000Y-79523156D01*
%TO.N,/MCU (STM32F407ZGT6)/H3_A*%
X140810314Y-71576000D02*
X143062000Y-71576000D01*
X136598001Y-75788313D02*
X140810314Y-71576000D01*
X135890000Y-80010000D02*
X135890000Y-79502000D01*
X135450000Y-80450000D02*
X135890000Y-80010000D01*
X136598001Y-77142999D02*
X136598001Y-75788313D01*
X135875104Y-79404000D02*
X136598001Y-78681103D01*
X135875104Y-79487104D02*
X135875104Y-79404000D01*
X136598001Y-78681103D02*
X136598001Y-77142999D01*
X135890000Y-79502000D02*
X135875104Y-79487104D01*
X134614500Y-80450000D02*
X135450000Y-80450000D01*
%TO.N,/MCU (STM32F407ZGT6)/L2_A*%
X137376261Y-74368000D02*
X136144000Y-74368000D01*
X143062000Y-71076000D02*
X140668261Y-71076000D01*
X135687052Y-78950000D02*
X134614500Y-78950000D01*
X136144001Y-78493051D02*
X135687052Y-78950000D01*
X136144000Y-74368000D02*
X136144001Y-78493051D01*
X140668261Y-71076000D02*
X137376261Y-74368000D01*
%TO.N,/MCU (STM32F407ZGT6)/H2_A*%
X143062000Y-70576000D02*
X140526209Y-70576000D01*
X135545000Y-78450000D02*
X134614500Y-78450000D01*
X135763000Y-73914000D02*
X135679000Y-73998000D01*
X135679000Y-78316000D02*
X135545000Y-78450000D01*
X140526209Y-70576000D02*
X137188209Y-73914000D01*
X135679000Y-73998000D02*
X135679000Y-78316000D01*
X137188209Y-73914000D02*
X135763000Y-73914000D01*
%TO.N,/MCU (STM32F407ZGT6)/DC_CAL_B*%
X130352800Y-84124800D02*
X133350000Y-84124800D01*
X133350000Y-84124800D02*
X133675200Y-84450000D01*
X133675200Y-84450000D02*
X134614500Y-84450000D01*
%TO.N,/MCU (STM32F407ZGT6)/EN_GATE_A*%
X140100053Y-69076000D02*
X136726053Y-72450000D01*
X141080791Y-69076000D02*
X140100053Y-69076000D01*
X136726053Y-72450000D02*
X134614500Y-72450000D01*
X143062000Y-69076000D02*
X141080791Y-69076000D01*
%TO.N,/MCU (STM32F407ZGT6)/DC_CAL_A*%
X135695000Y-71950000D02*
X134614500Y-71950000D01*
X139734002Y-67076000D02*
X135695000Y-71115002D01*
X143062000Y-67076000D02*
X139734002Y-67076000D01*
X135695000Y-71115002D02*
X135695000Y-71950000D01*
%TO.N,/MCU (STM32F407ZGT6)/L1_A*%
X140384157Y-70076000D02*
X137010157Y-73450000D01*
X137010157Y-73450000D02*
X134614500Y-73450000D01*
X143062000Y-70076000D02*
X140384157Y-70076000D01*
%TO.N,/MCU (STM32F407ZGT6)/H1_A*%
X136867183Y-72950922D02*
X134615422Y-72950922D01*
X143062000Y-69576000D02*
X140242105Y-69576000D01*
X134615422Y-72950922D02*
X134614500Y-72950000D01*
X140242105Y-69576000D02*
X136867183Y-72950922D01*
%TO.N,/MCU (STM32F407ZGT6)/CS_A*%
X135965843Y-66860000D02*
X136288843Y-67183000D01*
X136288843Y-67183000D02*
X137414000Y-67183000D01*
X132202000Y-66416000D02*
X132646000Y-66860000D01*
X132202000Y-66416000D02*
X132588000Y-66802000D01*
X143062000Y-65076000D02*
X137847000Y-65076000D01*
X132646000Y-66860000D02*
X135965843Y-66860000D01*
X137847000Y-65076000D02*
X137668000Y-64897000D01*
X132202000Y-65537500D02*
X132202000Y-66416000D01*
%TO.N,/MCU (STM32F407ZGT6)/SCK_A*%
X143062000Y-66576000D02*
X136323896Y-66576000D01*
X131702000Y-64535486D02*
X131702000Y-65537500D01*
X134136896Y-64389000D02*
X131848486Y-64389000D01*
X131848486Y-64389000D02*
X131702000Y-64535486D01*
X136323896Y-66576000D02*
X134136896Y-64389000D01*
%TO.N,/MCU (STM32F407ZGT6)/MISO_A*%
X131202000Y-64393434D02*
X131660434Y-63935000D01*
X131660434Y-63935000D02*
X134324948Y-63935000D01*
X131202000Y-65537500D02*
X131202000Y-64393434D01*
X134324948Y-63935000D02*
X136465948Y-66076000D01*
X136465948Y-66076000D02*
X143062000Y-66076000D01*
%TO.N,/MCU (STM32F407ZGT6)/MOSI_A*%
X143062000Y-65576000D02*
X136608000Y-65576000D01*
X136608000Y-65576000D02*
X134513000Y-63481000D01*
X131464000Y-63481000D02*
X130702000Y-64243000D01*
X130702000Y-64243000D02*
X130702000Y-65537500D01*
X134513000Y-63481000D02*
X131464000Y-63481000D01*
%TD*%
%TA.AperFunction,Conductor*%
%TO.N,/Motor Driver B (DRV8301)/H3_VS*%
G36*
X178435000Y-102362000D02*
G01*
X177038000Y-102362000D01*
X176942750Y-102235000D01*
X178562000Y-102235000D01*
X178435000Y-102362000D01*
G37*
%TD.AperFunction*%
%TA.AperFunction,Conductor*%
G36*
X176784000Y-102023334D02*
G01*
X176775259Y-102011679D01*
X176775259Y-102011678D01*
X176682200Y-101887600D01*
X176657329Y-101821102D01*
X176657000Y-101812000D01*
X176657000Y-99695000D01*
X168275000Y-99695000D01*
X168275000Y-102235000D01*
X166116000Y-102235000D01*
X166116000Y-99598346D01*
X166129817Y-99540980D01*
X167223903Y-97401434D01*
X167272726Y-97349889D01*
X167336086Y-97332800D01*
X176784000Y-97332800D01*
X176784000Y-102023334D01*
G37*
%TD.AperFunction*%
%TD*%
%TA.AperFunction,Conductor*%
%TO.N,/Motor Driver B (DRV8301)/H3_VS*%
G36*
X184277000Y-103124000D02*
G01*
X188315147Y-103124000D01*
X188387097Y-103289081D01*
X188552602Y-103570614D01*
X188554903Y-103573629D01*
X188569163Y-103592314D01*
X188594590Y-103658601D01*
X188595000Y-103668756D01*
X188595000Y-104268000D01*
X188574998Y-104336121D01*
X188521342Y-104382614D01*
X188469000Y-104394000D01*
X177800000Y-104394000D01*
X178943000Y-102870000D01*
X182880000Y-102870000D01*
X183478095Y-102271905D01*
X183540407Y-102237879D01*
X183567190Y-102235000D01*
X184277000Y-102235000D01*
X184277000Y-103124000D01*
G37*
%TD.AperFunction*%
%TD*%
%TA.AperFunction,Conductor*%
%TO.N,+5V*%
G36*
X129101121Y-48788002D02*
G01*
X129147614Y-48841658D01*
X129159000Y-48894000D01*
X129159000Y-49985810D01*
X129138998Y-50053931D01*
X129122095Y-50074905D01*
X128397000Y-50800000D01*
X128397000Y-54103000D01*
X128376998Y-54171121D01*
X128323342Y-54217614D01*
X128271000Y-54229000D01*
X126491000Y-54229000D01*
X126422879Y-54208998D01*
X126376386Y-54155342D01*
X126365000Y-54103000D01*
X126365000Y-49455190D01*
X126385002Y-49387069D01*
X126401905Y-49366095D01*
X126963095Y-48804905D01*
X127025407Y-48770879D01*
X127052190Y-48768000D01*
X129033000Y-48768000D01*
X129101121Y-48788002D01*
G37*
%TD.AperFunction*%
%TD*%
%TA.AperFunction,Conductor*%
%TO.N,/Motor Driver A (DRV8301)/H2_VS*%
G36*
X169291000Y-62865000D02*
G01*
X168275000Y-62865000D01*
X168275000Y-61849000D01*
X169291000Y-62865000D01*
G37*
%TD.AperFunction*%
%TD*%
%TA.AperFunction,Conductor*%
%TO.N,/Motor Driver A (DRV8301)/H3_VS*%
G36*
X178816000Y-70040500D02*
G01*
X178826348Y-70056021D01*
X178826348Y-70056023D01*
X178829913Y-70061370D01*
X178858333Y-70104000D01*
X178943000Y-70231000D01*
X178943000Y-70808455D01*
X178938417Y-70842127D01*
X178899960Y-70980798D01*
X178879000Y-71176928D01*
X178879000Y-71411402D01*
X178879212Y-71413975D01*
X178879212Y-71413986D01*
X178887513Y-71514946D01*
X178893678Y-71589937D01*
X178894939Y-71594956D01*
X178939204Y-71771182D01*
X178943000Y-71801878D01*
X178943000Y-72136000D01*
X178435000Y-72644000D01*
X177038000Y-72644000D01*
X176775259Y-72293679D01*
X176775259Y-72293678D01*
X176746200Y-72254933D01*
X176721329Y-72188435D01*
X176721000Y-72179333D01*
X176721000Y-70254866D01*
X176714245Y-70192684D01*
X176711473Y-70185288D01*
X176711471Y-70185282D01*
X176665018Y-70061370D01*
X176657000Y-70017141D01*
X176657000Y-69977000D01*
X176643453Y-69977000D01*
X176638414Y-69975904D01*
X176578241Y-69943048D01*
X176575761Y-69939739D01*
X176459205Y-69852385D01*
X176322816Y-69801255D01*
X176260634Y-69794500D01*
X174259366Y-69794500D01*
X174197184Y-69801255D01*
X174060795Y-69852385D01*
X173944239Y-69939739D01*
X173942788Y-69941675D01*
X173883370Y-69974121D01*
X173856587Y-69977000D01*
X168275000Y-69977000D01*
X168275000Y-72517000D01*
X166211498Y-72517000D01*
X166195252Y-72505974D01*
X166158299Y-72488534D01*
X166120668Y-72428331D01*
X166116000Y-72394353D01*
X166116000Y-69879745D01*
X166129302Y-69823396D01*
X167224175Y-67633651D01*
X167272530Y-67581667D01*
X167336873Y-67564000D01*
X177165000Y-67564000D01*
X178816000Y-70040500D01*
G37*
%TD.AperFunction*%
%TD*%
%TA.AperFunction,Conductor*%
%TO.N,/Motor Driver A (DRV8301)/H1_VS*%
G36*
X184150000Y-53594000D02*
G01*
X188620400Y-53594000D01*
X188620400Y-54839600D01*
X188600398Y-54907721D01*
X188546742Y-54954214D01*
X188494400Y-54965600D01*
X177673000Y-54965600D01*
X178816000Y-53086000D01*
X182753000Y-53086000D01*
X183351095Y-52487905D01*
X183413407Y-52453879D01*
X183440190Y-52451000D01*
X184150000Y-52451000D01*
X184150000Y-53594000D01*
G37*
%TD.AperFunction*%
%TD*%
%TA.AperFunction,Conductor*%
%TO.N,/Motor Driver B (DRV8301)/H2_VS*%
G36*
X178435000Y-92329000D02*
G01*
X177038000Y-92329000D01*
X176942750Y-92202000D01*
X178562000Y-92202000D01*
X178435000Y-92329000D01*
G37*
%TD.AperFunction*%
%TA.AperFunction,Conductor*%
G36*
X176657000Y-89662000D02*
G01*
X168275000Y-89662000D01*
X168275000Y-92202000D01*
X166116000Y-92202000D01*
X166116000Y-89568007D01*
X166132181Y-89506234D01*
X167222872Y-87567227D01*
X167273703Y-87517661D01*
X167332691Y-87503000D01*
X176657000Y-87503000D01*
X176657000Y-89662000D01*
G37*
%TD.AperFunction*%
%TD*%
%TA.AperFunction,Conductor*%
%TO.N,/Motor Driver B (DRV8301)/H3_VS*%
G36*
X188537121Y-97302002D02*
G01*
X188583614Y-97355658D01*
X188595000Y-97408000D01*
X188595000Y-100444675D01*
X188576260Y-100510791D01*
X188413426Y-100774957D01*
X188276702Y-101071536D01*
X188176597Y-101382392D01*
X188175879Y-101386103D01*
X188175878Y-101386107D01*
X188115282Y-101699305D01*
X188115281Y-101699314D01*
X188114563Y-101703024D01*
X188114296Y-101706800D01*
X188114295Y-101706805D01*
X188111684Y-101743683D01*
X188091498Y-102028785D01*
X188107736Y-102354959D01*
X188108377Y-102358690D01*
X188108378Y-102358698D01*
X188152927Y-102617958D01*
X188163041Y-102676819D01*
X188164129Y-102680458D01*
X188164130Y-102680461D01*
X188177750Y-102726001D01*
X188256614Y-102989704D01*
X188258127Y-102993175D01*
X188258129Y-102993181D01*
X188315146Y-103124000D01*
X184277000Y-103124000D01*
X184277000Y-100076000D01*
X183261000Y-99060000D01*
X179832000Y-99060000D01*
X178943000Y-99822000D01*
X178943000Y-100409464D01*
X178931288Y-100462514D01*
X178837163Y-100665290D01*
X178772960Y-100896798D01*
X178772411Y-100901935D01*
X178753901Y-101075141D01*
X178752000Y-101092928D01*
X178752000Y-101327402D01*
X178752212Y-101329975D01*
X178752212Y-101329986D01*
X178756225Y-101378794D01*
X178766678Y-101505937D01*
X178825206Y-101738944D01*
X178921003Y-101959263D01*
X178923809Y-101963600D01*
X178926254Y-101968160D01*
X178924827Y-101968925D01*
X178943000Y-102030468D01*
X178943000Y-102235000D01*
X176784000Y-102235000D01*
X176784000Y-97408000D01*
X176804002Y-97339879D01*
X176857658Y-97293386D01*
X176910000Y-97282000D01*
X188469000Y-97282000D01*
X188537121Y-97302002D01*
G37*
%TD.AperFunction*%
%TD*%
%TA.AperFunction,Conductor*%
%TO.N,/Motor Driver A (DRV8301)/H2_VS*%
G36*
X184150000Y-63246000D02*
G01*
X188620400Y-63246000D01*
X188620400Y-62385172D01*
X188659814Y-62430658D01*
X188671200Y-62483000D01*
X188671200Y-64898000D01*
X188651198Y-64966121D01*
X188597542Y-65012614D01*
X188545200Y-65024000D01*
X177673000Y-65024000D01*
X178816000Y-62992000D01*
X182753000Y-62992000D01*
X183351095Y-62393905D01*
X183413407Y-62359879D01*
X183440190Y-62357000D01*
X184150000Y-62357000D01*
X184150000Y-63246000D01*
G37*
%TD.AperFunction*%
%TD*%
%TA.AperFunction,Conductor*%
%TO.N,/Motor Driver B (DRV8301)/H2_VS*%
G36*
X168275000Y-90381667D02*
G01*
X168283741Y-90393321D01*
X168283741Y-90393322D01*
X168376800Y-90517400D01*
X168401671Y-90583898D01*
X168402000Y-90593000D01*
X168402000Y-92710000D01*
X173957328Y-92710000D01*
X174001557Y-92718018D01*
X174062789Y-92740973D01*
X174062791Y-92740973D01*
X174070184Y-92743745D01*
X174078032Y-92744598D01*
X174078034Y-92744598D01*
X174118567Y-92749001D01*
X174132366Y-92750500D01*
X176133634Y-92750500D01*
X176147433Y-92749001D01*
X176187966Y-92744598D01*
X176187968Y-92744598D01*
X176195816Y-92743745D01*
X176203209Y-92740973D01*
X176203211Y-92740973D01*
X176264443Y-92718018D01*
X176308672Y-92710000D01*
X176784000Y-92710000D01*
X176784000Y-92202000D01*
X178816000Y-92202000D01*
X178816000Y-91725294D01*
X178825206Y-91761944D01*
X178921003Y-91982263D01*
X178923809Y-91986600D01*
X178926254Y-91991160D01*
X178924827Y-91991925D01*
X178943000Y-92053468D01*
X178943000Y-92837000D01*
X177800000Y-94615000D01*
X167953462Y-94615000D01*
X167885341Y-94594998D01*
X167856199Y-94569099D01*
X166589641Y-93031135D01*
X166144737Y-92490895D01*
X166116872Y-92425595D01*
X166116000Y-92410796D01*
X166116000Y-90551000D01*
X166624000Y-90043000D01*
X168021000Y-90043000D01*
X168275000Y-90381667D01*
G37*
%TD.AperFunction*%
%TD*%
%TA.AperFunction,Conductor*%
%TO.N,/Motor Driver B (DRV8301)/H3_VS*%
G36*
X168275000Y-100414667D02*
G01*
X168283741Y-100426321D01*
X168283741Y-100426322D01*
X168376800Y-100550400D01*
X168401671Y-100616898D01*
X168402000Y-100626000D01*
X168402000Y-102743000D01*
X176784000Y-102743000D01*
X176784000Y-102235000D01*
X178943000Y-102235000D01*
X178943000Y-102870000D01*
X177800000Y-104394000D01*
X167948754Y-104394000D01*
X167880633Y-104373998D01*
X167856641Y-104353972D01*
X166659760Y-103071600D01*
X166149886Y-102525307D01*
X166118030Y-102461860D01*
X166116000Y-102439336D01*
X166116000Y-100584000D01*
X166624000Y-100076000D01*
X168021000Y-100076000D01*
X168275000Y-100414667D01*
G37*
%TD.AperFunction*%
%TD*%
%TA.AperFunction,Conductor*%
%TO.N,GND*%
G36*
X145226671Y-84348002D02*
G01*
X145247645Y-84364905D01*
X146902095Y-86019355D01*
X146936121Y-86081667D01*
X146939000Y-86108450D01*
X146939000Y-90933000D01*
X146918998Y-91001121D01*
X146865342Y-91047614D01*
X146813000Y-91059000D01*
X145033000Y-91059000D01*
X144964879Y-91038998D01*
X144918386Y-90985342D01*
X144907000Y-90933000D01*
X144907000Y-89962443D01*
X144922585Y-89901743D01*
X144927022Y-89893672D01*
X144937873Y-89877153D01*
X144950350Y-89861067D01*
X144967976Y-89820334D01*
X144973193Y-89809686D01*
X144990749Y-89777751D01*
X144994569Y-89770803D01*
X144996540Y-89763128D01*
X144996542Y-89763122D01*
X144999631Y-89751089D01*
X145006034Y-89732387D01*
X145014117Y-89713708D01*
X145021060Y-89669873D01*
X145023467Y-89658251D01*
X145034500Y-89615282D01*
X145034500Y-89594935D01*
X145036051Y-89575224D01*
X145037995Y-89562950D01*
X145039235Y-89555121D01*
X145035059Y-89510944D01*
X145034500Y-89499086D01*
X145034500Y-89098252D01*
X145055552Y-89028525D01*
X145073990Y-89000773D01*
X145077891Y-88994902D01*
X145138319Y-88835825D01*
X145162001Y-88667313D01*
X145162299Y-88646000D01*
X145143331Y-88476892D01*
X145087368Y-88316189D01*
X145083634Y-88310213D01*
X145000928Y-88177857D01*
X145000926Y-88177854D01*
X144997192Y-88171879D01*
X144943594Y-88117905D01*
X144909787Y-88055475D01*
X144907000Y-88029122D01*
X144907000Y-85416005D01*
X144928052Y-85346277D01*
X144946992Y-85317770D01*
X144950891Y-85311902D01*
X144961807Y-85283167D01*
X145008816Y-85159414D01*
X145011319Y-85152825D01*
X145035001Y-84984313D01*
X145035299Y-84963000D01*
X145016331Y-84793892D01*
X144960368Y-84633189D01*
X144954383Y-84623610D01*
X144926146Y-84578423D01*
X144907000Y-84511653D01*
X144907000Y-84454000D01*
X144927002Y-84385879D01*
X144980658Y-84339386D01*
X145033000Y-84328000D01*
X145158550Y-84328000D01*
X145226671Y-84348002D01*
G37*
%TD.AperFunction*%
%TD*%
%TA.AperFunction,Conductor*%
%TO.N,+3.3V*%
G36*
X141547121Y-76093002D02*
G01*
X141593614Y-76146658D01*
X141605000Y-76199000D01*
X141605000Y-77216000D01*
X140589000Y-77216000D01*
X140421686Y-77383314D01*
X140370270Y-77414453D01*
X140281550Y-77442256D01*
X140281548Y-77442257D01*
X140274301Y-77444528D01*
X140127619Y-77533361D01*
X140006361Y-77654619D01*
X139917528Y-77801301D01*
X139866247Y-77964938D01*
X139859500Y-78038365D01*
X139859501Y-78551634D01*
X139866247Y-78625062D01*
X139868246Y-78631440D01*
X139868246Y-78631441D01*
X139890615Y-78702821D01*
X139891899Y-78773806D01*
X139854602Y-78834217D01*
X139790565Y-78864873D01*
X139770381Y-78866500D01*
X138937000Y-78866500D01*
X138868879Y-78846498D01*
X138822386Y-78792842D01*
X138811000Y-78740500D01*
X138811000Y-77689550D01*
X138831002Y-77621429D01*
X138872483Y-77581321D01*
X138885441Y-77573597D01*
X138885447Y-77573592D01*
X138891490Y-77569990D01*
X138896584Y-77565139D01*
X138896588Y-77565136D01*
X138963833Y-77501099D01*
X139014721Y-77452639D01*
X139021620Y-77442256D01*
X139104990Y-77316773D01*
X139108891Y-77310902D01*
X139111394Y-77304313D01*
X139111396Y-77304309D01*
X139125530Y-77267103D01*
X139150436Y-77226707D01*
X140170546Y-76113859D01*
X140231321Y-76077159D01*
X140263427Y-76073000D01*
X141479000Y-76073000D01*
X141547121Y-76093002D01*
G37*
%TD.AperFunction*%
%TD*%
%TA.AperFunction,Conductor*%
%TO.N,/Motor Driver A (DRV8301)/H2_VS*%
G36*
X188562521Y-57678002D02*
G01*
X188609014Y-57731658D01*
X188620400Y-57784000D01*
X188620400Y-63246000D01*
X184150000Y-63246000D01*
X184150000Y-60198000D01*
X183134000Y-59182000D01*
X179705000Y-59182000D01*
X178842939Y-59920909D01*
X178816000Y-59944000D01*
X178816000Y-62357000D01*
X176847000Y-62357000D01*
X176778879Y-62336998D01*
X176732386Y-62283342D01*
X176721000Y-62231000D01*
X176721000Y-60419866D01*
X176714245Y-60357684D01*
X176663115Y-60221295D01*
X176659736Y-60216786D01*
X176657000Y-60210192D01*
X176657000Y-57771453D01*
X176659879Y-57758217D01*
X176664289Y-57759176D01*
X176677002Y-57715879D01*
X176730658Y-57669386D01*
X176783000Y-57658000D01*
X188494400Y-57658000D01*
X188562521Y-57678002D01*
G37*
%TD.AperFunction*%
%TD*%
%TA.AperFunction,Conductor*%
%TO.N,/Motor Driver A (DRV8301)/H2_VS*%
G36*
X178848325Y-59928987D02*
G01*
X178848327Y-59928992D01*
X179167174Y-60407261D01*
X179188318Y-60475036D01*
X179166425Y-60548156D01*
X179065314Y-60696378D01*
X179063140Y-60701061D01*
X179063138Y-60701065D01*
X178966342Y-60909595D01*
X178964163Y-60914290D01*
X178899960Y-61145798D01*
X178879000Y-61341928D01*
X178879000Y-61576402D01*
X178879212Y-61578975D01*
X178879212Y-61578986D01*
X178887513Y-61679946D01*
X178893678Y-61754937D01*
X178952206Y-61987944D01*
X179048003Y-62208263D01*
X179050807Y-62212598D01*
X179050809Y-62212601D01*
X179114009Y-62310292D01*
X179134216Y-62378352D01*
X179120136Y-62433864D01*
X178689000Y-62865000D01*
X177292000Y-62865000D01*
X176911000Y-62357000D01*
X178816000Y-62357000D01*
X178816000Y-59944000D01*
X178842940Y-59920909D01*
X178848325Y-59928987D01*
G37*
%TD.AperFunction*%
%TA.AperFunction,Conductor*%
G36*
X176657000Y-60198000D02*
G01*
X176649222Y-60198000D01*
X176630984Y-60178422D01*
X176575761Y-60104739D01*
X176459205Y-60017385D01*
X176322816Y-59966255D01*
X176260634Y-59959500D01*
X174259366Y-59959500D01*
X174197184Y-59966255D01*
X174060795Y-60017385D01*
X173944239Y-60104739D01*
X173912141Y-60147567D01*
X173855284Y-60190080D01*
X173811317Y-60198000D01*
X168529000Y-60198000D01*
X168529000Y-62738000D01*
X166377289Y-62738000D01*
X166380749Y-62735450D01*
X166375931Y-62728910D01*
X166372230Y-62731459D01*
X166370000Y-62728221D01*
X166370000Y-60100745D01*
X166383302Y-60044396D01*
X167478175Y-57854651D01*
X167526530Y-57802667D01*
X167590873Y-57785000D01*
X176657000Y-57785000D01*
X176657000Y-60198000D01*
G37*
%TD.AperFunction*%
%TD*%
%TA.AperFunction,Conductor*%
%TO.N,GND*%
G36*
X147516121Y-63520002D02*
G01*
X147562614Y-63573658D01*
X147574000Y-63626000D01*
X147574000Y-65478161D01*
X147553998Y-65546282D01*
X147535094Y-65569214D01*
X145201485Y-67801362D01*
X145138432Y-67833994D01*
X145067747Y-67827357D01*
X145011870Y-67783558D01*
X144988543Y-67716503D01*
X144996603Y-67665565D01*
X145008816Y-67633414D01*
X145011319Y-67626825D01*
X145035001Y-67458313D01*
X145035299Y-67437000D01*
X145016331Y-67267892D01*
X144960368Y-67107189D01*
X144870192Y-66962879D01*
X144750286Y-66842132D01*
X144744337Y-66838357D01*
X144744335Y-66838355D01*
X144711486Y-66817508D01*
X144664687Y-66764119D01*
X144653000Y-66711123D01*
X144653000Y-63626000D01*
X144673002Y-63557879D01*
X144726658Y-63511386D01*
X144779000Y-63500000D01*
X147448000Y-63500000D01*
X147516121Y-63520002D01*
G37*
%TD.AperFunction*%
%TD*%
%TA.AperFunction,Conductor*%
%TO.N,/Motor Driver B (DRV8301)/H1_VS*%
G36*
X168275000Y-80475667D02*
G01*
X168283741Y-80487321D01*
X168283741Y-80487322D01*
X168376800Y-80611400D01*
X168401671Y-80677898D01*
X168402000Y-80687000D01*
X168402000Y-82804000D01*
X173820281Y-82804000D01*
X173888402Y-82824002D01*
X173895846Y-82829174D01*
X173933795Y-82857615D01*
X174070184Y-82908745D01*
X174132366Y-82915500D01*
X176133634Y-82915500D01*
X176195816Y-82908745D01*
X176332205Y-82857615D01*
X176370153Y-82829174D01*
X176436661Y-82804326D01*
X176445719Y-82804000D01*
X176784000Y-82804000D01*
X176784000Y-82423000D01*
X178816000Y-82423000D01*
X178816000Y-81890294D01*
X178825206Y-81926944D01*
X178921003Y-82147263D01*
X178923809Y-82151600D01*
X178926254Y-82156160D01*
X178924827Y-82156925D01*
X178943000Y-82218468D01*
X178943000Y-82896881D01*
X178925785Y-82960457D01*
X177800000Y-84886800D01*
X167956456Y-84886800D01*
X167888335Y-84866798D01*
X167856182Y-84837096D01*
X166141726Y-82583811D01*
X166116395Y-82517487D01*
X166116000Y-82507515D01*
X166116000Y-80645000D01*
X166624000Y-80137000D01*
X168021000Y-80137000D01*
X168275000Y-80475667D01*
G37*
%TD.AperFunction*%
%TD*%
%TA.AperFunction,Conductor*%
%TO.N,/Motor Driver A (DRV8301)/H3_VS*%
G36*
X168283741Y-70327321D02*
G01*
X168283741Y-70327322D01*
X168376800Y-70451400D01*
X168401671Y-70517898D01*
X168402000Y-70527000D01*
X168402000Y-72644000D01*
X173872561Y-72644000D01*
X173940682Y-72664002D01*
X173948123Y-72669172D01*
X174060795Y-72753615D01*
X174197184Y-72804745D01*
X174259366Y-72811500D01*
X176260634Y-72811500D01*
X176322816Y-72804745D01*
X176459205Y-72753615D01*
X176571874Y-72669174D01*
X176638380Y-72644326D01*
X176647439Y-72644000D01*
X176784000Y-72644000D01*
X176784000Y-70104000D01*
X178866282Y-70104000D01*
X178888200Y-70122357D01*
X178905347Y-70131534D01*
X178939892Y-70193560D01*
X178943000Y-70221372D01*
X178943000Y-70808455D01*
X178938417Y-70842127D01*
X178899960Y-70980798D01*
X178879000Y-71176928D01*
X178879000Y-71411402D01*
X178879212Y-71413975D01*
X178879212Y-71413986D01*
X178887513Y-71514946D01*
X178893678Y-71589937D01*
X178894939Y-71594956D01*
X178939204Y-71771182D01*
X178943000Y-71801878D01*
X178943000Y-72771000D01*
X178816000Y-72771000D01*
X177704750Y-74549000D01*
X168978500Y-74549000D01*
X168910379Y-74528998D01*
X168863886Y-74475342D01*
X168852500Y-74423000D01*
X168852500Y-74275668D01*
X168851901Y-74269890D01*
X168842598Y-74180237D01*
X168841887Y-74173381D01*
X168787756Y-74011132D01*
X168697752Y-73865687D01*
X168576702Y-73744848D01*
X168499883Y-73697496D01*
X168437331Y-73658938D01*
X168437329Y-73658937D01*
X168431101Y-73655098D01*
X168268757Y-73601251D01*
X168261920Y-73600551D01*
X168261918Y-73600550D01*
X168220599Y-73596317D01*
X168167732Y-73590900D01*
X167620268Y-73590900D01*
X167617022Y-73591237D01*
X167617018Y-73591237D01*
X167582917Y-73594775D01*
X167517981Y-73601513D01*
X167511440Y-73603695D01*
X167511441Y-73603695D01*
X167362676Y-73653327D01*
X167362674Y-73653328D01*
X167355732Y-73655644D01*
X167349508Y-73659496D01*
X167349507Y-73659496D01*
X167318542Y-73678658D01*
X167250090Y-73697496D01*
X167182321Y-73676335D01*
X167154976Y-73651613D01*
X166232106Y-72530986D01*
X166116000Y-72390000D01*
X166116000Y-70485000D01*
X166624000Y-69977000D01*
X168021000Y-69977000D01*
X168283741Y-70327321D01*
G37*
%TD.AperFunction*%
%TD*%
%TA.AperFunction,Conductor*%
%TO.N,/Motor Driver A (DRV8301)/H1_VS*%
G36*
X178827119Y-50199026D02*
G01*
X178827119Y-50199028D01*
X178886656Y-50284080D01*
X179070000Y-50546000D01*
X179070000Y-50752464D01*
X179058288Y-50805514D01*
X178964163Y-51008290D01*
X178899960Y-51239798D01*
X178879000Y-51435928D01*
X178879000Y-51670402D01*
X178879212Y-51672975D01*
X178879212Y-51672986D01*
X178887513Y-51773946D01*
X178893678Y-51848937D01*
X178952206Y-52081944D01*
X179048003Y-52302263D01*
X179050809Y-52306600D01*
X179053254Y-52311160D01*
X179051827Y-52311925D01*
X179070000Y-52373468D01*
X179070000Y-52451000D01*
X178562000Y-52959000D01*
X177165000Y-52959000D01*
X176902259Y-52608679D01*
X176902259Y-52608678D01*
X176809200Y-52484600D01*
X176796633Y-52451000D01*
X178816000Y-52451000D01*
X178816000Y-50183142D01*
X178827119Y-50199026D01*
G37*
%TD.AperFunction*%
%TA.AperFunction,Conductor*%
G36*
X177304934Y-48024477D02*
G01*
X177309780Y-48031400D01*
X176784000Y-48031400D01*
X176784000Y-50292000D01*
X176708683Y-50292000D01*
X176640562Y-50271998D01*
X176607860Y-50241569D01*
X176575761Y-50198739D01*
X176459205Y-50111385D01*
X176322816Y-50060255D01*
X176260634Y-50053500D01*
X174259366Y-50053500D01*
X174197184Y-50060255D01*
X174060795Y-50111385D01*
X173944239Y-50198739D01*
X173912141Y-50241567D01*
X173855284Y-50284080D01*
X173811317Y-50292000D01*
X168402000Y-50292000D01*
X168402000Y-52832000D01*
X166333045Y-52832000D01*
X166314212Y-52818437D01*
X166283993Y-52803656D01*
X166247206Y-52742934D01*
X166243000Y-52710652D01*
X166243000Y-50196295D01*
X166257643Y-50137341D01*
X167350505Y-48073046D01*
X167400055Y-48022201D01*
X167461862Y-48006000D01*
X177242006Y-48006000D01*
X177304934Y-48024477D01*
G37*
%TD.AperFunction*%
%TD*%
%TA.AperFunction,Conductor*%
%TO.N,/Motor Driver A (DRV8301)/H3_VS*%
G36*
X188562521Y-67584002D02*
G01*
X188609014Y-67637658D01*
X188620400Y-67690000D01*
X188620400Y-72136000D01*
X184150000Y-72136000D01*
X184150000Y-69977000D01*
X183134000Y-68961000D01*
X179705000Y-68961000D01*
X178816000Y-69723000D01*
X178816000Y-72136000D01*
X176721000Y-72136000D01*
X176721000Y-70254866D01*
X176714245Y-70192684D01*
X176711473Y-70185288D01*
X176711471Y-70185282D01*
X176665018Y-70061370D01*
X176657000Y-70017141D01*
X176657000Y-67564000D01*
X188494400Y-67564000D01*
X188562521Y-67584002D01*
G37*
%TD.AperFunction*%
%TD*%
%TA.AperFunction,Conductor*%
%TO.N,/Motor Driver A (DRV8301)/H1_VS*%
G36*
X168410741Y-50642321D02*
G01*
X168410741Y-50642322D01*
X168503800Y-50766400D01*
X168528671Y-50832898D01*
X168529000Y-50842000D01*
X168529000Y-52959000D01*
X173947281Y-52959000D01*
X174015402Y-52979002D01*
X174022846Y-52984174D01*
X174060795Y-53012615D01*
X174197184Y-53063745D01*
X174259366Y-53070500D01*
X176260634Y-53070500D01*
X176322816Y-53063745D01*
X176459205Y-53012615D01*
X176497153Y-52984174D01*
X176563661Y-52959326D01*
X176572719Y-52959000D01*
X176911000Y-52959000D01*
X176911000Y-52451000D01*
X178816000Y-52451000D01*
X178816000Y-50419000D01*
X178989273Y-50419000D01*
X179010656Y-50436097D01*
X179031313Y-50446851D01*
X179066566Y-50508477D01*
X179070000Y-50537694D01*
X179070000Y-50752464D01*
X179058288Y-50805514D01*
X178964163Y-51008290D01*
X178899960Y-51239798D01*
X178879000Y-51435928D01*
X178879000Y-51670402D01*
X178879212Y-51672975D01*
X178879212Y-51672986D01*
X178887513Y-51773946D01*
X178893678Y-51848937D01*
X178952206Y-52081944D01*
X179048003Y-52302263D01*
X179050809Y-52306600D01*
X179053254Y-52311160D01*
X179051827Y-52311925D01*
X179070000Y-52373468D01*
X179070000Y-53086000D01*
X177938366Y-54972056D01*
X177910975Y-54980099D01*
X177897564Y-54987693D01*
X177868885Y-54991000D01*
X168082625Y-54991000D01*
X168014504Y-54970998D01*
X167983167Y-54942357D01*
X166352899Y-52846298D01*
X166352898Y-52846297D01*
X166341778Y-52832000D01*
X166243000Y-52705000D01*
X166243000Y-50800000D01*
X166751000Y-50292000D01*
X168148000Y-50292000D01*
X168410741Y-50642321D01*
G37*
%TD.AperFunction*%
%TD*%
%TA.AperFunction,Conductor*%
%TO.N,/Motor Driver A (DRV8301)/H3_VS*%
G36*
X169291000Y-72644000D02*
G01*
X168275000Y-72644000D01*
X168275000Y-71628000D01*
X169291000Y-72644000D01*
G37*
%TD.AperFunction*%
%TD*%
%TA.AperFunction,Conductor*%
%TO.N,/Motor Driver A (DRV8301)/H3_VS*%
G36*
X188620400Y-74473800D02*
G01*
X188600398Y-74541921D01*
X188546742Y-74588414D01*
X188494400Y-74599800D01*
X180811815Y-74599800D01*
X180743694Y-74579798D01*
X180704039Y-74539072D01*
X180672574Y-74487117D01*
X180668639Y-74480619D01*
X180547381Y-74359361D01*
X180400699Y-74270528D01*
X180393452Y-74268257D01*
X180393450Y-74268256D01*
X180327164Y-74247483D01*
X180237062Y-74219247D01*
X180163635Y-74212500D01*
X180160737Y-74212500D01*
X179831140Y-74212501D01*
X179500366Y-74212501D01*
X179497508Y-74212764D01*
X179497499Y-74212764D01*
X179461996Y-74216026D01*
X179426938Y-74219247D01*
X179420560Y-74221246D01*
X179420559Y-74221246D01*
X179270550Y-74268256D01*
X179270548Y-74268257D01*
X179263301Y-74270528D01*
X179116619Y-74359361D01*
X178995361Y-74480619D01*
X178991426Y-74487117D01*
X178959961Y-74539072D01*
X178907563Y-74586978D01*
X178852185Y-74599800D01*
X177803075Y-74599800D01*
X177734954Y-74579798D01*
X177721769Y-74570057D01*
X177702017Y-74553373D01*
X178816000Y-72771000D01*
X179971955Y-72771000D01*
X179994051Y-72772953D01*
X180196948Y-72809095D01*
X180196954Y-72809096D01*
X180202037Y-72810001D01*
X180289400Y-72811068D01*
X180437093Y-72812873D01*
X180437095Y-72812873D01*
X180442263Y-72812936D01*
X180679744Y-72776596D01*
X180684659Y-72774990D01*
X180687008Y-72774430D01*
X180716207Y-72771000D01*
X182753000Y-72771000D01*
X183351095Y-72172905D01*
X183413407Y-72138879D01*
X183440190Y-72136000D01*
X188620400Y-72136000D01*
X188620400Y-74473800D01*
G37*
%TD.AperFunction*%
%TD*%
%TA.AperFunction,Conductor*%
%TO.N,+3.3V*%
G36*
X141612514Y-76333162D02*
G01*
X142656915Y-77372163D01*
X142669943Y-77385124D01*
X142680570Y-77389807D01*
X142680571Y-77389808D01*
X142812658Y-77448019D01*
X143214007Y-77624895D01*
X143253828Y-77652666D01*
X143277455Y-77677132D01*
X143419846Y-77770310D01*
X143426450Y-77772766D01*
X143426452Y-77772767D01*
X143499593Y-77799968D01*
X143579341Y-77829626D01*
X143586324Y-77830558D01*
X143586325Y-77830558D01*
X143703893Y-77846245D01*
X143738041Y-77855838D01*
X144323813Y-78113989D01*
X144378082Y-78159764D01*
X144399000Y-78229289D01*
X144399000Y-81408000D01*
X144378998Y-81476121D01*
X144325342Y-81522614D01*
X144273000Y-81534000D01*
X142874000Y-81534000D01*
X142805879Y-81513998D01*
X142759386Y-81460342D01*
X142748000Y-81408000D01*
X142748000Y-78740000D01*
X141351000Y-77216000D01*
X140208000Y-77216000D01*
X140208000Y-76091242D01*
X140231321Y-76077159D01*
X140263427Y-76073000D01*
X141351000Y-76073000D01*
X141612514Y-76333162D01*
G37*
%TD.AperFunction*%
%TD*%
%TA.AperFunction,Conductor*%
%TO.N,/Motor Driver B (DRV8301)/H1_VS*%
G36*
X184150000Y-83439000D02*
G01*
X188620400Y-83439000D01*
X188620400Y-84760800D01*
X188600398Y-84828921D01*
X188546742Y-84875414D01*
X188494400Y-84886800D01*
X177673000Y-84886800D01*
X178816000Y-83058000D01*
X182753000Y-83058000D01*
X183351095Y-82459905D01*
X183413407Y-82425879D01*
X183440190Y-82423000D01*
X184150000Y-82423000D01*
X184150000Y-83439000D01*
G37*
%TD.AperFunction*%
%TD*%
%TA.AperFunction,Conductor*%
%TO.N,/Motor Driver B (DRV8301)/H1_VS*%
G36*
X188562521Y-77744002D02*
G01*
X188609014Y-77797658D01*
X188620400Y-77850000D01*
X188620400Y-83439000D01*
X184150000Y-83439000D01*
X184150000Y-80264000D01*
X183134000Y-79248000D01*
X179705000Y-79248000D01*
X178816000Y-80010000D01*
X178816000Y-80929601D01*
X178772960Y-81084798D01*
X178752000Y-81280928D01*
X178752000Y-81515402D01*
X178752212Y-81517975D01*
X178752212Y-81517986D01*
X178760513Y-81618946D01*
X178766678Y-81693937D01*
X178767939Y-81698956D01*
X178816000Y-81890294D01*
X178816000Y-82423000D01*
X176770453Y-82423000D01*
X176757217Y-82420121D01*
X176758176Y-82415711D01*
X176714879Y-82402998D01*
X176668386Y-82349342D01*
X176657000Y-82297000D01*
X176657000Y-77724000D01*
X188494400Y-77724000D01*
X188562521Y-77744002D01*
G37*
%TD.AperFunction*%
%TD*%
%TA.AperFunction,Conductor*%
%TO.N,/Motor Driver A (DRV8301)/H1_VS*%
G36*
X188084302Y-48051402D02*
G01*
X188130795Y-48105058D01*
X188139887Y-48181334D01*
X188115282Y-48308505D01*
X188115281Y-48308514D01*
X188114563Y-48312224D01*
X188091498Y-48637985D01*
X188107736Y-48964159D01*
X188163041Y-49286019D01*
X188256614Y-49598904D01*
X188387097Y-49898281D01*
X188552602Y-50179814D01*
X188554903Y-50182829D01*
X188594563Y-50234796D01*
X188619990Y-50301083D01*
X188620400Y-50311238D01*
X188620400Y-53594000D01*
X184150000Y-53594000D01*
X184150000Y-50292000D01*
X183134000Y-49276000D01*
X179705000Y-49276000D01*
X178816000Y-50038000D01*
X178816000Y-52451000D01*
X176796633Y-52451000D01*
X176784329Y-52418102D01*
X176784000Y-52409000D01*
X176784000Y-48031400D01*
X188016181Y-48031400D01*
X188084302Y-48051402D01*
G37*
%TD.AperFunction*%
%TD*%
%TA.AperFunction,Conductor*%
%TO.N,+3.3V*%
G36*
X144341121Y-56408002D02*
G01*
X144387614Y-56461658D01*
X144399000Y-56514000D01*
X144399000Y-59310000D01*
X144378998Y-59378121D01*
X144325342Y-59424614D01*
X144273000Y-59436000D01*
X142239000Y-59436000D01*
X142170879Y-59415998D01*
X142124386Y-59362342D01*
X142113000Y-59310000D01*
X142113000Y-58166000D01*
X138754654Y-58166000D01*
X138687140Y-58146385D01*
X138685262Y-58145193D01*
X138637608Y-58114951D01*
X138477300Y-58057868D01*
X138308329Y-58037720D01*
X138301326Y-58038456D01*
X138301325Y-58038456D01*
X138146101Y-58054770D01*
X138146097Y-58054771D01*
X138139093Y-58055507D01*
X138132422Y-58057778D01*
X137984673Y-58108075D01*
X137984670Y-58108076D01*
X137978003Y-58110346D01*
X137972005Y-58114036D01*
X137972003Y-58114037D01*
X137917906Y-58147318D01*
X137851884Y-58166000D01*
X133985000Y-58166000D01*
X131717073Y-60433927D01*
X131689803Y-60452000D01*
X127762000Y-60452000D01*
X127762000Y-57531000D01*
X128868095Y-56424905D01*
X128930407Y-56390879D01*
X128957190Y-56388000D01*
X144273000Y-56388000D01*
X144341121Y-56408002D01*
G37*
%TD.AperFunction*%
%TD*%
%TA.AperFunction,Conductor*%
%TO.N,V_SUPPLY*%
G36*
X164083742Y-47899002D02*
G01*
X164121265Y-47936331D01*
X165667277Y-50314810D01*
X165714644Y-50387683D01*
X165735000Y-50456352D01*
X165735000Y-52282000D01*
X165714998Y-52350121D01*
X165709800Y-52357600D01*
X165354000Y-52832000D01*
X163957000Y-52832000D01*
X163640000Y-52409333D01*
X163640000Y-50513866D01*
X163633245Y-50451684D01*
X163582115Y-50315295D01*
X163583410Y-50314810D01*
X163576000Y-50280933D01*
X163576000Y-50165000D01*
X163491719Y-50165000D01*
X163423598Y-50144998D01*
X163416154Y-50139826D01*
X163385392Y-50116771D01*
X163385390Y-50116770D01*
X163378205Y-50111385D01*
X163241816Y-50060255D01*
X163179634Y-50053500D01*
X161178366Y-50053500D01*
X161116184Y-50060255D01*
X160979795Y-50111385D01*
X160972610Y-50116770D01*
X160972608Y-50116771D01*
X160941846Y-50139826D01*
X160875339Y-50164674D01*
X160866281Y-50165000D01*
X155194000Y-50165000D01*
X155194000Y-52579000D01*
X155173998Y-52647121D01*
X155120342Y-52693614D01*
X155068000Y-52705000D01*
X154523224Y-52705000D01*
X154455103Y-52684998D01*
X154416371Y-52645771D01*
X154398927Y-52617856D01*
X154398926Y-52617855D01*
X154395192Y-52611879D01*
X154275286Y-52491132D01*
X154259039Y-52480821D01*
X154220406Y-52456304D01*
X154131608Y-52399951D01*
X153971300Y-52342868D01*
X153802329Y-52322720D01*
X153795326Y-52323456D01*
X153795325Y-52323456D01*
X153640101Y-52339770D01*
X153640097Y-52339771D01*
X153633093Y-52340507D01*
X153626422Y-52342778D01*
X153478673Y-52393075D01*
X153478670Y-52393076D01*
X153472003Y-52395346D01*
X153466005Y-52399036D01*
X153466003Y-52399037D01*
X153333065Y-52480821D01*
X153333063Y-52480823D01*
X153327066Y-52484512D01*
X153249158Y-52560806D01*
X153186493Y-52594177D01*
X153115734Y-52588371D01*
X153059347Y-52545232D01*
X153035234Y-52478456D01*
X153035000Y-52470783D01*
X153035000Y-50038000D01*
X154178000Y-47879000D01*
X164015621Y-47879000D01*
X164083742Y-47899002D01*
G37*
%TD.AperFunction*%
%TD*%
%TA.AperFunction,Conductor*%
%TO.N,/Motor Driver A (DRV8301)/H2_VS*%
G36*
X168537741Y-60663374D02*
G01*
X168537741Y-60663375D01*
X168544510Y-60672400D01*
X168569381Y-60738898D01*
X168569710Y-60748000D01*
X168569710Y-62865000D01*
X173947281Y-62865000D01*
X174015402Y-62885002D01*
X174022846Y-62890174D01*
X174060795Y-62918615D01*
X174197184Y-62969745D01*
X174259366Y-62976500D01*
X176260634Y-62976500D01*
X176322816Y-62969745D01*
X176459205Y-62918615D01*
X176497153Y-62890174D01*
X176563661Y-62865326D01*
X176572719Y-62865000D01*
X176951710Y-62865000D01*
X176951710Y-62357000D01*
X178816000Y-62357000D01*
X178816000Y-60325000D01*
X179110710Y-60325000D01*
X179110710Y-60629830D01*
X179065314Y-60696378D01*
X179063140Y-60701061D01*
X179063138Y-60701065D01*
X179045577Y-60738898D01*
X178964163Y-60914290D01*
X178899960Y-61145798D01*
X178879000Y-61341928D01*
X178879000Y-61576402D01*
X178879212Y-61578975D01*
X178879212Y-61578986D01*
X178887513Y-61679946D01*
X178893678Y-61754937D01*
X178952206Y-61987944D01*
X179048003Y-62208263D01*
X179050807Y-62212598D01*
X179050809Y-62212601D01*
X179110710Y-62305193D01*
X179110710Y-62992000D01*
X177967710Y-65024000D01*
X168125379Y-65024000D01*
X168057258Y-65003998D01*
X168023942Y-64972743D01*
X166377289Y-62738000D01*
X166380749Y-62735450D01*
X166375931Y-62728910D01*
X166372389Y-62731350D01*
X166308273Y-62644335D01*
X166283967Y-62577630D01*
X166283710Y-62569593D01*
X166283710Y-60758190D01*
X166303712Y-60690069D01*
X166320615Y-60669095D01*
X166791710Y-60198000D01*
X168188710Y-60198000D01*
X168537741Y-60663374D01*
G37*
%TD.AperFunction*%
%TD*%
%TA.AperFunction,Conductor*%
%TO.N,V_SUPPLY*%
G36*
X165502526Y-52633965D02*
G01*
X165524507Y-63039888D01*
X165561805Y-80696717D01*
X165550093Y-80750033D01*
X165502163Y-80853290D01*
X165437960Y-81084798D01*
X165417000Y-81280928D01*
X165417000Y-81515402D01*
X165417212Y-81517975D01*
X165417212Y-81517986D01*
X165425513Y-81618946D01*
X165431678Y-81693937D01*
X165490206Y-81926944D01*
X165492267Y-81931683D01*
X165554371Y-82074515D01*
X165564821Y-82124491D01*
X165583255Y-90851410D01*
X165578673Y-90885346D01*
X165566341Y-90929817D01*
X165564960Y-90934798D01*
X165544000Y-91130928D01*
X165544000Y-91365402D01*
X165544212Y-91367975D01*
X165544212Y-91367986D01*
X165552513Y-91468946D01*
X165558678Y-91543937D01*
X165581178Y-91633511D01*
X165584972Y-91663931D01*
X165596210Y-96983910D01*
X165604140Y-100738105D01*
X165599558Y-100772042D01*
X165564960Y-100896798D01*
X165544000Y-101092928D01*
X165544000Y-101327402D01*
X165544212Y-101329975D01*
X165544212Y-101329986D01*
X165552513Y-101430946D01*
X165558678Y-101505937D01*
X165559939Y-101510956D01*
X165602399Y-101679994D01*
X165606194Y-101710419D01*
X165607630Y-102390105D01*
X165607733Y-102438645D01*
X165587875Y-102506808D01*
X165534317Y-102553414D01*
X165481446Y-102564911D01*
X164141900Y-102561857D01*
X163474150Y-102560335D01*
X163406076Y-102540177D01*
X163359705Y-102486416D01*
X163349762Y-102416119D01*
X163356456Y-102390105D01*
X163376471Y-102336715D01*
X163379245Y-102329316D01*
X163386000Y-102267134D01*
X163386000Y-100170866D01*
X163379245Y-100108684D01*
X163328115Y-99972295D01*
X163240761Y-99855739D01*
X163211090Y-99833502D01*
X163168577Y-99776643D01*
X163160657Y-99732677D01*
X163160657Y-92743323D01*
X163180659Y-92675202D01*
X163211090Y-92642499D01*
X163240761Y-92620261D01*
X163328115Y-92503705D01*
X163379245Y-92367316D01*
X163386000Y-92305134D01*
X163386000Y-90208866D01*
X163379245Y-90146684D01*
X163328115Y-90010295D01*
X163240761Y-89893739D01*
X163211090Y-89871502D01*
X163168577Y-89814643D01*
X163160657Y-89770677D01*
X163160657Y-82749663D01*
X163180659Y-82681542D01*
X163185818Y-82674116D01*
X163201115Y-82653705D01*
X163252245Y-82517316D01*
X163259000Y-82455134D01*
X163259000Y-80358866D01*
X163252245Y-80296684D01*
X163201115Y-80160295D01*
X163185830Y-80139900D01*
X163160983Y-80073397D01*
X163160657Y-80064337D01*
X163160657Y-72789323D01*
X163180659Y-72721202D01*
X163211090Y-72688499D01*
X163240761Y-72666261D01*
X163328115Y-72549705D01*
X163379245Y-72413316D01*
X163386000Y-72351134D01*
X163386000Y-70254866D01*
X163379245Y-70192684D01*
X163328115Y-70056295D01*
X163240761Y-69939739D01*
X163211090Y-69917502D01*
X163168577Y-69860643D01*
X163160657Y-69816677D01*
X163160657Y-63039888D01*
X163180659Y-62971767D01*
X163234315Y-62925274D01*
X163242424Y-62921907D01*
X163242525Y-62921869D01*
X163251205Y-62918615D01*
X163367761Y-62831261D01*
X163455115Y-62714705D01*
X163506245Y-62578316D01*
X163513000Y-62516134D01*
X163513000Y-60419866D01*
X163506245Y-60357684D01*
X163455115Y-60221295D01*
X163367761Y-60104739D01*
X163251205Y-60017385D01*
X163242424Y-60014093D01*
X163242109Y-60013856D01*
X163234925Y-60009923D01*
X163235493Y-60008886D01*
X163185661Y-59971450D01*
X163160963Y-59904887D01*
X163160657Y-59896112D01*
X163160657Y-53181498D01*
X163180659Y-53113377D01*
X163234315Y-53066884D01*
X163242427Y-53063516D01*
X163369797Y-53015767D01*
X163378205Y-53012615D01*
X163494761Y-52925261D01*
X163582115Y-52808705D01*
X163633245Y-52672316D01*
X163640000Y-52610134D01*
X163640000Y-50513866D01*
X163633245Y-50451684D01*
X163582115Y-50315295D01*
X163583410Y-50314810D01*
X163570243Y-50254613D01*
X163572810Y-50236684D01*
X163573056Y-50235555D01*
X165497459Y-50235250D01*
X165502526Y-52633965D01*
G37*
%TD.AperFunction*%
%TD*%
%TA.AperFunction,Conductor*%
%TO.N,/Motor Driver B (DRV8301)/H1_VS*%
G36*
X178435000Y-82677000D02*
G01*
X177038000Y-82677000D01*
X176847500Y-82423000D01*
X178689000Y-82423000D01*
X178435000Y-82677000D01*
G37*
%TD.AperFunction*%
%TA.AperFunction,Conductor*%
G36*
X176657000Y-80010000D02*
G01*
X176445719Y-80010000D01*
X176377598Y-79989998D01*
X176370154Y-79984826D01*
X176339392Y-79961771D01*
X176339390Y-79961770D01*
X176332205Y-79956385D01*
X176195816Y-79905255D01*
X176133634Y-79898500D01*
X174132366Y-79898500D01*
X174070184Y-79905255D01*
X173933795Y-79956385D01*
X173926610Y-79961770D01*
X173926608Y-79961771D01*
X173895846Y-79984826D01*
X173829339Y-80009674D01*
X173820281Y-80010000D01*
X168275000Y-80010000D01*
X168275000Y-82550000D01*
X166128813Y-82550000D01*
X166116395Y-82517487D01*
X166116000Y-82507515D01*
X166116000Y-79914295D01*
X166130643Y-79855341D01*
X167223505Y-77791046D01*
X167273055Y-77740201D01*
X167334862Y-77724000D01*
X176657000Y-77724000D01*
X176657000Y-80010000D01*
G37*
%TD.AperFunction*%
%TD*%
%TA.AperFunction,Conductor*%
%TO.N,/Motor Driver B (DRV8301)/H2_VS*%
G36*
X184150000Y-93218000D02*
G01*
X188569600Y-93218000D01*
X188569600Y-94489000D01*
X188549598Y-94557121D01*
X188495942Y-94603614D01*
X188443600Y-94615000D01*
X177673000Y-94615000D01*
X178816000Y-92837000D01*
X182753000Y-92837000D01*
X183351095Y-92238905D01*
X183413407Y-92204879D01*
X183440190Y-92202000D01*
X184150000Y-92202000D01*
X184150000Y-93218000D01*
G37*
%TD.AperFunction*%
%TD*%
%TA.AperFunction,Conductor*%
%TO.N,+3.3V*%
G36*
X121699375Y-58641939D02*
G01*
X121738899Y-58666302D01*
X121901243Y-58720149D01*
X121908080Y-58720849D01*
X121908082Y-58720850D01*
X121949401Y-58725083D01*
X122002268Y-58730500D01*
X122599732Y-58730500D01*
X122602978Y-58730163D01*
X122602982Y-58730163D01*
X122637083Y-58726625D01*
X122702019Y-58719887D01*
X122743098Y-58706182D01*
X122857324Y-58668073D01*
X122857326Y-58668072D01*
X122864268Y-58665756D01*
X122902570Y-58642054D01*
X122968870Y-58623200D01*
X124554261Y-58623200D01*
X124620375Y-58641939D01*
X124659899Y-58666302D01*
X124822243Y-58720149D01*
X124829080Y-58720849D01*
X124829082Y-58720850D01*
X124870401Y-58725083D01*
X124923268Y-58730500D01*
X125520732Y-58730500D01*
X125523978Y-58730163D01*
X125523982Y-58730163D01*
X125558083Y-58726625D01*
X125623019Y-58719887D01*
X125664098Y-58706182D01*
X125778324Y-58668073D01*
X125778326Y-58668072D01*
X125785268Y-58665756D01*
X125823570Y-58642054D01*
X125889870Y-58623200D01*
X131699000Y-58623200D01*
X131699000Y-60445905D01*
X131675317Y-60461601D01*
X127496945Y-62155535D01*
X127489483Y-62158289D01*
X127370675Y-62197927D01*
X127370670Y-62197929D01*
X127363732Y-62200244D01*
X127357511Y-62204094D01*
X127357504Y-62204097D01*
X127329239Y-62221588D01*
X127310277Y-62231212D01*
X127000000Y-62357000D01*
X127000000Y-62559758D01*
X126993593Y-62599424D01*
X126953851Y-62719243D01*
X126953151Y-62726080D01*
X126953150Y-62726082D01*
X126948917Y-62767401D01*
X126943500Y-62820268D01*
X126943500Y-63129405D01*
X126923498Y-63197526D01*
X126906595Y-63218500D01*
X126809747Y-63315348D01*
X126801461Y-63322888D01*
X126794982Y-63327000D01*
X126789557Y-63332777D01*
X126748357Y-63376651D01*
X126745602Y-63379493D01*
X126725865Y-63399230D01*
X126723385Y-63402427D01*
X126715682Y-63411447D01*
X126685414Y-63443679D01*
X126681595Y-63450625D01*
X126681593Y-63450628D01*
X126675652Y-63461434D01*
X126664801Y-63477953D01*
X126652386Y-63493959D01*
X126649241Y-63501228D01*
X126649238Y-63501232D01*
X126634826Y-63534537D01*
X126629609Y-63545187D01*
X126608305Y-63583940D01*
X126606334Y-63591615D01*
X126606334Y-63591616D01*
X126603267Y-63603562D01*
X126596863Y-63622266D01*
X126588819Y-63640855D01*
X126587579Y-63648681D01*
X126585366Y-63656299D01*
X126583868Y-63655864D01*
X126557321Y-63711863D01*
X126497053Y-63749390D01*
X126463284Y-63754000D01*
X125909190Y-63754000D01*
X125841069Y-63733998D01*
X125820095Y-63717095D01*
X124460000Y-62357000D01*
X122862499Y-62357000D01*
X122794378Y-62336998D01*
X122773482Y-62320174D01*
X122747883Y-62294620D01*
X122742702Y-62289448D01*
X122632613Y-62221588D01*
X122603331Y-62203538D01*
X122603329Y-62203537D01*
X122597101Y-62199698D01*
X122434757Y-62145851D01*
X122427920Y-62145151D01*
X122427918Y-62145150D01*
X122386599Y-62140917D01*
X122333732Y-62135500D01*
X121786268Y-62135500D01*
X121783022Y-62135837D01*
X121783018Y-62135837D01*
X121748917Y-62139375D01*
X121683981Y-62146113D01*
X121677440Y-62148295D01*
X121677441Y-62148295D01*
X121528676Y-62197927D01*
X121528674Y-62197928D01*
X121521732Y-62200244D01*
X121515508Y-62204096D01*
X121515507Y-62204096D01*
X121487240Y-62221588D01*
X121376287Y-62290248D01*
X121371114Y-62295430D01*
X121346569Y-62320018D01*
X121284287Y-62354097D01*
X121257396Y-62357000D01*
X121031000Y-62357000D01*
X121031000Y-63628000D01*
X121010998Y-63696121D01*
X120957342Y-63742614D01*
X120905000Y-63754000D01*
X120678029Y-63754000D01*
X120609908Y-63733998D01*
X120591777Y-63719851D01*
X120549250Y-63679916D01*
X120546407Y-63677160D01*
X120526608Y-63657361D01*
X120523483Y-63654937D01*
X120523474Y-63654929D01*
X120523388Y-63654863D01*
X120514363Y-63647155D01*
X120487799Y-63622210D01*
X120482020Y-63616783D01*
X120464183Y-63606977D01*
X120447667Y-63596127D01*
X120431581Y-63583650D01*
X120390848Y-63566024D01*
X120380200Y-63560807D01*
X120351807Y-63545198D01*
X120341317Y-63539431D01*
X120333642Y-63537460D01*
X120333636Y-63537458D01*
X120321603Y-63534369D01*
X120302901Y-63527966D01*
X120284222Y-63519883D01*
X120250386Y-63514524D01*
X120240387Y-63512940D01*
X120228774Y-63510535D01*
X120185796Y-63499500D01*
X120165449Y-63499500D01*
X120145738Y-63497949D01*
X120133464Y-63496005D01*
X120125635Y-63494765D01*
X120117743Y-63495511D01*
X120081458Y-63498941D01*
X120069600Y-63499500D01*
X120014000Y-63499500D01*
X119945879Y-63479498D01*
X119899386Y-63425842D01*
X119888000Y-63373500D01*
X119888000Y-59375968D01*
X119908002Y-59307847D01*
X119943505Y-59271534D01*
X120836732Y-58668606D01*
X120872052Y-58644765D01*
X120942546Y-58623200D01*
X121633261Y-58623200D01*
X121699375Y-58641939D01*
G37*
%TD.AperFunction*%
%TD*%
%TA.AperFunction,Conductor*%
%TO.N,V_SUPPLY*%
G36*
X159073121Y-46017302D02*
G01*
X159119614Y-46070958D01*
X159131000Y-46123300D01*
X159131000Y-50165000D01*
X153035000Y-50165000D01*
X153035000Y-46123300D01*
X153055002Y-46055179D01*
X153108658Y-46008686D01*
X153161000Y-45997300D01*
X159005000Y-45997300D01*
X159073121Y-46017302D01*
G37*
%TD.AperFunction*%
%TD*%
%TA.AperFunction,Conductor*%
%TO.N,/Motor Driver A (DRV8301)/H1_VS*%
G36*
X169418000Y-52959000D02*
G01*
X168402000Y-52959000D01*
X168402000Y-51943000D01*
X169418000Y-52959000D01*
G37*
%TD.AperFunction*%
%TD*%
%TA.AperFunction,Conductor*%
%TO.N,/Motor Driver B (DRV8301)/H2_VS*%
G36*
X188511721Y-87523002D02*
G01*
X188558214Y-87576658D01*
X188569600Y-87629000D01*
X188569600Y-93218000D01*
X184150000Y-93218000D01*
X184150000Y-90043000D01*
X183134000Y-89027000D01*
X179705000Y-89027000D01*
X179695560Y-89035091D01*
X179695561Y-89035091D01*
X178943033Y-89680115D01*
X178816000Y-89789000D01*
X178816000Y-90764601D01*
X178772960Y-90919798D01*
X178752000Y-91115928D01*
X178752000Y-91350402D01*
X178752212Y-91352975D01*
X178752212Y-91352986D01*
X178760513Y-91453946D01*
X178766678Y-91528937D01*
X178767939Y-91533956D01*
X178816000Y-91725294D01*
X178816000Y-92202000D01*
X176770453Y-92202000D01*
X176757217Y-92199121D01*
X176758176Y-92194711D01*
X176714879Y-92181998D01*
X176668386Y-92128342D01*
X176657000Y-92076000D01*
X176657000Y-87503000D01*
X188443600Y-87503000D01*
X188511721Y-87523002D01*
G37*
%TD.AperFunction*%
%TD*%
%TA.AperFunction,Conductor*%
%TO.N,GND*%
G36*
X121632693Y-55239602D02*
G01*
X121651752Y-55254630D01*
X122795580Y-56350799D01*
X122830923Y-56412373D01*
X122834400Y-56441769D01*
X122834400Y-57887600D01*
X122814398Y-57955721D01*
X122760742Y-58002214D01*
X122708400Y-58013600D01*
X120420400Y-58013600D01*
X120352279Y-57993598D01*
X120305786Y-57939942D01*
X120294400Y-57887600D01*
X120294400Y-55345600D01*
X120314402Y-55277479D01*
X120368058Y-55230986D01*
X120420400Y-55219600D01*
X121564572Y-55219600D01*
X121632693Y-55239602D01*
G37*
%TD.AperFunction*%
%TD*%
%TA.AperFunction,Conductor*%
%TO.N,+3.3V*%
G36*
X124859523Y-48432402D02*
G01*
X124906016Y-48486058D01*
X124917402Y-48538198D01*
X124926399Y-54140647D01*
X128727200Y-57962800D01*
X128727200Y-60198000D01*
X125622599Y-56643457D01*
X125592853Y-56578993D01*
X125604107Y-56505633D01*
X125651674Y-56407454D01*
X125651675Y-56407452D01*
X125655588Y-56399375D01*
X125676997Y-56272120D01*
X125677133Y-56261000D01*
X125658839Y-56133259D01*
X125605428Y-56015788D01*
X125555021Y-55957287D01*
X125527051Y-55924826D01*
X125527049Y-55924824D01*
X125521193Y-55918028D01*
X125412906Y-55847841D01*
X125404311Y-55845271D01*
X125404310Y-55845270D01*
X125297874Y-55813438D01*
X125297872Y-55813438D01*
X125289273Y-55810866D01*
X125280298Y-55810811D01*
X125280297Y-55810811D01*
X125225641Y-55810477D01*
X125160231Y-55810078D01*
X125098193Y-55827808D01*
X125044786Y-55843072D01*
X125044784Y-55843073D01*
X125036155Y-55845539D01*
X125028565Y-55850328D01*
X125028558Y-55850331D01*
X125008014Y-55863294D01*
X124939730Y-55882730D01*
X124871778Y-55862162D01*
X124855725Y-55849697D01*
X122875348Y-54037863D01*
X122838590Y-53977123D01*
X122834400Y-53944900D01*
X122834400Y-48538400D01*
X122854402Y-48470279D01*
X122908058Y-48423786D01*
X122960400Y-48412400D01*
X124791402Y-48412400D01*
X124859523Y-48432402D01*
G37*
%TD.AperFunction*%
%TD*%
%TA.AperFunction,Conductor*%
%TO.N,+3.3V*%
G36*
X123482203Y-84805202D02*
G01*
X123528696Y-84858858D01*
X123538800Y-84929132D01*
X123507516Y-84995735D01*
X122826234Y-85748731D01*
X122765698Y-85785825D01*
X122694718Y-85784303D01*
X122639366Y-85748731D01*
X121958084Y-84995735D01*
X121927214Y-84931801D01*
X121935809Y-84861327D01*
X121981140Y-84806687D01*
X122051518Y-84785200D01*
X123414082Y-84785200D01*
X123482203Y-84805202D01*
G37*
%TD.AperFunction*%
%TD*%
%TA.AperFunction,Conductor*%
%TO.N,V_SUPPLY*%
G36*
X150513321Y-97454402D02*
G01*
X150559814Y-97508058D01*
X150571200Y-97560400D01*
X150571200Y-98324400D01*
X150551198Y-98392521D01*
X150497542Y-98439014D01*
X150445200Y-98450400D01*
X149630400Y-98450400D01*
X149562279Y-98430398D01*
X149515786Y-98376742D01*
X149504400Y-98324400D01*
X149504400Y-97560400D01*
X149524402Y-97492279D01*
X149578058Y-97445786D01*
X149630400Y-97434400D01*
X150445200Y-97434400D01*
X150513321Y-97454402D01*
G37*
%TD.AperFunction*%
%TD*%
%TA.AperFunction,Conductor*%
%TO.N,+3.3V*%
G36*
X138936061Y-61335602D02*
G01*
X138982554Y-61389258D01*
X138993831Y-61436354D01*
X139026546Y-62221503D01*
X139009397Y-62290398D01*
X138957723Y-62339084D01*
X138887931Y-62352105D01*
X138822178Y-62325326D01*
X138813396Y-62317644D01*
X137995532Y-61532495D01*
X137960243Y-61470890D01*
X137963861Y-61399986D01*
X138005240Y-61342294D01*
X138071240Y-61316131D01*
X138082791Y-61315600D01*
X138867940Y-61315600D01*
X138936061Y-61335602D01*
G37*
%TD.AperFunction*%
%TD*%
%TA.AperFunction,Conductor*%
%TO.N,V_SUPPLY*%
G36*
X159258000Y-50928000D02*
G01*
X159237998Y-50996121D01*
X159184342Y-51042614D01*
X159132000Y-51054000D01*
X153060400Y-51054000D01*
X153060400Y-48310800D01*
X159258000Y-48310800D01*
X159258000Y-50928000D01*
G37*
%TD.AperFunction*%
%TD*%
%TA.AperFunction,Conductor*%
%TO.N,V_SUPPLY*%
G36*
X160030348Y-50165000D02*
G01*
X159258000Y-50760811D01*
X159207200Y-50800000D01*
X159207200Y-49428400D01*
X160985200Y-49428400D01*
X160030348Y-50165000D01*
G37*
%TD.AperFunction*%
%TD*%
%TA.AperFunction,Conductor*%
%TO.N,GND*%
G36*
X150716521Y-45994002D02*
G01*
X150763014Y-46047658D01*
X150774400Y-46100000D01*
X150774400Y-50928832D01*
X150754398Y-50996953D01*
X150700742Y-51043446D01*
X150649234Y-51054829D01*
X145573213Y-51088445D01*
X143230434Y-51103960D01*
X143162183Y-51084410D01*
X143115336Y-51031063D01*
X143103600Y-50977963D01*
X143103600Y-46100000D01*
X143123602Y-46031879D01*
X143177258Y-45985386D01*
X143229600Y-45974000D01*
X150648400Y-45974000D01*
X150716521Y-45994002D01*
G37*
%TD.AperFunction*%
%TD*%
%TA.AperFunction,Conductor*%
%TO.N,V_SUPPLY*%
G36*
X159150934Y-46017302D02*
G01*
X159167346Y-46029865D01*
X161211126Y-47879000D01*
X161239200Y-47904400D01*
X159107231Y-47916921D01*
X159105625Y-46003998D01*
X159150934Y-46017302D01*
G37*
%TD.AperFunction*%
%TD*%
M02*
